<?xml version="1.0" encoding="utf-8" standalone="no"?>
<!DOCTYPE svg PUBLIC "-//W3C//DTD SVG 1.1//EN"
  "http://www.w3.org/Graphics/SVG/1.1/DTD/svg11.dtd">
<svg xmlns:xlink="http://www.w3.org/1999/xlink" width="739.8pt" height="217.297791pt" viewBox="0 0 739.8 217.297791" xmlns="http://www.w3.org/2000/svg" version="1.1">
 <metadata>
  <rdf:RDF xmlns:dc="http://purl.org/dc/elements/1.1/" xmlns:cc="http://creativecommons.org/ns#" xmlns:rdf="http://www.w3.org/1999/02/22-rdf-syntax-ns#">
   <cc:Work>
    <dc:type rdf:resource="http://purl.org/dc/dcmitype/StillImage"/>
    <dc:date>2026-04-06T18:17:06.798372</dc:date>
    <dc:format>image/svg+xml</dc:format>
    <dc:creator>
     <cc:Agent>
      <dc:title>Matplotlib v3.10.8, https://matplotlib.org/</dc:title>
     </cc:Agent>
    </dc:creator>
   </cc:Work>
  </rdf:RDF>
 </metadata>
 <defs>
  <style type="text/css">*{stroke-linejoin: round; stroke-linecap: butt}</style>
 </defs>
 <g id="figure_1">
  <g id="patch_1">
   <path d="M 0 217.297791 
L 739.8 217.297791 
L 739.8 0 
L 0 0 
z
" style="fill: #ffffff"/>
  </g>
  <g id="axes_1">
   <g id="patch_2">
    <path d="M 94.59759 182.523319 
C 113.14008 182.523319 130.925613 175.15631 144.037133 162.04479 
C 157.148653 148.93327 164.515663 131.147736 164.515663 112.605247 
C 164.515663 94.062757 157.148653 76.277224 144.037133 63.165704 
C 130.925613 50.054183 113.14008 42.687174 94.59759 42.687174 
C 76.055101 42.687174 58.269567 50.054183 45.158047 63.165704 
C 32.046527 76.277224 24.679518 94.062757 24.679518 112.605247 
C 24.679518 131.147736 32.046527 148.93327 45.158047 162.04479 
C 58.269567 175.15631 76.055101 182.523319 94.59759 182.523319 
z
" clip-path="url(#p5817285332)" style="fill: #b0bec5; stroke: #44546a; stroke-width: 1.8; stroke-linejoin: miter"/>
   </g>
   <g id="patch_3">
    <path d="M 94.59759 133.580668 
C 100.160337 133.580668 105.495997 131.370566 109.429453 127.43711 
C 113.362909 123.503654 115.573012 118.167993 115.573012 112.605247 
C 115.573012 107.0425 113.362909 101.70684 109.429453 97.773384 
C 105.495997 93.839928 100.160337 91.629825 94.59759 91.629825 
C 89.034844 91.629825 83.699183 93.839928 79.765727 97.773384 
C 75.832271 101.70684 73.622169 107.0425 73.622169 112.605247 
C 73.622169 118.167993 75.832271 123.503654 79.765727 127.43711 
C 83.699183 131.370566 89.034844 133.580668 94.59759 133.580668 
z
" clip-path="url(#p5817285332)" style="fill: #607d8b; stroke: #44546a; stroke-width: 1.2; stroke-linejoin: miter"/>
   </g>
   <g id="text_1">
    <!-- Silica core -->
    <g style="fill: #44546a" transform="translate(77.300129 200.476931) scale(0.075 -0.075)">
     <defs>
      <path id="ArialMT-53" d="M 288 1472 
L 859 1522 
Q 900 1178 1048 958 
Q 1197 738 1509 602 
Q 1822 466 2213 466 
Q 2559 466 2825 569 
Q 3091 672 3220 851 
Q 3350 1031 3350 1244 
Q 3350 1459 3225 1620 
Q 3100 1781 2813 1891 
Q 2628 1963 1997 2114 
Q 1366 2266 1113 2400 
Q 784 2572 623 2826 
Q 463 3081 463 3397 
Q 463 3744 659 4045 
Q 856 4347 1234 4503 
Q 1613 4659 2075 4659 
Q 2584 4659 2973 4495 
Q 3363 4331 3572 4012 
Q 3781 3694 3797 3291 
L 3216 3247 
Q 3169 3681 2898 3903 
Q 2628 4125 2100 4125 
Q 1550 4125 1298 3923 
Q 1047 3722 1047 3438 
Q 1047 3191 1225 3031 
Q 1400 2872 2139 2705 
Q 2878 2538 3153 2413 
Q 3553 2228 3743 1945 
Q 3934 1663 3934 1294 
Q 3934 928 3725 604 
Q 3516 281 3123 101 
Q 2731 -78 2241 -78 
Q 1619 -78 1198 103 
Q 778 284 539 648 
Q 300 1013 288 1472 
z
" transform="scale(0.015625)"/>
      <path id="ArialMT-69" d="M 425 3934 
L 425 4581 
L 988 4581 
L 988 3934 
L 425 3934 
z
M 425 0 
L 425 3319 
L 988 3319 
L 988 0 
L 425 0 
z
" transform="scale(0.015625)"/>
      <path id="ArialMT-6c" d="M 409 0 
L 409 4581 
L 972 4581 
L 972 0 
L 409 0 
z
" transform="scale(0.015625)"/>
      <path id="ArialMT-63" d="M 2588 1216 
L 3141 1144 
Q 3050 572 2676 248 
Q 2303 -75 1759 -75 
Q 1078 -75 664 370 
Q 250 816 250 1647 
Q 250 2184 428 2587 
Q 606 2991 970 3192 
Q 1334 3394 1763 3394 
Q 2303 3394 2647 3120 
Q 2991 2847 3088 2344 
L 2541 2259 
Q 2463 2594 2264 2762 
Q 2066 2931 1784 2931 
Q 1359 2931 1093 2626 
Q 828 2322 828 1663 
Q 828 994 1084 691 
Q 1341 388 1753 388 
Q 2084 388 2306 591 
Q 2528 794 2588 1216 
z
" transform="scale(0.015625)"/>
      <path id="ArialMT-61" d="M 2588 409 
Q 2275 144 1986 34 
Q 1697 -75 1366 -75 
Q 819 -75 525 192 
Q 231 459 231 875 
Q 231 1119 342 1320 
Q 453 1522 633 1644 
Q 813 1766 1038 1828 
Q 1203 1872 1538 1913 
Q 2219 1994 2541 2106 
Q 2544 2222 2544 2253 
Q 2544 2597 2384 2738 
Q 2169 2928 1744 2928 
Q 1347 2928 1158 2789 
Q 969 2650 878 2297 
L 328 2372 
Q 403 2725 575 2942 
Q 747 3159 1072 3276 
Q 1397 3394 1825 3394 
Q 2250 3394 2515 3294 
Q 2781 3194 2906 3042 
Q 3031 2891 3081 2659 
Q 3109 2516 3109 2141 
L 3109 1391 
Q 3109 606 3145 398 
Q 3181 191 3288 0 
L 2700 0 
Q 2613 175 2588 409 
z
M 2541 1666 
Q 2234 1541 1622 1453 
Q 1275 1403 1131 1340 
Q 988 1278 909 1158 
Q 831 1038 831 891 
Q 831 666 1001 516 
Q 1172 366 1500 366 
Q 1825 366 2078 508 
Q 2331 650 2450 897 
Q 2541 1088 2541 1459 
L 2541 1666 
z
" transform="scale(0.015625)"/>
      <path id="ArialMT-20" transform="scale(0.015625)"/>
      <path id="ArialMT-6f" d="M 213 1659 
Q 213 2581 725 3025 
Q 1153 3394 1769 3394 
Q 2453 3394 2887 2945 
Q 3322 2497 3322 1706 
Q 3322 1066 3130 698 
Q 2938 331 2570 128 
Q 2203 -75 1769 -75 
Q 1072 -75 642 372 
Q 213 819 213 1659 
z
M 791 1659 
Q 791 1022 1069 705 
Q 1347 388 1769 388 
Q 2188 388 2466 706 
Q 2744 1025 2744 1678 
Q 2744 2294 2464 2611 
Q 2184 2928 1769 2928 
Q 1347 2928 1069 2612 
Q 791 2297 791 1659 
z
" transform="scale(0.015625)"/>
      <path id="ArialMT-72" d="M 416 0 
L 416 3319 
L 922 3319 
L 922 2816 
Q 1116 3169 1280 3281 
Q 1444 3394 1641 3394 
Q 1925 3394 2219 3213 
L 2025 2691 
Q 1819 2813 1613 2813 
Q 1428 2813 1281 2702 
Q 1134 2591 1072 2394 
Q 978 2094 978 1738 
L 978 0 
L 416 0 
z
" transform="scale(0.015625)"/>
      <path id="ArialMT-65" d="M 2694 1069 
L 3275 997 
Q 3138 488 2766 206 
Q 2394 -75 1816 -75 
Q 1088 -75 661 373 
Q 234 822 234 1631 
Q 234 2469 665 2931 
Q 1097 3394 1784 3394 
Q 2450 3394 2872 2941 
Q 3294 2488 3294 1666 
Q 3294 1616 3291 1516 
L 816 1516 
Q 847 969 1125 678 
Q 1403 388 1819 388 
Q 2128 388 2347 550 
Q 2566 713 2694 1069 
z
M 847 1978 
L 2700 1978 
Q 2663 2397 2488 2606 
Q 2219 2931 1791 2931 
Q 1403 2931 1139 2672 
Q 875 2413 847 1978 
z
" transform="scale(0.015625)"/>
     </defs>
     <use xlink:href="#ArialMT-53"/>
     <use xlink:href="#ArialMT-69" transform="translate(66.699219 0)"/>
     <use xlink:href="#ArialMT-6c" transform="translate(88.916016 0)"/>
     <use xlink:href="#ArialMT-69" transform="translate(111.132812 0)"/>
     <use xlink:href="#ArialMT-63" transform="translate(133.349609 0)"/>
     <use xlink:href="#ArialMT-61" transform="translate(183.349609 0)"/>
     <use xlink:href="#ArialMT-20" transform="translate(238.964844 0)"/>
     <use xlink:href="#ArialMT-63" transform="translate(266.748047 0)"/>
     <use xlink:href="#ArialMT-6f" transform="translate(316.748047 0)"/>
     <use xlink:href="#ArialMT-72" transform="translate(372.363281 0)"/>
     <use xlink:href="#ArialMT-65" transform="translate(405.664062 0)"/>
    </g>
    <!-- (n ≈ 1.45) -->
    <g style="fill: #44546a" transform="translate(78.575129 208.519275) scale(0.075 -0.075)">
     <defs>
      <path id="ArialMT-28" d="M 1497 -1347 
Q 1031 -759 709 28 
Q 388 816 388 1659 
Q 388 2403 628 3084 
Q 909 3875 1497 4659 
L 1900 4659 
Q 1522 4009 1400 3731 
Q 1209 3300 1100 2831 
Q 966 2247 966 1656 
Q 966 153 1900 -1347 
L 1497 -1347 
z
" transform="scale(0.015625)"/>
      <path id="ArialMT-6e" d="M 422 0 
L 422 3319 
L 928 3319 
L 928 2847 
Q 1294 3394 1984 3394 
Q 2284 3394 2536 3286 
Q 2788 3178 2913 3003 
Q 3038 2828 3088 2588 
Q 3119 2431 3119 2041 
L 3119 0 
L 2556 0 
L 2556 2019 
Q 2556 2363 2490 2533 
Q 2425 2703 2258 2804 
Q 2091 2906 1866 2906 
Q 1506 2906 1245 2678 
Q 984 2450 984 1813 
L 984 0 
L 422 0 
z
" transform="scale(0.015625)"/>
      <path id="ArialMT-2248" d="M 159 2306 
L 159 2947 
Q 491 3322 1028 3322 
Q 1216 3322 1420 3269 
Q 1625 3216 2009 3050 
Q 2225 2956 2333 2929 
Q 2441 2903 2550 2903 
Q 2753 2903 2970 3025 
Q 3188 3147 3356 3331 
L 3356 2669 
Q 3156 2481 2951 2397 
Q 2747 2313 2491 2313 
Q 2303 2313 2134 2355 
Q 1966 2397 1594 2564 
Q 1222 2731 975 2731 
Q 775 2731 598 2645 
Q 422 2559 159 2306 
z
M 159 1175 
L 159 1816 
Q 491 2191 1028 2191 
Q 1216 2191 1420 2137 
Q 1625 2084 2009 1919 
Q 2225 1828 2333 1800 
Q 2441 1772 2550 1772 
Q 2753 1772 2970 1894 
Q 3188 2016 3356 2200 
L 3356 1538 
Q 3156 1350 2951 1265 
Q 2747 1181 2491 1181 
Q 2303 1181 2134 1225 
Q 1966 1269 1594 1434 
Q 1222 1600 975 1600 
Q 775 1600 598 1514 
Q 422 1428 159 1175 
z
" transform="scale(0.015625)"/>
      <path id="ArialMT-31" d="M 2384 0 
L 1822 0 
L 1822 3584 
Q 1619 3391 1289 3197 
Q 959 3003 697 2906 
L 697 3450 
Q 1169 3672 1522 3987 
Q 1875 4303 2022 4600 
L 2384 4600 
L 2384 0 
z
" transform="scale(0.015625)"/>
      <path id="ArialMT-2e" d="M 581 0 
L 581 641 
L 1222 641 
L 1222 0 
L 581 0 
z
" transform="scale(0.015625)"/>
      <path id="ArialMT-34" d="M 2069 0 
L 2069 1097 
L 81 1097 
L 81 1613 
L 2172 4581 
L 2631 4581 
L 2631 1613 
L 3250 1613 
L 3250 1097 
L 2631 1097 
L 2631 0 
L 2069 0 
z
M 2069 1613 
L 2069 3678 
L 634 1613 
L 2069 1613 
z
" transform="scale(0.015625)"/>
      <path id="ArialMT-35" d="M 266 1200 
L 856 1250 
Q 922 819 1161 601 
Q 1400 384 1738 384 
Q 2144 384 2425 690 
Q 2706 997 2706 1503 
Q 2706 1984 2436 2262 
Q 2166 2541 1728 2541 
Q 1456 2541 1237 2417 
Q 1019 2294 894 2097 
L 366 2166 
L 809 4519 
L 3088 4519 
L 3088 3981 
L 1259 3981 
L 1013 2750 
Q 1425 3038 1878 3038 
Q 2478 3038 2890 2622 
Q 3303 2206 3303 1553 
Q 3303 931 2941 478 
Q 2500 -78 1738 -78 
Q 1113 -78 717 272 
Q 322 622 266 1200 
z
" transform="scale(0.015625)"/>
      <path id="ArialMT-29" d="M 791 -1347 
L 388 -1347 
Q 1322 153 1322 1656 
Q 1322 2244 1188 2822 
Q 1081 3291 891 3722 
Q 769 4003 388 4659 
L 791 4659 
Q 1378 3875 1659 3084 
Q 1900 2403 1900 1659 
Q 1900 816 1576 28 
Q 1253 -759 791 -1347 
z
" transform="scale(0.015625)"/>
     </defs>
     <use xlink:href="#ArialMT-28"/>
     <use xlink:href="#ArialMT-6e" transform="translate(33.300781 0)"/>
     <use xlink:href="#ArialMT-20" transform="translate(88.916016 0)"/>
     <use xlink:href="#ArialMT-2248" transform="translate(116.699219 0)"/>
     <use xlink:href="#ArialMT-20" transform="translate(171.582031 0)"/>
     <use xlink:href="#ArialMT-31" transform="translate(199.365234 0)"/>
     <use xlink:href="#ArialMT-2e" transform="translate(254.980469 0)"/>
     <use xlink:href="#ArialMT-34" transform="translate(282.763672 0)"/>
     <use xlink:href="#ArialMT-35" transform="translate(338.378906 0)"/>
     <use xlink:href="#ArialMT-29" transform="translate(393.994141 0)"/>
    </g>
   </g>
   <g id="text_2">
    <!-- Solid-Core Fibre -->
    <g style="fill: #44546a" transform="translate(54.55845 15.207656) scale(0.11 -0.11)">
     <defs>
      <path id="ArialMT-64" d="M 2575 0 
L 2575 419 
Q 2259 -75 1647 -75 
Q 1250 -75 917 144 
Q 584 363 401 755 
Q 219 1147 219 1656 
Q 219 2153 384 2558 
Q 550 2963 881 3178 
Q 1213 3394 1622 3394 
Q 1922 3394 2156 3267 
Q 2391 3141 2538 2938 
L 2538 4581 
L 3097 4581 
L 3097 0 
L 2575 0 
z
M 797 1656 
Q 797 1019 1065 703 
Q 1334 388 1700 388 
Q 2069 388 2326 689 
Q 2584 991 2584 1609 
Q 2584 2291 2321 2609 
Q 2059 2928 1675 2928 
Q 1300 2928 1048 2622 
Q 797 2316 797 1656 
z
" transform="scale(0.015625)"/>
      <path id="ArialMT-2d" d="M 203 1375 
L 203 1941 
L 1931 1941 
L 1931 1375 
L 203 1375 
z
" transform="scale(0.015625)"/>
      <path id="ArialMT-43" d="M 3763 1606 
L 4369 1453 
Q 4178 706 3683 314 
Q 3188 -78 2472 -78 
Q 1731 -78 1267 223 
Q 803 525 561 1097 
Q 319 1669 319 2325 
Q 319 3041 592 3573 
Q 866 4106 1370 4382 
Q 1875 4659 2481 4659 
Q 3169 4659 3637 4309 
Q 4106 3959 4291 3325 
L 3694 3184 
Q 3534 3684 3231 3912 
Q 2928 4141 2469 4141 
Q 1941 4141 1586 3887 
Q 1231 3634 1087 3207 
Q 944 2781 944 2328 
Q 944 1744 1114 1308 
Q 1284 872 1643 656 
Q 2003 441 2422 441 
Q 2931 441 3284 734 
Q 3638 1028 3763 1606 
z
" transform="scale(0.015625)"/>
      <path id="ArialMT-46" d="M 525 0 
L 525 4581 
L 3616 4581 
L 3616 4041 
L 1131 4041 
L 1131 2622 
L 3281 2622 
L 3281 2081 
L 1131 2081 
L 1131 0 
L 525 0 
z
" transform="scale(0.015625)"/>
      <path id="ArialMT-62" d="M 941 0 
L 419 0 
L 419 4581 
L 981 4581 
L 981 2947 
Q 1338 3394 1891 3394 
Q 2197 3394 2470 3270 
Q 2744 3147 2920 2923 
Q 3097 2700 3197 2384 
Q 3297 2069 3297 1709 
Q 3297 856 2875 390 
Q 2453 -75 1863 -75 
Q 1275 -75 941 416 
L 941 0 
z
M 934 1684 
Q 934 1088 1097 822 
Q 1363 388 1816 388 
Q 2184 388 2453 708 
Q 2722 1028 2722 1663 
Q 2722 2313 2464 2622 
Q 2206 2931 1841 2931 
Q 1472 2931 1203 2611 
Q 934 2291 934 1684 
z
" transform="scale(0.015625)"/>
     </defs>
     <use xlink:href="#ArialMT-53"/>
     <use xlink:href="#ArialMT-6f" transform="translate(66.699219 0)"/>
     <use xlink:href="#ArialMT-6c" transform="translate(122.314453 0)"/>
     <use xlink:href="#ArialMT-69" transform="translate(144.53125 0)"/>
     <use xlink:href="#ArialMT-64" transform="translate(166.748047 0)"/>
     <use xlink:href="#ArialMT-2d" transform="translate(222.363281 0)"/>
     <use xlink:href="#ArialMT-43" transform="translate(255.664062 0)"/>
     <use xlink:href="#ArialMT-6f" transform="translate(327.880859 0)"/>
     <use xlink:href="#ArialMT-72" transform="translate(383.496094 0)"/>
     <use xlink:href="#ArialMT-65" transform="translate(416.796875 0)"/>
     <use xlink:href="#ArialMT-20" transform="translate(472.412109 0)"/>
     <use xlink:href="#ArialMT-46" transform="translate(500.195312 0)"/>
     <use xlink:href="#ArialMT-69" transform="translate(561.279297 0)"/>
     <use xlink:href="#ArialMT-62" transform="translate(583.496094 0)"/>
     <use xlink:href="#ArialMT-72" transform="translate(639.111328 0)"/>
     <use xlink:href="#ArialMT-65" transform="translate(672.412109 0)"/>
    </g>
   </g>
  </g>
  <g id="axes_2">
   <g id="patch_4">
    <path d="M 278.13253 182.523319 
C 296.67502 182.523319 314.460553 175.15631 327.572073 162.04479 
C 340.683593 148.93327 348.050602 131.147736 348.050602 112.605247 
C 348.050602 94.062757 340.683593 76.277224 327.572073 63.165704 
C 314.460553 50.054183 296.67502 42.687174 278.13253 42.687174 
C 259.590041 42.687174 241.804507 50.054183 228.692987 63.165704 
C 215.581467 76.277224 208.214458 94.062757 208.214458 112.605247 
C 208.214458 131.147736 215.581467 148.93327 228.692987 162.04479 
C 241.804507 175.15631 259.590041 182.523319 278.13253 182.523319 
z
" clip-path="url(#p61ec0b0ed0)" style="fill: #b0bec5; stroke: #44546a; stroke-width: 1.8; stroke-linejoin: miter"/>
   </g>
   <g id="patch_5">
    <path d="M 228.315904 103.388839 
C 230.44829 103.388839 232.493626 102.541633 234.001451 101.033808 
C 235.509276 99.525984 236.356482 97.480647 236.356482 95.348261 
C 236.356482 93.215875 235.509276 91.170538 234.001451 89.662714 
C 232.493626 88.154889 230.44829 87.307683 228.315904 87.307683 
C 226.183517 87.307683 224.138181 88.154889 222.630356 89.662714 
C 221.122531 91.170538 220.275325 93.215875 220.275325 95.348261 
C 220.275325 97.480647 221.122531 99.525984 222.630356 101.033808 
C 224.138181 102.541633 226.183517 103.388839 228.315904 103.388839 
z
" clip-path="url(#p61ec0b0ed0)" style="fill: #ffffff; stroke: #7f7776; stroke-width: 0.5; stroke-linejoin: miter"/>
   </g>
   <g id="patch_6">
    <path d="M 238.279229 86.131854 
C 240.411615 86.131854 242.456952 85.284648 243.964776 83.776823 
C 245.472601 82.268998 246.319807 80.223662 246.319807 78.091275 
C 246.319807 75.958889 245.472601 73.913553 243.964776 72.405728 
C 242.456952 70.897903 240.411615 70.050697 238.279229 70.050697 
C 236.146843 70.050697 234.101506 70.897903 232.593681 72.405728 
C 231.085857 73.913553 230.238651 75.958889 230.238651 78.091275 
C 230.238651 80.223662 231.085857 82.268998 232.593681 83.776823 
C 234.101506 85.284648 236.146843 86.131854 238.279229 86.131854 
z
" clip-path="url(#p61ec0b0ed0)" style="fill: #ffffff; stroke: #7f7776; stroke-width: 0.5; stroke-linejoin: miter"/>
   </g>
   <g id="patch_7">
    <path d="M 228.315904 137.902811 
C 230.44829 137.902811 232.493626 137.055605 234.001451 135.54778 
C 235.509276 134.039955 236.356482 131.994619 236.356482 129.862232 
C 236.356482 127.729846 235.509276 125.68451 234.001451 124.176685 
C 232.493626 122.66886 230.44829 121.821654 228.315904 121.821654 
C 226.183517 121.821654 224.138181 122.66886 222.630356 124.176685 
C 221.122531 125.68451 220.275325 127.729846 220.275325 129.862232 
C 220.275325 131.994619 221.122531 134.039955 222.630356 135.54778 
C 224.138181 137.055605 226.183517 137.902811 228.315904 137.902811 
z
" clip-path="url(#p61ec0b0ed0)" style="fill: #ffffff; stroke: #7f7776; stroke-width: 0.5; stroke-linejoin: miter"/>
   </g>
   <g id="patch_8">
    <path d="M 238.279229 120.645825 
C 240.411615 120.645825 242.456952 119.798619 243.964776 118.290794 
C 245.472601 116.782969 246.319807 114.737633 246.319807 112.605247 
C 246.319807 110.47286 245.472601 108.427524 243.964776 106.919699 
C 242.456952 105.411874 240.411615 104.564668 238.279229 104.564668 
C 236.146843 104.564668 234.101506 105.411874 232.593681 106.919699 
C 231.085857 108.427524 230.238651 110.47286 230.238651 112.605247 
C 230.238651 114.737633 231.085857 116.782969 232.593681 118.290794 
C 234.101506 119.798619 236.146843 120.645825 238.279229 120.645825 
z
" clip-path="url(#p61ec0b0ed0)" style="fill: #ffffff; stroke: #7f7776; stroke-width: 0.5; stroke-linejoin: miter"/>
   </g>
   <g id="patch_9">
    <path d="M 248.242554 103.388839 
C 250.374941 103.388839 252.420277 102.541633 253.928102 101.033808 
C 255.435926 99.525984 256.283133 97.480647 256.283133 95.348261 
C 256.283133 93.215875 255.435926 91.170538 253.928102 89.662714 
C 252.420277 88.154889 250.374941 87.307683 248.242554 87.307683 
C 246.110168 87.307683 244.064832 88.154889 242.557007 89.662714 
C 241.049182 91.170538 240.201976 93.215875 240.201976 95.348261 
C 240.201976 97.480647 241.049182 99.525984 242.557007 101.033808 
C 244.064832 102.541633 246.110168 103.388839 248.242554 103.388839 
z
" clip-path="url(#p61ec0b0ed0)" style="fill: #ffffff; stroke: #7f7776; stroke-width: 0.5; stroke-linejoin: miter"/>
   </g>
   <g id="patch_10">
    <path d="M 258.20588 86.131854 
C 260.338266 86.131854 262.383602 85.284648 263.891427 83.776823 
C 265.399252 82.268998 266.246458 80.223662 266.246458 78.091275 
C 266.246458 75.958889 265.399252 73.913553 263.891427 72.405728 
C 262.383602 70.897903 260.338266 70.050697 258.20588 70.050697 
C 256.073493 70.050697 254.028157 70.897903 252.520332 72.405728 
C 251.012507 73.913553 250.165301 75.958889 250.165301 78.091275 
C 250.165301 80.223662 251.012507 82.268998 252.520332 83.776823 
C 254.028157 85.284648 256.073493 86.131854 258.20588 86.131854 
z
" clip-path="url(#p61ec0b0ed0)" style="fill: #ffffff; stroke: #7f7776; stroke-width: 0.5; stroke-linejoin: miter"/>
   </g>
   <g id="patch_11">
    <path d="M 268.169205 68.874868 
C 270.301591 68.874868 272.346927 68.027662 273.854752 66.519837 
C 275.362577 65.012012 276.209783 62.966676 276.209783 60.83429 
C 276.209783 58.701903 275.362577 56.656567 273.854752 55.148742 
C 272.346927 53.640917 270.301591 52.793711 268.169205 52.793711 
C 266.036819 52.793711 263.991482 53.640917 262.483657 55.148742 
C 260.975833 56.656567 260.128627 58.701903 260.128627 60.83429 
C 260.128627 62.966676 260.975833 65.012012 262.483657 66.519837 
C 263.991482 68.027662 266.036819 68.874868 268.169205 68.874868 
z
" clip-path="url(#p61ec0b0ed0)" style="fill: #ffffff; stroke: #7f7776; stroke-width: 0.5; stroke-linejoin: miter"/>
   </g>
   <g id="patch_12">
    <path d="M 238.279229 155.159796 
C 240.411615 155.159796 242.456952 154.31259 243.964776 152.804765 
C 245.472601 151.296941 246.319807 149.251604 246.319807 147.119218 
C 246.319807 144.986832 245.472601 142.941495 243.964776 141.43367 
C 242.456952 139.925846 240.411615 139.07864 238.279229 139.07864 
C 236.146843 139.07864 234.101506 139.925846 232.593681 141.43367 
C 231.085857 142.941495 230.238651 144.986832 230.238651 147.119218 
C 230.238651 149.251604 231.085857 151.296941 232.593681 152.804765 
C 234.101506 154.31259 236.146843 155.159796 238.279229 155.159796 
z
" clip-path="url(#p61ec0b0ed0)" style="fill: #ffffff; stroke: #7f7776; stroke-width: 0.5; stroke-linejoin: miter"/>
   </g>
   <g id="patch_13">
    <path d="M 248.242554 137.902811 
C 250.374941 137.902811 252.420277 137.055605 253.928102 135.54778 
C 255.435926 134.039955 256.283133 131.994619 256.283133 129.862232 
C 256.283133 127.729846 255.435926 125.68451 253.928102 124.176685 
C 252.420277 122.66886 250.374941 121.821654 248.242554 121.821654 
C 246.110168 121.821654 244.064832 122.66886 242.557007 124.176685 
C 241.049182 125.68451 240.201976 127.729846 240.201976 129.862232 
C 240.201976 131.994619 241.049182 134.039955 242.557007 135.54778 
C 244.064832 137.055605 246.110168 137.902811 248.242554 137.902811 
z
" clip-path="url(#p61ec0b0ed0)" style="fill: #ffffff; stroke: #7f7776; stroke-width: 0.5; stroke-linejoin: miter"/>
   </g>
   <g id="patch_14">
    <path d="M 278.13253 86.131854 
C 280.264916 86.131854 282.310253 85.284648 283.818078 83.776823 
C 285.325902 82.268998 286.173108 80.223662 286.173108 78.091275 
C 286.173108 75.958889 285.325902 73.913553 283.818078 72.405728 
C 282.310253 70.897903 280.264916 70.050697 278.13253 70.050697 
C 276.000144 70.050697 273.954807 70.897903 272.446983 72.405728 
C 270.939158 73.913553 270.091952 75.958889 270.091952 78.091275 
C 270.091952 80.223662 270.939158 82.268998 272.446983 83.776823 
C 273.954807 85.284648 276.000144 86.131854 278.13253 86.131854 
z
" clip-path="url(#p61ec0b0ed0)" style="fill: #ffffff; stroke: #7f7776; stroke-width: 0.5; stroke-linejoin: miter"/>
   </g>
   <g id="patch_15">
    <path d="M 288.095855 68.874868 
C 290.228242 68.874868 292.273578 68.027662 293.781403 66.519837 
C 295.289228 65.012012 296.136434 62.966676 296.136434 60.83429 
C 296.136434 58.701903 295.289228 56.656567 293.781403 55.148742 
C 292.273578 53.640917 290.228242 52.793711 288.095855 52.793711 
C 285.963469 52.793711 283.918133 53.640917 282.410308 55.148742 
C 280.902483 56.656567 280.055277 58.701903 280.055277 60.83429 
C 280.055277 62.966676 280.902483 65.012012 282.410308 66.519837 
C 283.918133 68.027662 285.963469 68.874868 288.095855 68.874868 
z
" clip-path="url(#p61ec0b0ed0)" style="fill: #ffffff; stroke: #7f7776; stroke-width: 0.5; stroke-linejoin: miter"/>
   </g>
   <g id="patch_16">
    <path d="M 258.20588 155.159796 
C 260.338266 155.159796 262.383602 154.31259 263.891427 152.804765 
C 265.399252 151.296941 266.246458 149.251604 266.246458 147.119218 
C 266.246458 144.986832 265.399252 142.941495 263.891427 141.43367 
C 262.383602 139.925846 260.338266 139.07864 258.20588 139.07864 
C 256.073493 139.07864 254.028157 139.925846 252.520332 141.43367 
C 251.012507 142.941495 250.165301 144.986832 250.165301 147.119218 
C 250.165301 149.251604 251.012507 151.296941 252.520332 152.804765 
C 254.028157 154.31259 256.073493 155.159796 258.20588 155.159796 
z
" clip-path="url(#p61ec0b0ed0)" style="fill: #ffffff; stroke: #7f7776; stroke-width: 0.5; stroke-linejoin: miter"/>
   </g>
   <g id="patch_17">
    <path d="M 298.059181 86.131854 
C 300.191567 86.131854 302.236903 85.284648 303.744728 83.776823 
C 305.252553 82.268998 306.099759 80.223662 306.099759 78.091275 
C 306.099759 75.958889 305.252553 73.913553 303.744728 72.405728 
C 302.236903 70.897903 300.191567 70.050697 298.059181 70.050697 
C 295.926794 70.050697 293.881458 70.897903 292.373633 72.405728 
C 290.865808 73.913553 290.018602 75.958889 290.018602 78.091275 
C 290.018602 80.223662 290.865808 82.268998 292.373633 83.776823 
C 293.881458 85.284648 295.926794 86.131854 298.059181 86.131854 
z
" clip-path="url(#p61ec0b0ed0)" style="fill: #ffffff; stroke: #7f7776; stroke-width: 0.5; stroke-linejoin: miter"/>
   </g>
   <g id="patch_18">
    <path d="M 268.169205 172.416782 
C 270.301591 172.416782 272.346927 171.569576 273.854752 170.061751 
C 275.362577 168.553926 276.209783 166.50859 276.209783 164.376204 
C 276.209783 162.243817 275.362577 160.198481 273.854752 158.690656 
C 272.346927 157.182831 270.301591 156.335625 268.169205 156.335625 
C 266.036819 156.335625 263.991482 157.182831 262.483657 158.690656 
C 260.975833 160.198481 260.128627 162.243817 260.128627 164.376204 
C 260.128627 166.50859 260.975833 168.553926 262.483657 170.061751 
C 263.991482 171.569576 266.036819 172.416782 268.169205 172.416782 
z
" clip-path="url(#p61ec0b0ed0)" style="fill: #ffffff; stroke: #7f7776; stroke-width: 0.5; stroke-linejoin: miter"/>
   </g>
   <g id="patch_19">
    <path d="M 278.13253 155.159796 
C 280.264916 155.159796 282.310253 154.31259 283.818078 152.804765 
C 285.325902 151.296941 286.173108 149.251604 286.173108 147.119218 
C 286.173108 144.986832 285.325902 142.941495 283.818078 141.43367 
C 282.310253 139.925846 280.264916 139.07864 278.13253 139.07864 
C 276.000144 139.07864 273.954807 139.925846 272.446983 141.43367 
C 270.939158 142.941495 270.091952 144.986832 270.091952 147.119218 
C 270.091952 149.251604 270.939158 151.296941 272.446983 152.804765 
C 273.954807 154.31259 276.000144 155.159796 278.13253 155.159796 
z
" clip-path="url(#p61ec0b0ed0)" style="fill: #ffffff; stroke: #7f7776; stroke-width: 0.5; stroke-linejoin: miter"/>
   </g>
   <g id="patch_20">
    <path d="M 308.022506 103.388839 
C 310.154892 103.388839 312.200229 102.541633 313.708053 101.033808 
C 315.215878 99.525984 316.063084 97.480647 316.063084 95.348261 
C 316.063084 93.215875 315.215878 91.170538 313.708053 89.662714 
C 312.200229 88.154889 310.154892 87.307683 308.022506 87.307683 
C 305.89012 87.307683 303.844783 88.154889 302.336959 89.662714 
C 300.829134 91.170538 299.981928 93.215875 299.981928 95.348261 
C 299.981928 97.480647 300.829134 99.525984 302.336959 101.033808 
C 303.844783 102.541633 305.89012 103.388839 308.022506 103.388839 
z
" clip-path="url(#p61ec0b0ed0)" style="fill: #ffffff; stroke: #7f7776; stroke-width: 0.5; stroke-linejoin: miter"/>
   </g>
   <g id="patch_21">
    <path d="M 317.985831 86.131854 
C 320.118218 86.131854 322.163554 85.284648 323.671379 83.776823 
C 325.179204 82.268998 326.02641 80.223662 326.02641 78.091275 
C 326.02641 75.958889 325.179204 73.913553 323.671379 72.405728 
C 322.163554 70.897903 320.118218 70.050697 317.985831 70.050697 
C 315.853445 70.050697 313.808109 70.897903 312.300284 72.405728 
C 310.792459 73.913553 309.945253 75.958889 309.945253 78.091275 
C 309.945253 80.223662 310.792459 82.268998 312.300284 83.776823 
C 313.808109 85.284648 315.853445 86.131854 317.985831 86.131854 
z
" clip-path="url(#p61ec0b0ed0)" style="fill: #ffffff; stroke: #7f7776; stroke-width: 0.5; stroke-linejoin: miter"/>
   </g>
   <g id="patch_22">
    <path d="M 288.095855 172.416782 
C 290.228242 172.416782 292.273578 171.569576 293.781403 170.061751 
C 295.289228 168.553926 296.136434 166.50859 296.136434 164.376204 
C 296.136434 162.243817 295.289228 160.198481 293.781403 158.690656 
C 292.273578 157.182831 290.228242 156.335625 288.095855 156.335625 
C 285.963469 156.335625 283.918133 157.182831 282.410308 158.690656 
C 280.902483 160.198481 280.055277 162.243817 280.055277 164.376204 
C 280.055277 166.50859 280.902483 168.553926 282.410308 170.061751 
C 283.918133 171.569576 285.963469 172.416782 288.095855 172.416782 
z
" clip-path="url(#p61ec0b0ed0)" style="fill: #ffffff; stroke: #7f7776; stroke-width: 0.5; stroke-linejoin: miter"/>
   </g>
   <g id="patch_23">
    <path d="M 298.059181 155.159796 
C 300.191567 155.159796 302.236903 154.31259 303.744728 152.804765 
C 305.252553 151.296941 306.099759 149.251604 306.099759 147.119218 
C 306.099759 144.986832 305.252553 142.941495 303.744728 141.43367 
C 302.236903 139.925846 300.191567 139.07864 298.059181 139.07864 
C 295.926794 139.07864 293.881458 139.925846 292.373633 141.43367 
C 290.865808 142.941495 290.018602 144.986832 290.018602 147.119218 
C 290.018602 149.251604 290.865808 151.296941 292.373633 152.804765 
C 293.881458 154.31259 295.926794 155.159796 298.059181 155.159796 
z
" clip-path="url(#p61ec0b0ed0)" style="fill: #ffffff; stroke: #7f7776; stroke-width: 0.5; stroke-linejoin: miter"/>
   </g>
   <g id="patch_24">
    <path d="M 308.022506 137.902811 
C 310.154892 137.902811 312.200229 137.055605 313.708053 135.54778 
C 315.215878 134.039955 316.063084 131.994619 316.063084 129.862232 
C 316.063084 127.729846 315.215878 125.68451 313.708053 124.176685 
C 312.200229 122.66886 310.154892 121.821654 308.022506 121.821654 
C 305.89012 121.821654 303.844783 122.66886 302.336959 124.176685 
C 300.829134 125.68451 299.981928 127.729846 299.981928 129.862232 
C 299.981928 131.994619 300.829134 134.039955 302.336959 135.54778 
C 303.844783 137.055605 305.89012 137.902811 308.022506 137.902811 
z
" clip-path="url(#p61ec0b0ed0)" style="fill: #ffffff; stroke: #7f7776; stroke-width: 0.5; stroke-linejoin: miter"/>
   </g>
   <g id="patch_25">
    <path d="M 317.985831 120.645825 
C 320.118218 120.645825 322.163554 119.798619 323.671379 118.290794 
C 325.179204 116.782969 326.02641 114.737633 326.02641 112.605247 
C 326.02641 110.47286 325.179204 108.427524 323.671379 106.919699 
C 322.163554 105.411874 320.118218 104.564668 317.985831 104.564668 
C 315.853445 104.564668 313.808109 105.411874 312.300284 106.919699 
C 310.792459 108.427524 309.945253 110.47286 309.945253 112.605247 
C 309.945253 114.737633 310.792459 116.782969 312.300284 118.290794 
C 313.808109 119.798619 315.853445 120.645825 317.985831 120.645825 
z
" clip-path="url(#p61ec0b0ed0)" style="fill: #ffffff; stroke: #7f7776; stroke-width: 0.5; stroke-linejoin: miter"/>
   </g>
   <g id="patch_26">
    <path d="M 327.949157 103.388839 
C 330.081543 103.388839 332.126879 102.541633 333.634704 101.033808 
C 335.142529 99.525984 335.989735 97.480647 335.989735 95.348261 
C 335.989735 93.215875 335.142529 91.170538 333.634704 89.662714 
C 332.126879 88.154889 330.081543 87.307683 327.949157 87.307683 
C 325.81677 87.307683 323.771434 88.154889 322.263609 89.662714 
C 320.755784 91.170538 319.908578 93.215875 319.908578 95.348261 
C 319.908578 97.480647 320.755784 99.525984 322.263609 101.033808 
C 323.771434 102.541633 325.81677 103.388839 327.949157 103.388839 
z
" clip-path="url(#p61ec0b0ed0)" style="fill: #ffffff; stroke: #7f7776; stroke-width: 0.5; stroke-linejoin: miter"/>
   </g>
   <g id="patch_27">
    <path d="M 317.985831 155.159796 
C 320.118218 155.159796 322.163554 154.31259 323.671379 152.804765 
C 325.179204 151.296941 326.02641 149.251604 326.02641 147.119218 
C 326.02641 144.986832 325.179204 142.941495 323.671379 141.43367 
C 322.163554 139.925846 320.118218 139.07864 317.985831 139.07864 
C 315.853445 139.07864 313.808109 139.925846 312.300284 141.43367 
C 310.792459 142.941495 309.945253 144.986832 309.945253 147.119218 
C 309.945253 149.251604 310.792459 151.296941 312.300284 152.804765 
C 313.808109 154.31259 315.853445 155.159796 317.985831 155.159796 
z
" clip-path="url(#p61ec0b0ed0)" style="fill: #ffffff; stroke: #7f7776; stroke-width: 0.5; stroke-linejoin: miter"/>
   </g>
   <g id="patch_28">
    <path d="M 327.949157 137.902811 
C 330.081543 137.902811 332.126879 137.055605 333.634704 135.54778 
C 335.142529 134.039955 335.989735 131.994619 335.989735 129.862232 
C 335.989735 127.729846 335.142529 125.68451 333.634704 124.176685 
C 332.126879 122.66886 330.081543 121.821654 327.949157 121.821654 
C 325.81677 121.821654 323.771434 122.66886 322.263609 124.176685 
C 320.755784 125.68451 319.908578 127.729846 319.908578 129.862232 
C 319.908578 131.994619 320.755784 134.039955 322.263609 135.54778 
C 323.771434 137.055605 325.81677 137.902811 327.949157 137.902811 
z
" clip-path="url(#p61ec0b0ed0)" style="fill: #ffffff; stroke: #7f7776; stroke-width: 0.5; stroke-linejoin: miter"/>
   </g>
   <g id="patch_29">
    <path d="M 278.13253 133.580668 
C 283.695277 133.580668 289.030937 131.370566 292.964393 127.43711 
C 296.897849 123.503654 299.107952 118.167993 299.107952 112.605247 
C 299.107952 107.0425 296.897849 101.70684 292.964393 97.773384 
C 289.030937 93.839928 283.695277 91.629825 278.13253 91.629825 
C 272.569783 91.629825 267.234123 93.839928 263.300667 97.773384 
C 259.367211 101.70684 257.157108 107.0425 257.157108 112.605247 
C 257.157108 118.167993 259.367211 123.503654 263.300667 127.43711 
C 267.234123 131.370566 272.569783 133.580668 278.13253 133.580668 
z
" clip-path="url(#p61ec0b0ed0)" style="fill: #ffffff; stroke: #44546a; stroke-width: 1.4; stroke-linejoin: miter"/>
   </g>
   <g id="text_3">
    <!-- Hollow core -->
    <g style="fill: #44546a" transform="translate(258.542882 200.476931) scale(0.075 -0.075)">
     <defs>
      <path id="ArialMT-48" d="M 513 0 
L 513 4581 
L 1119 4581 
L 1119 2700 
L 3500 2700 
L 3500 4581 
L 4106 4581 
L 4106 0 
L 3500 0 
L 3500 2159 
L 1119 2159 
L 1119 0 
L 513 0 
z
" transform="scale(0.015625)"/>
      <path id="ArialMT-77" d="M 1034 0 
L 19 3319 
L 600 3319 
L 1128 1403 
L 1325 691 
Q 1338 744 1497 1375 
L 2025 3319 
L 2603 3319 
L 3100 1394 
L 3266 759 
L 3456 1400 
L 4025 3319 
L 4572 3319 
L 3534 0 
L 2950 0 
L 2422 1988 
L 2294 2553 
L 1622 0 
L 1034 0 
z
" transform="scale(0.015625)"/>
     </defs>
     <use xlink:href="#ArialMT-48"/>
     <use xlink:href="#ArialMT-6f" transform="translate(72.216797 0)"/>
     <use xlink:href="#ArialMT-6c" transform="translate(127.832031 0)"/>
     <use xlink:href="#ArialMT-6c" transform="translate(150.048828 0)"/>
     <use xlink:href="#ArialMT-6f" transform="translate(172.265625 0)"/>
     <use xlink:href="#ArialMT-77" transform="translate(227.880859 0)"/>
     <use xlink:href="#ArialMT-20" transform="translate(300.097656 0)"/>
     <use xlink:href="#ArialMT-63" transform="translate(327.880859 0)"/>
     <use xlink:href="#ArialMT-6f" transform="translate(377.880859 0)"/>
     <use xlink:href="#ArialMT-72" transform="translate(433.496094 0)"/>
     <use xlink:href="#ArialMT-65" transform="translate(466.796875 0)"/>
    </g>
    <!-- Periodic photonic crystal cladding -->
    <g style="fill: #44546a" transform="translate(222.480772 208.409588) scale(0.075 -0.075)">
     <defs>
      <path id="ArialMT-50" d="M 494 0 
L 494 4581 
L 2222 4581 
Q 2678 4581 2919 4538 
Q 3256 4481 3484 4323 
Q 3713 4166 3852 3881 
Q 3991 3597 3991 3256 
Q 3991 2672 3619 2267 
Q 3247 1863 2275 1863 
L 1100 1863 
L 1100 0 
L 494 0 
z
M 1100 2403 
L 2284 2403 
Q 2872 2403 3119 2622 
Q 3366 2841 3366 3238 
Q 3366 3525 3220 3729 
Q 3075 3934 2838 4000 
Q 2684 4041 2272 4041 
L 1100 4041 
L 1100 2403 
z
" transform="scale(0.015625)"/>
      <path id="ArialMT-70" d="M 422 -1272 
L 422 3319 
L 934 3319 
L 934 2888 
Q 1116 3141 1344 3267 
Q 1572 3394 1897 3394 
Q 2322 3394 2647 3175 
Q 2972 2956 3137 2557 
Q 3303 2159 3303 1684 
Q 3303 1175 3120 767 
Q 2938 359 2589 142 
Q 2241 -75 1856 -75 
Q 1575 -75 1351 44 
Q 1128 163 984 344 
L 984 -1272 
L 422 -1272 
z
M 931 1641 
Q 931 1000 1190 694 
Q 1450 388 1819 388 
Q 2194 388 2461 705 
Q 2728 1022 2728 1688 
Q 2728 2322 2467 2637 
Q 2206 2953 1844 2953 
Q 1484 2953 1207 2617 
Q 931 2281 931 1641 
z
" transform="scale(0.015625)"/>
      <path id="ArialMT-68" d="M 422 0 
L 422 4581 
L 984 4581 
L 984 2938 
Q 1378 3394 1978 3394 
Q 2347 3394 2619 3248 
Q 2891 3103 3008 2847 
Q 3125 2591 3125 2103 
L 3125 0 
L 2563 0 
L 2563 2103 
Q 2563 2525 2380 2717 
Q 2197 2909 1863 2909 
Q 1613 2909 1392 2779 
Q 1172 2650 1078 2428 
Q 984 2206 984 1816 
L 984 0 
L 422 0 
z
" transform="scale(0.015625)"/>
      <path id="ArialMT-74" d="M 1650 503 
L 1731 6 
Q 1494 -44 1306 -44 
Q 1000 -44 831 53 
Q 663 150 594 308 
Q 525 466 525 972 
L 525 2881 
L 113 2881 
L 113 3319 
L 525 3319 
L 525 4141 
L 1084 4478 
L 1084 3319 
L 1650 3319 
L 1650 2881 
L 1084 2881 
L 1084 941 
Q 1084 700 1114 631 
Q 1144 563 1211 522 
Q 1278 481 1403 481 
Q 1497 481 1650 503 
z
" transform="scale(0.015625)"/>
      <path id="ArialMT-79" d="M 397 -1278 
L 334 -750 
Q 519 -800 656 -800 
Q 844 -800 956 -737 
Q 1069 -675 1141 -563 
Q 1194 -478 1313 -144 
Q 1328 -97 1363 -6 
L 103 3319 
L 709 3319 
L 1400 1397 
Q 1534 1031 1641 628 
Q 1738 1016 1872 1384 
L 2581 3319 
L 3144 3319 
L 1881 -56 
Q 1678 -603 1566 -809 
Q 1416 -1088 1222 -1217 
Q 1028 -1347 759 -1347 
Q 597 -1347 397 -1278 
z
" transform="scale(0.015625)"/>
      <path id="ArialMT-73" d="M 197 991 
L 753 1078 
Q 800 744 1014 566 
Q 1228 388 1613 388 
Q 2000 388 2187 545 
Q 2375 703 2375 916 
Q 2375 1106 2209 1216 
Q 2094 1291 1634 1406 
Q 1016 1563 777 1677 
Q 538 1791 414 1992 
Q 291 2194 291 2438 
Q 291 2659 392 2848 
Q 494 3038 669 3163 
Q 800 3259 1026 3326 
Q 1253 3394 1513 3394 
Q 1903 3394 2198 3281 
Q 2494 3169 2634 2976 
Q 2775 2784 2828 2463 
L 2278 2388 
Q 2241 2644 2061 2787 
Q 1881 2931 1553 2931 
Q 1166 2931 1000 2803 
Q 834 2675 834 2503 
Q 834 2394 903 2306 
Q 972 2216 1119 2156 
Q 1203 2125 1616 2013 
Q 2213 1853 2448 1751 
Q 2684 1650 2818 1456 
Q 2953 1263 2953 975 
Q 2953 694 2789 445 
Q 2625 197 2315 61 
Q 2006 -75 1616 -75 
Q 969 -75 630 194 
Q 291 463 197 991 
z
" transform="scale(0.015625)"/>
      <path id="ArialMT-67" d="M 319 -275 
L 866 -356 
Q 900 -609 1056 -725 
Q 1266 -881 1628 -881 
Q 2019 -881 2231 -725 
Q 2444 -569 2519 -288 
Q 2563 -116 2559 434 
Q 2191 0 1641 0 
Q 956 0 581 494 
Q 206 988 206 1678 
Q 206 2153 378 2554 
Q 550 2956 876 3175 
Q 1203 3394 1644 3394 
Q 2231 3394 2613 2919 
L 2613 3319 
L 3131 3319 
L 3131 450 
Q 3131 -325 2973 -648 
Q 2816 -972 2473 -1159 
Q 2131 -1347 1631 -1347 
Q 1038 -1347 672 -1080 
Q 306 -813 319 -275 
z
M 784 1719 
Q 784 1066 1043 766 
Q 1303 466 1694 466 
Q 2081 466 2343 764 
Q 2606 1063 2606 1700 
Q 2606 2309 2336 2618 
Q 2066 2928 1684 2928 
Q 1309 2928 1046 2623 
Q 784 2319 784 1719 
z
" transform="scale(0.015625)"/>
     </defs>
     <use xlink:href="#ArialMT-50"/>
     <use xlink:href="#ArialMT-65" transform="translate(66.699219 0)"/>
     <use xlink:href="#ArialMT-72" transform="translate(122.314453 0)"/>
     <use xlink:href="#ArialMT-69" transform="translate(155.615234 0)"/>
     <use xlink:href="#ArialMT-6f" transform="translate(177.832031 0)"/>
     <use xlink:href="#ArialMT-64" transform="translate(233.447266 0)"/>
     <use xlink:href="#ArialMT-69" transform="translate(289.0625 0)"/>
     <use xlink:href="#ArialMT-63" transform="translate(311.279297 0)"/>
     <use xlink:href="#ArialMT-20" transform="translate(361.279297 0)"/>
     <use xlink:href="#ArialMT-70" transform="translate(389.0625 0)"/>
     <use xlink:href="#ArialMT-68" transform="translate(444.677734 0)"/>
     <use xlink:href="#ArialMT-6f" transform="translate(500.292969 0)"/>
     <use xlink:href="#ArialMT-74" transform="translate(555.908203 0)"/>
     <use xlink:href="#ArialMT-6f" transform="translate(583.691406 0)"/>
     <use xlink:href="#ArialMT-6e" transform="translate(639.306641 0)"/>
     <use xlink:href="#ArialMT-69" transform="translate(694.921875 0)"/>
     <use xlink:href="#ArialMT-63" transform="translate(717.138672 0)"/>
     <use xlink:href="#ArialMT-20" transform="translate(767.138672 0)"/>
     <use xlink:href="#ArialMT-63" transform="translate(794.921875 0)"/>
     <use xlink:href="#ArialMT-72" transform="translate(844.921875 0)"/>
     <use xlink:href="#ArialMT-79" transform="translate(878.222656 0)"/>
     <use xlink:href="#ArialMT-73" transform="translate(928.222656 0)"/>
     <use xlink:href="#ArialMT-74" transform="translate(978.222656 0)"/>
     <use xlink:href="#ArialMT-61" transform="translate(1006.005859 0)"/>
     <use xlink:href="#ArialMT-6c" transform="translate(1061.621094 0)"/>
     <use xlink:href="#ArialMT-20" transform="translate(1083.837891 0)"/>
     <use xlink:href="#ArialMT-63" transform="translate(1111.621094 0)"/>
     <use xlink:href="#ArialMT-6c" transform="translate(1161.621094 0)"/>
     <use xlink:href="#ArialMT-61" transform="translate(1183.837891 0)"/>
     <use xlink:href="#ArialMT-64" transform="translate(1239.453125 0)"/>
     <use xlink:href="#ArialMT-64" transform="translate(1295.068359 0)"/>
     <use xlink:href="#ArialMT-69" transform="translate(1350.683594 0)"/>
     <use xlink:href="#ArialMT-6e" transform="translate(1372.900391 0)"/>
     <use xlink:href="#ArialMT-67" transform="translate(1428.515625 0)"/>
    </g>
   </g>
   <g id="text_4">
    <!-- Photonic Bandgap Fiber -->
    <g style="fill: #44546a" transform="translate(219.124405 15.207656) scale(0.11 -0.11)">
     <defs>
      <path id="ArialMT-42" d="M 469 0 
L 469 4581 
L 2188 4581 
Q 2713 4581 3030 4442 
Q 3347 4303 3526 4014 
Q 3706 3725 3706 3409 
Q 3706 3116 3547 2856 
Q 3388 2597 3066 2438 
Q 3481 2316 3704 2022 
Q 3928 1728 3928 1328 
Q 3928 1006 3792 729 
Q 3656 453 3456 303 
Q 3256 153 2954 76 
Q 2653 0 2216 0 
L 469 0 
z
M 1075 2656 
L 2066 2656 
Q 2469 2656 2644 2709 
Q 2875 2778 2992 2937 
Q 3109 3097 3109 3338 
Q 3109 3566 3000 3739 
Q 2891 3913 2687 3977 
Q 2484 4041 1991 4041 
L 1075 4041 
L 1075 2656 
z
M 1075 541 
L 2216 541 
Q 2509 541 2628 563 
Q 2838 600 2978 687 
Q 3119 775 3209 942 
Q 3300 1109 3300 1328 
Q 3300 1584 3169 1773 
Q 3038 1963 2805 2039 
Q 2572 2116 2134 2116 
L 1075 2116 
L 1075 541 
z
" transform="scale(0.015625)"/>
     </defs>
     <use xlink:href="#ArialMT-50"/>
     <use xlink:href="#ArialMT-68" transform="translate(66.699219 0)"/>
     <use xlink:href="#ArialMT-6f" transform="translate(122.314453 0)"/>
     <use xlink:href="#ArialMT-74" transform="translate(177.929688 0)"/>
     <use xlink:href="#ArialMT-6f" transform="translate(205.712891 0)"/>
     <use xlink:href="#ArialMT-6e" transform="translate(261.328125 0)"/>
     <use xlink:href="#ArialMT-69" transform="translate(316.943359 0)"/>
     <use xlink:href="#ArialMT-63" transform="translate(339.160156 0)"/>
     <use xlink:href="#ArialMT-20" transform="translate(389.160156 0)"/>
     <use xlink:href="#ArialMT-42" transform="translate(416.943359 0)"/>
     <use xlink:href="#ArialMT-61" transform="translate(483.642578 0)"/>
     <use xlink:href="#ArialMT-6e" transform="translate(539.257812 0)"/>
     <use xlink:href="#ArialMT-64" transform="translate(594.873047 0)"/>
     <use xlink:href="#ArialMT-67" transform="translate(650.488281 0)"/>
     <use xlink:href="#ArialMT-61" transform="translate(706.103516 0)"/>
     <use xlink:href="#ArialMT-70" transform="translate(761.71875 0)"/>
     <use xlink:href="#ArialMT-20" transform="translate(817.333984 0)"/>
     <use xlink:href="#ArialMT-46" transform="translate(845.117188 0)"/>
     <use xlink:href="#ArialMT-69" transform="translate(906.201172 0)"/>
     <use xlink:href="#ArialMT-62" transform="translate(928.417969 0)"/>
     <use xlink:href="#ArialMT-65" transform="translate(984.033203 0)"/>
     <use xlink:href="#ArialMT-72" transform="translate(1039.648438 0)"/>
    </g>
   </g>
  </g>
  <g id="axes_3">
   <g id="patch_30">
    <path d="M 461.66747 182.523319 
C 480.209959 182.523319 497.995493 175.15631 511.107013 162.04479 
C 524.218533 148.93327 531.585542 131.147736 531.585542 112.605247 
C 531.585542 94.062757 524.218533 76.277224 511.107013 63.165704 
C 497.995493 50.054183 480.209959 42.687174 461.66747 42.687174 
C 443.12498 42.687174 425.339447 50.054183 412.227927 63.165704 
C 399.116407 76.277224 391.749398 94.062757 391.749398 112.605247 
C 391.749398 131.147736 399.116407 148.93327 412.227927 162.04479 
C 425.339447 175.15631 443.12498 182.523319 461.66747 182.523319 
z
" clip-path="url(#pb0e866944d)" style="fill: #b0bec5; stroke: #44546a; stroke-width: 1.8; stroke-linejoin: miter"/>
   </g>
   <g id="patch_31">
    <path d="M 461.66747 89.182692 
C 465.932242 89.182692 470.022915 87.48828 473.038565 84.472631 
C 476.054214 81.456981 477.748627 77.366308 477.748627 73.101536 
C 477.748627 68.836763 476.054214 64.74609 473.038565 61.730441 
C 470.022915 58.714791 465.932242 57.020379 461.66747 57.020379 
C 457.402697 57.020379 453.312025 58.714791 450.296375 61.730441 
C 447.280725 64.74609 445.586313 68.836763 445.586313 73.101536 
C 445.586313 77.366308 447.280725 81.456981 450.296375 84.472631 
C 453.312025 87.48828 457.402697 89.182692 461.66747 89.182692 
z
" clip-path="url(#pb0e866944d)" style="fill: #b0bec5; stroke: #7f7776; stroke-width: 0.8; stroke-linejoin: miter"/>
   </g>
   <g id="patch_32">
    <path d="M 427.456253 108.934548 
C 431.721025 108.934548 435.811698 107.240136 438.827348 104.224486 
C 441.842997 101.208836 443.537409 97.118164 443.537409 92.853391 
C 443.537409 88.588619 441.842997 84.497946 438.827348 81.482296 
C 435.811698 78.466647 431.721025 76.772235 427.456253 76.772235 
C 423.19148 76.772235 419.100807 78.466647 416.085158 81.482296 
C 413.069508 84.497946 411.375096 88.588619 411.375096 92.853391 
C 411.375096 97.118164 413.069508 101.208836 416.085158 104.224486 
C 419.100807 107.240136 423.19148 108.934548 427.456253 108.934548 
z
" clip-path="url(#pb0e866944d)" style="fill: #b0bec5; stroke: #7f7776; stroke-width: 0.8; stroke-linejoin: miter"/>
   </g>
   <g id="patch_33">
    <path d="M 427.456253 148.438259 
C 431.721025 148.438259 435.811698 146.743847 438.827348 143.728197 
C 441.842997 140.712547 443.537409 136.621875 443.537409 132.357102 
C 443.537409 128.092329 441.842997 124.001657 438.827348 120.986007 
C 435.811698 117.970358 431.721025 116.275945 427.456253 116.275945 
C 423.19148 116.275945 419.100807 117.970358 416.085158 120.986007 
C 413.069508 124.001657 411.375096 128.092329 411.375096 132.357102 
C 411.375096 136.621875 413.069508 140.712547 416.085158 143.728197 
C 419.100807 146.743847 423.19148 148.438259 427.456253 148.438259 
z
" clip-path="url(#pb0e866944d)" style="fill: #b0bec5; stroke: #7f7776; stroke-width: 0.8; stroke-linejoin: miter"/>
   </g>
   <g id="patch_34">
    <path d="M 461.66747 168.190114 
C 465.932242 168.190114 470.022915 166.495702 473.038565 163.480052 
C 476.054214 160.464403 477.748627 156.37373 477.748627 152.108957 
C 477.748627 147.844185 476.054214 143.753512 473.038565 140.737863 
C 470.022915 137.722213 465.932242 136.027801 461.66747 136.027801 
C 457.402697 136.027801 453.312025 137.722213 450.296375 140.737863 
C 447.280725 143.753512 445.586313 147.844185 445.586313 152.108957 
C 445.586313 156.37373 447.280725 160.464403 450.296375 163.480052 
C 453.312025 166.495702 457.402697 168.190114 461.66747 168.190114 
z
" clip-path="url(#pb0e866944d)" style="fill: #b0bec5; stroke: #7f7776; stroke-width: 0.8; stroke-linejoin: miter"/>
   </g>
   <g id="patch_35">
    <path d="M 495.878687 148.438259 
C 500.14346 148.438259 504.234132 146.743847 507.249782 143.728197 
C 510.265432 140.712547 511.959844 136.621875 511.959844 132.357102 
C 511.959844 128.092329 510.265432 124.001657 507.249782 120.986007 
C 504.234132 117.970358 500.14346 116.275945 495.878687 116.275945 
C 491.613914 116.275945 487.523242 117.970358 484.507592 120.986007 
C 481.491942 124.001657 479.79753 128.092329 479.79753 132.357102 
C 479.79753 136.621875 481.491942 140.712547 484.507592 143.728197 
C 487.523242 146.743847 491.613914 148.438259 495.878687 148.438259 
z
" clip-path="url(#pb0e866944d)" style="fill: #b0bec5; stroke: #7f7776; stroke-width: 0.8; stroke-linejoin: miter"/>
   </g>
   <g id="patch_36">
    <path d="M 495.878687 108.934548 
C 500.14346 108.934548 504.234132 107.240136 507.249782 104.224486 
C 510.265432 101.208836 511.959844 97.118164 511.959844 92.853391 
C 511.959844 88.588619 510.265432 84.497946 507.249782 81.482296 
C 504.234132 78.466647 500.14346 76.772235 495.878687 76.772235 
C 491.613914 76.772235 487.523242 78.466647 484.507592 81.482296 
C 481.491942 84.497946 479.79753 88.588619 479.79753 92.853391 
C 479.79753 97.118164 481.491942 101.208836 484.507592 104.224486 
C 487.523242 107.240136 491.613914 108.934548 495.878687 108.934548 
z
" clip-path="url(#pb0e866944d)" style="fill: #b0bec5; stroke: #7f7776; stroke-width: 0.8; stroke-linejoin: miter"/>
   </g>
   <g id="patch_37">
    <path d="M 461.66747 87.434741 
C 465.46868 87.434741 469.114715 85.924504 471.802576 83.236642 
C 474.490438 80.54878 476.000675 76.902746 476.000675 73.101536 
C 476.000675 69.300325 474.490438 65.654291 471.802576 62.966429 
C 469.114715 60.278568 465.46868 58.768331 461.66747 58.768331 
C 457.86626 58.768331 454.220225 60.278568 451.532364 62.966429 
C 448.844502 65.654291 447.334265 69.300325 447.334265 73.101536 
C 447.334265 76.902746 448.844502 80.54878 451.532364 83.236642 
C 454.220225 85.924504 457.86626 87.434741 461.66747 87.434741 
z
" clip-path="url(#pb0e866944d)" style="fill: #ffffff; stroke: #7f7776; stroke-width: 0.5; stroke-linejoin: miter"/>
   </g>
   <g id="patch_38">
    <path d="M 427.456253 107.186596 
C 431.257463 107.186596 434.903497 105.676359 437.591359 102.988498 
C 440.279221 100.300636 441.789458 96.654602 441.789458 92.853391 
C 441.789458 89.052181 440.279221 85.406146 437.591359 82.718285 
C 434.903497 80.030423 431.257463 78.520186 427.456253 78.520186 
C 423.655042 78.520186 420.009008 80.030423 417.321146 82.718285 
C 414.633285 85.406146 413.123048 89.052181 413.123048 92.853391 
C 413.123048 96.654602 414.633285 100.300636 417.321146 102.988498 
C 420.009008 105.676359 423.655042 107.186596 427.456253 107.186596 
z
" clip-path="url(#pb0e866944d)" style="fill: #ffffff; stroke: #7f7776; stroke-width: 0.5; stroke-linejoin: miter"/>
   </g>
   <g id="patch_39">
    <path d="M 427.456253 146.690307 
C 431.257463 146.690307 434.903497 145.18007 437.591359 142.492208 
C 440.279221 139.804347 441.789458 136.158312 441.789458 132.357102 
C 441.789458 128.555892 440.279221 124.909857 437.591359 122.221996 
C 434.903497 119.534134 431.257463 118.023897 427.456253 118.023897 
C 423.655042 118.023897 420.009008 119.534134 417.321146 122.221996 
C 414.633285 124.909857 413.123048 128.555892 413.123048 132.357102 
C 413.123048 136.158312 414.633285 139.804347 417.321146 142.492208 
C 420.009008 145.18007 423.655042 146.690307 427.456253 146.690307 
z
" clip-path="url(#pb0e866944d)" style="fill: #ffffff; stroke: #7f7776; stroke-width: 0.5; stroke-linejoin: miter"/>
   </g>
   <g id="patch_40">
    <path d="M 461.66747 166.442162 
C 465.46868 166.442162 469.114715 164.931925 471.802576 162.244064 
C 474.490438 159.556202 476.000675 155.910168 476.000675 152.108957 
C 476.000675 148.307747 474.490438 144.661713 471.802576 141.973851 
C 469.114715 139.28599 465.46868 137.775753 461.66747 137.775753 
C 457.86626 137.775753 454.220225 139.28599 451.532364 141.973851 
C 448.844502 144.661713 447.334265 148.307747 447.334265 152.108957 
C 447.334265 155.910168 448.844502 159.556202 451.532364 162.244064 
C 454.220225 164.931925 457.86626 166.442162 461.66747 166.442162 
z
" clip-path="url(#pb0e866944d)" style="fill: #ffffff; stroke: #7f7776; stroke-width: 0.5; stroke-linejoin: miter"/>
   </g>
   <g id="patch_41">
    <path d="M 495.878687 146.690307 
C 499.679897 146.690307 503.325932 145.18007 506.013793 142.492208 
C 508.701655 139.804347 510.211892 136.158312 510.211892 132.357102 
C 510.211892 128.555892 508.701655 124.909857 506.013793 122.221996 
C 503.325932 119.534134 499.679897 118.023897 495.878687 118.023897 
C 492.077477 118.023897 488.431442 119.534134 485.743581 122.221996 
C 483.055719 124.909857 481.545482 128.555892 481.545482 132.357102 
C 481.545482 136.158312 483.055719 139.804347 485.743581 142.492208 
C 488.431442 145.18007 492.077477 146.690307 495.878687 146.690307 
z
" clip-path="url(#pb0e866944d)" style="fill: #ffffff; stroke: #7f7776; stroke-width: 0.5; stroke-linejoin: miter"/>
   </g>
   <g id="patch_42">
    <path d="M 495.878687 107.186596 
C 499.679897 107.186596 503.325932 105.676359 506.013793 102.988498 
C 508.701655 100.300636 510.211892 96.654602 510.211892 92.853391 
C 510.211892 89.052181 508.701655 85.406146 506.013793 82.718285 
C 503.325932 80.030423 499.679897 78.520186 495.878687 78.520186 
C 492.077477 78.520186 488.431442 80.030423 485.743581 82.718285 
C 483.055719 85.406146 481.545482 89.052181 481.545482 92.853391 
C 481.545482 96.654602 483.055719 100.300636 485.743581 102.988498 
C 488.431442 105.676359 492.077477 107.186596 495.878687 107.186596 
z
" clip-path="url(#pb0e866944d)" style="fill: #ffffff; stroke: #7f7776; stroke-width: 0.5; stroke-linejoin: miter"/>
   </g>
   <g id="text_5">
    <!-- Hollow core -->
    <g style="fill: #44546a" transform="translate(442.077821 200.476931) scale(0.075 -0.075)">
     <use xlink:href="#ArialMT-48"/>
     <use xlink:href="#ArialMT-6f" transform="translate(72.216797 0)"/>
     <use xlink:href="#ArialMT-6c" transform="translate(127.832031 0)"/>
     <use xlink:href="#ArialMT-6c" transform="translate(150.048828 0)"/>
     <use xlink:href="#ArialMT-6f" transform="translate(172.265625 0)"/>
     <use xlink:href="#ArialMT-77" transform="translate(227.880859 0)"/>
     <use xlink:href="#ArialMT-20" transform="translate(300.097656 0)"/>
     <use xlink:href="#ArialMT-63" transform="translate(327.880859 0)"/>
     <use xlink:href="#ArialMT-6f" transform="translate(377.880859 0)"/>
     <use xlink:href="#ArialMT-72" transform="translate(433.496094 0)"/>
     <use xlink:href="#ArialMT-65" transform="translate(466.796875 0)"/>
    </g>
    <!-- Anti-resonant capillaries -->
    <g style="fill: #44546a" transform="translate(421.650282 208.409588) scale(0.075 -0.075)">
     <defs>
      <path id="ArialMT-41" d="M -9 0 
L 1750 4581 
L 2403 4581 
L 4278 0 
L 3588 0 
L 3053 1388 
L 1138 1388 
L 634 0 
L -9 0 
z
M 1313 1881 
L 2866 1881 
L 2388 3150 
Q 2169 3728 2063 4100 
Q 1975 3659 1816 3225 
L 1313 1881 
z
" transform="scale(0.015625)"/>
     </defs>
     <use xlink:href="#ArialMT-41"/>
     <use xlink:href="#ArialMT-6e" transform="translate(66.699219 0)"/>
     <use xlink:href="#ArialMT-74" transform="translate(122.314453 0)"/>
     <use xlink:href="#ArialMT-69" transform="translate(150.097656 0)"/>
     <use xlink:href="#ArialMT-2d" transform="translate(172.314453 0)"/>
     <use xlink:href="#ArialMT-72" transform="translate(205.615234 0)"/>
     <use xlink:href="#ArialMT-65" transform="translate(238.916016 0)"/>
     <use xlink:href="#ArialMT-73" transform="translate(294.53125 0)"/>
     <use xlink:href="#ArialMT-6f" transform="translate(344.53125 0)"/>
     <use xlink:href="#ArialMT-6e" transform="translate(400.146484 0)"/>
     <use xlink:href="#ArialMT-61" transform="translate(455.761719 0)"/>
     <use xlink:href="#ArialMT-6e" transform="translate(511.376953 0)"/>
     <use xlink:href="#ArialMT-74" transform="translate(566.992188 0)"/>
     <use xlink:href="#ArialMT-20" transform="translate(594.775391 0)"/>
     <use xlink:href="#ArialMT-63" transform="translate(622.558594 0)"/>
     <use xlink:href="#ArialMT-61" transform="translate(672.558594 0)"/>
     <use xlink:href="#ArialMT-70" transform="translate(728.173828 0)"/>
     <use xlink:href="#ArialMT-69" transform="translate(783.789062 0)"/>
     <use xlink:href="#ArialMT-6c" transform="translate(806.005859 0)"/>
     <use xlink:href="#ArialMT-6c" transform="translate(828.222656 0)"/>
     <use xlink:href="#ArialMT-61" transform="translate(850.439453 0)"/>
     <use xlink:href="#ArialMT-72" transform="translate(906.054688 0)"/>
     <use xlink:href="#ArialMT-69" transform="translate(939.355469 0)"/>
     <use xlink:href="#ArialMT-65" transform="translate(961.572266 0)"/>
     <use xlink:href="#ArialMT-73" transform="translate(1017.1875 0)"/>
    </g>
   </g>
   <g id="text_6">
    <!-- Anti-Resonant HCF -->
    <g style="fill: #44546a" transform="translate(413.985048 15.207656) scale(0.11 -0.11)">
     <defs>
      <path id="ArialMT-52" d="M 503 0 
L 503 4581 
L 2534 4581 
Q 3147 4581 3465 4457 
Q 3784 4334 3975 4021 
Q 4166 3709 4166 3331 
Q 4166 2844 3850 2509 
Q 3534 2175 2875 2084 
Q 3116 1969 3241 1856 
Q 3506 1613 3744 1247 
L 4541 0 
L 3778 0 
L 3172 953 
Q 2906 1366 2734 1584 
Q 2563 1803 2427 1890 
Q 2291 1978 2150 2013 
Q 2047 2034 1813 2034 
L 1109 2034 
L 1109 0 
L 503 0 
z
M 1109 2559 
L 2413 2559 
Q 2828 2559 3062 2645 
Q 3297 2731 3419 2920 
Q 3541 3109 3541 3331 
Q 3541 3656 3305 3865 
Q 3069 4075 2559 4075 
L 1109 4075 
L 1109 2559 
z
" transform="scale(0.015625)"/>
     </defs>
     <use xlink:href="#ArialMT-41"/>
     <use xlink:href="#ArialMT-6e" transform="translate(66.699219 0)"/>
     <use xlink:href="#ArialMT-74" transform="translate(122.314453 0)"/>
     <use xlink:href="#ArialMT-69" transform="translate(150.097656 0)"/>
     <use xlink:href="#ArialMT-2d" transform="translate(172.314453 0)"/>
     <use xlink:href="#ArialMT-52" transform="translate(205.615234 0)"/>
     <use xlink:href="#ArialMT-65" transform="translate(277.832031 0)"/>
     <use xlink:href="#ArialMT-73" transform="translate(333.447266 0)"/>
     <use xlink:href="#ArialMT-6f" transform="translate(383.447266 0)"/>
     <use xlink:href="#ArialMT-6e" transform="translate(439.0625 0)"/>
     <use xlink:href="#ArialMT-61" transform="translate(494.677734 0)"/>
     <use xlink:href="#ArialMT-6e" transform="translate(550.292969 0)"/>
     <use xlink:href="#ArialMT-74" transform="translate(605.908203 0)"/>
     <use xlink:href="#ArialMT-20" transform="translate(633.691406 0)"/>
     <use xlink:href="#ArialMT-48" transform="translate(661.474609 0)"/>
     <use xlink:href="#ArialMT-43" transform="translate(733.691406 0)"/>
     <use xlink:href="#ArialMT-46" transform="translate(805.908203 0)"/>
    </g>
   </g>
   <g id="patch_43">
    <path d="M 461.66747 131.832716 
C 466.766654 131.832716 471.657676 129.806789 475.263344 126.201121 
C 478.869012 122.595453 480.89494 117.704431 480.89494 112.605247 
C 480.89494 107.506062 478.869012 102.61504 475.263344 99.009372 
C 471.657676 95.403704 466.766654 93.377777 461.66747 93.377777 
C 456.568285 93.377777 451.677264 95.403704 448.071596 99.009372 
C 444.465928 102.61504 442.44 107.506062 442.44 112.605247 
C 442.44 117.704431 444.465928 122.595453 448.071596 126.201121 
C 451.677264 129.806789 456.568285 131.832716 461.66747 131.832716 
z
" clip-path="url(#pb0e866944d)" style="fill: #ffffff; stroke: #44546a; stroke-width: 1.4; stroke-linejoin: miter"/>
   </g>
  </g>
  <g id="axes_4">
   <g id="patch_44">
    <path d="M 645.20241 182.523319 
C 663.744899 182.523319 681.530433 175.15631 694.641953 162.04479 
C 707.753473 148.93327 715.120482 131.147736 715.120482 112.605247 
C 715.120482 94.062757 707.753473 76.277224 694.641953 63.165704 
C 681.530433 50.054183 663.744899 42.687174 645.20241 42.687174 
C 626.65992 42.687174 608.874387 50.054183 595.762867 63.165704 
C 582.651347 76.277224 575.284337 94.062757 575.284337 112.605247 
C 575.284337 131.147736 582.651347 148.93327 595.762867 162.04479 
C 608.874387 175.15631 626.65992 182.523319 645.20241 182.523319 
z
" clip-path="url(#p8b7c48c3de)" style="fill: #b0bec5; stroke: #44546a; stroke-width: 1.8; stroke-linejoin: miter"/>
   </g>
   <g id="patch_45">
    <path d="M 645.20241 162.946259 
C 658.553002 162.946259 671.358586 157.642012 680.798881 148.201718 
C 690.239175 138.761423 695.543422 125.955839 695.543422 112.605247 
C 695.543422 99.254654 690.239175 86.44907 680.798881 77.008776 
C 671.358586 67.568481 658.553002 62.264235 645.20241 62.264235 
C 631.851817 62.264235 619.046233 67.568481 609.605939 77.008776 
C 600.165644 86.44907 594.861398 99.254654 594.861398 112.605247 
C 594.861398 125.955839 600.165644 138.761423 609.605939 148.201718 
C 619.046233 157.642012 631.851817 162.946259 645.20241 162.946259 
z
" clip-path="url(#p8b7c48c3de)" style="fill: #ffffff; stroke: #44546a; stroke-width: 1.4; stroke-linejoin: miter"/>
   </g>
   <g id="text_7">
    <!-- Thick glass wall -->
    <g style="fill: #44546a" transform="translate(618.945964 200.476931) scale(0.075 -0.075)">
     <defs>
      <path id="ArialMT-54" d="M 1659 0 
L 1659 4041 
L 150 4041 
L 150 4581 
L 3781 4581 
L 3781 4041 
L 2266 4041 
L 2266 0 
L 1659 0 
z
" transform="scale(0.015625)"/>
      <path id="ArialMT-6b" d="M 425 0 
L 425 4581 
L 988 4581 
L 988 1969 
L 2319 3319 
L 3047 3319 
L 1778 2088 
L 3175 0 
L 2481 0 
L 1384 1697 
L 988 1316 
L 988 0 
L 425 0 
z
" transform="scale(0.015625)"/>
     </defs>
     <use xlink:href="#ArialMT-54"/>
     <use xlink:href="#ArialMT-68" transform="translate(61.083984 0)"/>
     <use xlink:href="#ArialMT-69" transform="translate(116.699219 0)"/>
     <use xlink:href="#ArialMT-63" transform="translate(138.916016 0)"/>
     <use xlink:href="#ArialMT-6b" transform="translate(188.916016 0)"/>
     <use xlink:href="#ArialMT-20" transform="translate(238.916016 0)"/>
     <use xlink:href="#ArialMT-67" transform="translate(266.699219 0)"/>
     <use xlink:href="#ArialMT-6c" transform="translate(322.314453 0)"/>
     <use xlink:href="#ArialMT-61" transform="translate(344.53125 0)"/>
     <use xlink:href="#ArialMT-73" transform="translate(400.146484 0)"/>
     <use xlink:href="#ArialMT-73" transform="translate(450.146484 0)"/>
     <use xlink:href="#ArialMT-20" transform="translate(500.146484 0)"/>
     <use xlink:href="#ArialMT-77" transform="translate(527.929688 0)"/>
     <use xlink:href="#ArialMT-61" transform="translate(600.146484 0)"/>
     <use xlink:href="#ArialMT-6c" transform="translate(655.761719 0)"/>
     <use xlink:href="#ArialMT-6c" transform="translate(677.978516 0)"/>
    </g>
    <!-- Large hollow core -->
    <g style="fill: #44546a" transform="translate(615.603777 208.497478) scale(0.075 -0.075)">
     <defs>
      <path id="ArialMT-4c" d="M 469 0 
L 469 4581 
L 1075 4581 
L 1075 541 
L 3331 541 
L 3331 0 
L 469 0 
z
" transform="scale(0.015625)"/>
     </defs>
     <use xlink:href="#ArialMT-4c"/>
     <use xlink:href="#ArialMT-61" transform="translate(55.615234 0)"/>
     <use xlink:href="#ArialMT-72" transform="translate(111.230469 0)"/>
     <use xlink:href="#ArialMT-67" transform="translate(144.53125 0)"/>
     <use xlink:href="#ArialMT-65" transform="translate(200.146484 0)"/>
     <use xlink:href="#ArialMT-20" transform="translate(255.761719 0)"/>
     <use xlink:href="#ArialMT-68" transform="translate(283.544922 0)"/>
     <use xlink:href="#ArialMT-6f" transform="translate(339.160156 0)"/>
     <use xlink:href="#ArialMT-6c" transform="translate(394.775391 0)"/>
     <use xlink:href="#ArialMT-6c" transform="translate(416.992188 0)"/>
     <use xlink:href="#ArialMT-6f" transform="translate(439.208984 0)"/>
     <use xlink:href="#ArialMT-77" transform="translate(494.824219 0)"/>
     <use xlink:href="#ArialMT-20" transform="translate(567.041016 0)"/>
     <use xlink:href="#ArialMT-63" transform="translate(594.824219 0)"/>
     <use xlink:href="#ArialMT-6f" transform="translate(644.824219 0)"/>
     <use xlink:href="#ArialMT-72" transform="translate(700.439453 0)"/>
     <use xlink:href="#ArialMT-65" transform="translate(733.740234 0)"/>
    </g>
   </g>
   <g id="text_8">
    <!-- Hollow Capillary -->
    <g style="fill: #44546a" transform="translate(605.774285 15.207656) scale(0.11 -0.11)">
     <use xlink:href="#ArialMT-48"/>
     <use xlink:href="#ArialMT-6f" transform="translate(72.216797 0)"/>
     <use xlink:href="#ArialMT-6c" transform="translate(127.832031 0)"/>
     <use xlink:href="#ArialMT-6c" transform="translate(150.048828 0)"/>
     <use xlink:href="#ArialMT-6f" transform="translate(172.265625 0)"/>
     <use xlink:href="#ArialMT-77" transform="translate(227.880859 0)"/>
     <use xlink:href="#ArialMT-20" transform="translate(300.097656 0)"/>
     <use xlink:href="#ArialMT-43" transform="translate(327.880859 0)"/>
     <use xlink:href="#ArialMT-61" transform="translate(400.097656 0)"/>
     <use xlink:href="#ArialMT-70" transform="translate(455.712891 0)"/>
     <use xlink:href="#ArialMT-69" transform="translate(511.328125 0)"/>
     <use xlink:href="#ArialMT-6c" transform="translate(533.544922 0)"/>
     <use xlink:href="#ArialMT-6c" transform="translate(555.761719 0)"/>
     <use xlink:href="#ArialMT-61" transform="translate(577.978516 0)"/>
     <use xlink:href="#ArialMT-72" transform="translate(633.59375 0)"/>
     <use xlink:href="#ArialMT-79" transform="translate(666.894531 0)"/>
    </g>
   </g>
  </g>
 </g>
 <defs>
  <clipPath id="p5817285332">
   <rect x="7.2" y="25.207656" width="174.795181" height="174.795181"/>
  </clipPath>
  <clipPath id="p61ec0b0ed0">
   <rect x="190.73494" y="25.207656" width="174.795181" height="174.795181"/>
  </clipPath>
  <clipPath id="pb0e866944d">
   <rect x="374.26988" y="25.207656" width="174.795181" height="174.795181"/>
  </clipPath>
  <clipPath id="p8b7c48c3de">
   <rect x="557.804819" y="25.207656" width="174.795181" height="174.795181"/>
  </clipPath>
 </defs>
</svg>
