<?xml version="1.0" encoding="utf-8" standalone="no"?>
<!DOCTYPE svg PUBLIC "-//W3C//DTD SVG 1.1//EN"
  "http://www.w3.org/Graphics/SVG/1.1/DTD/svg11.dtd">
<svg xmlns:xlink="http://www.w3.org/1999/xlink" width="305.618516pt" height="169.86025pt" viewBox="0 0 305.618516 169.86025" xmlns="http://www.w3.org/2000/svg" version="1.1">
 <metadata>
  <rdf:RDF xmlns:dc="http://purl.org/dc/elements/1.1/" xmlns:cc="http://creativecommons.org/ns#" xmlns:rdf="http://www.w3.org/1999/02/22-rdf-syntax-ns#">
   <cc:Work>
    <dc:type rdf:resource="http://purl.org/dc/dcmitype/StillImage"/>
    <dc:date>2026-04-07T09:32:02.305545</dc:date>
    <dc:format>image/svg+xml</dc:format>
    <dc:creator>
     <cc:Agent>
      <dc:title>Matplotlib v3.10.8, https://matplotlib.org/</dc:title>
     </cc:Agent>
    </dc:creator>
   </cc:Work>
  </rdf:RDF>
 </metadata>
 <defs>
  <style type="text/css">*{stroke-linejoin: round; stroke-linecap: butt}</style>
 </defs>
 <g id="figure_1">
  <g id="patch_1">
   <path d="M 0 169.86025 
L 305.618516 169.86025 
L 305.618516 0 
L 0 0 
z
" style="fill: #ffffff"/>
  </g>
  <g id="axes_1">
   <g id="patch_2">
    <path d="M 31.7 151.344 
L 266.06 151.344 
L 266.06 7.2 
L 31.7 7.2 
z
" style="fill: #ffffff"/>
   </g>
   <g id="FillBetweenPolyCollection_1">
    <defs>
     <path id="ma117ce56a9" d="M 31.7 -23.66425 
L 31.7 -23.682024 
L 31.934595 -23.682651 
L 32.169189 -23.683299 
L 32.403784 -23.683968 
L 32.638378 -23.684659 
L 32.872973 -23.685373 
L 33.107568 -23.68611 
L 33.342162 -23.686871 
L 33.576757 -23.687658 
L 33.811351 -23.68847 
L 34.045946 -23.689308 
L 34.280541 -23.690174 
L 34.515135 -23.691068 
L 34.74973 -23.69199 
L 34.984324 -23.692943 
L 35.218919 -23.693926 
L 35.453514 -23.69494 
L 35.688108 -23.695987 
L 35.922703 -23.697067 
L 36.157297 -23.698182 
L 36.391892 -23.699333 
L 36.626486 -23.700519 
L 36.861081 -23.701744 
L 37.095676 -23.703007 
L 37.33027 -23.704309 
L 37.564865 -23.705653 
L 37.799459 -23.707039 
L 38.034054 -23.708468 
L 38.268649 -23.709941 
L 38.503243 -23.711461 
L 38.737838 -23.713027 
L 38.972432 -23.714642 
L 39.207027 -23.716307 
L 39.441622 -23.718023 
L 39.676216 -23.719792 
L 39.910811 -23.721615 
L 40.145405 -23.723494 
L 40.38 -23.72543 
L 40.614595 -23.727425 
L 40.849189 -23.72948 
L 41.083784 -23.731598 
L 41.318378 -23.73378 
L 41.552973 -23.736027 
L 41.787568 -23.738342 
L 42.022162 -23.740726 
L 42.256757 -23.743181 
L 42.491351 -23.74571 
L 42.725946 -23.748313 
L 42.960541 -23.750994 
L 43.195135 -23.753754 
L 43.42973 -23.756596 
L 43.664324 -23.759521 
L 43.898919 -23.762532 
L 44.133514 -23.765631 
L 44.368108 -23.768821 
L 44.602703 -23.772103 
L 44.837297 -23.775481 
L 45.071892 -23.778956 
L 45.306486 -23.782532 
L 45.541081 -23.786211 
L 45.775676 -23.789996 
L 46.01027 -23.793889 
L 46.244865 -23.797893 
L 46.479459 -23.802012 
L 46.714054 -23.806247 
L 46.948649 -23.810603 
L 47.183243 -23.815081 
L 47.417838 -23.819686 
L 47.652432 -23.824421 
L 47.887027 -23.829288 
L 48.121622 -23.834291 
L 48.356216 -23.839434 
L 48.590811 -23.844719 
L 48.825405 -23.850151 
L 49.06 -23.855734 
L 49.294595 -23.86147 
L 49.529189 -23.867365 
L 49.763784 -23.87342 
L 49.998378 -23.879642 
L 50.232973 -23.886033 
L 50.467568 -23.892598 
L 50.702162 -23.89934 
L 50.936757 -23.906265 
L 51.171351 -23.913377 
L 51.405946 -23.92068 
L 51.640541 -23.928179 
L 51.875135 -23.935878 
L 52.10973 -23.943782 
L 52.344324 -23.951897 
L 52.578919 -23.960226 
L 52.813514 -23.968775 
L 53.048108 -23.97755 
L 53.282703 -23.986555 
L 53.517297 -23.995795 
L 53.751892 -24.005277 
L 53.986486 -24.015006 
L 54.221081 -24.024988 
L 54.455676 -24.035227 
L 54.69027 -24.045731 
L 54.924865 -24.056505 
L 55.159459 -24.067555 
L 55.394054 -24.078888 
L 55.628649 -24.090509 
L 55.863243 -24.102426 
L 56.097838 -24.114645 
L 56.332432 -24.127172 
L 56.567027 -24.140015 
L 56.801622 -24.15318 
L 57.036216 -24.166674 
L 57.270811 -24.180505 
L 57.505405 -24.19468 
L 57.74 -24.209206 
L 57.974595 -24.224091 
L 58.209189 -24.239343 
L 58.443784 -24.254969 
L 58.678378 -24.270978 
L 58.912973 -24.287377 
L 59.147568 -24.304175 
L 59.382162 -24.32138 
L 59.616757 -24.339001 
L 59.851351 -24.357047 
L 60.085946 -24.375525 
L 60.320541 -24.394446 
L 60.555135 -24.413818 
L 60.78973 -24.43365 
L 61.024324 -24.453953 
L 61.258919 -24.474734 
L 61.493514 -24.496005 
L 61.728108 -24.517775 
L 61.962703 -24.540054 
L 62.197297 -24.562852 
L 62.431892 -24.586179 
L 62.666486 -24.610047 
L 62.901081 -24.634464 
L 63.135676 -24.659443 
L 63.37027 -24.684994 
L 63.604865 -24.711129 
L 63.839459 -24.737858 
L 64.074054 -24.765193 
L 64.308649 -24.793146 
L 64.543243 -24.821728 
L 64.777838 -24.850951 
L 65.012432 -24.880827 
L 65.247027 -24.911369 
L 65.481622 -24.942589 
L 65.716216 -24.9745 
L 65.950811 -25.007113 
L 66.185405 -25.040444 
L 66.42 -25.074503 
L 66.654595 -25.109305 
L 66.889189 -25.144863 
L 67.123784 -25.18119 
L 67.358378 -25.218301 
L 67.592973 -25.256209 
L 67.827568 -25.294929 
L 68.062162 -25.334474 
L 68.296757 -25.37486 
L 68.531351 -25.4161 
L 68.765946 -25.45821 
L 69.000541 -25.501205 
L 69.235135 -25.545099 
L 69.46973 -25.589909 
L 69.704324 -25.635649 
L 69.938919 -25.682336 
L 70.173514 -25.729984 
L 70.408108 -25.778611 
L 70.642703 -25.828232 
L 70.877297 -25.878864 
L 71.111892 -25.930523 
L 71.346486 -25.983227 
L 71.581081 -26.03699 
L 71.815676 -26.091832 
L 72.05027 -26.147769 
L 72.284865 -26.204819 
L 72.519459 -26.262998 
L 72.754054 -26.322325 
L 72.988649 -26.382818 
L 73.223243 -26.444494 
L 73.457838 -26.507372 
L 73.692432 -26.57147 
L 73.927027 -26.636807 
L 74.161622 -26.703401 
L 74.396216 -26.771271 
L 74.630811 -26.840436 
L 74.865405 -26.910915 
L 75.1 -26.982728 
L 75.334595 -27.055894 
L 75.569189 -27.130432 
L 75.803784 -27.206362 
L 76.038378 -27.283704 
L 76.272973 -27.362478 
L 76.507568 -27.442704 
L 76.742162 -27.524402 
L 76.976757 -27.607593 
L 77.211351 -27.692297 
L 77.445946 -27.778535 
L 77.680541 -27.866327 
L 77.915135 -27.955694 
L 78.14973 -28.046658 
L 78.384324 -28.139239 
L 78.618919 -28.233458 
L 78.853514 -28.329337 
L 79.088108 -28.426897 
L 79.322703 -28.52616 
L 79.557297 -28.627147 
L 79.791892 -28.72988 
L 80.026486 -28.83438 
L 80.261081 -28.940669 
L 80.495676 -29.04877 
L 80.73027 -29.158703 
L 80.964865 -29.270492 
L 81.199459 -29.384158 
L 81.434054 -29.499723 
L 81.668649 -29.61721 
L 81.903243 -29.73664 
L 82.137838 -29.858036 
L 82.372432 -29.98142 
L 82.607027 -30.106814 
L 82.841622 -30.234242 
L 83.076216 -30.363724 
L 83.310811 -30.495284 
L 83.545405 -30.628943 
L 83.78 -30.764725 
L 84.014595 -30.902651 
L 84.249189 -31.042743 
L 84.483784 -31.185025 
L 84.718378 -31.329518 
L 84.952973 -31.476244 
L 85.187568 -31.625226 
L 85.422162 -31.776486 
L 85.656757 -31.930046 
L 85.891351 -32.085927 
L 86.125946 -32.244153 
L 86.360541 -32.404744 
L 86.595135 -32.567722 
L 86.82973 -32.733109 
L 87.064324 -32.900927 
L 87.298919 -33.071198 
L 87.533514 -33.243941 
L 87.768108 -33.419179 
L 88.002703 -33.596933 
L 88.237297 -33.777224 
L 88.471892 -33.960072 
L 88.706486 -34.145498 
L 88.941081 -34.333522 
L 89.175676 -34.524165 
L 89.41027 -34.717447 
L 89.644865 -34.913387 
L 89.879459 -35.112006 
L 90.114054 -35.313323 
L 90.348649 -35.517356 
L 90.583243 -35.724126 
L 90.817838 -35.93365 
L 91.052432 -36.145948 
L 91.287027 -36.361037 
L 91.521622 -36.578936 
L 91.756216 -36.799662 
L 91.990811 -37.023232 
L 92.225405 -37.249664 
L 92.46 -37.478975 
L 92.694595 -37.711181 
L 92.929189 -37.946297 
L 93.163784 -38.184341 
L 93.398378 -38.425326 
L 93.632973 -38.66927 
L 93.867568 -38.916185 
L 94.102162 -39.166086 
L 94.336757 -39.418989 
L 94.571351 -39.674904 
L 94.805946 -39.933847 
L 95.040541 -40.19583 
L 95.275135 -40.460865 
L 95.50973 -40.728963 
L 95.744324 -41.000137 
L 95.978919 -41.274396 
L 96.213514 -41.551752 
L 96.448108 -41.832215 
L 96.682703 -42.115793 
L 96.917297 -42.402497 
L 97.151892 -42.692333 
L 97.386486 -42.985311 
L 97.621081 -43.281437 
L 97.855676 -43.580718 
L 98.09027 -43.883161 
L 98.324865 -44.188771 
L 98.559459 -44.497553 
L 98.794054 -44.809513 
L 99.028649 -45.124653 
L 99.263243 -45.442977 
L 99.497838 -45.764487 
L 99.732432 -46.089187 
L 99.967027 -46.417077 
L 100.201622 -46.748158 
L 100.436216 -47.082429 
L 100.670811 -47.419892 
L 100.905405 -47.760543 
L 101.14 -48.104383 
L 101.374595 -48.451406 
L 101.609189 -48.801612 
L 101.843784 -49.154994 
L 102.078378 -49.511549 
L 102.312973 -49.871272 
L 102.547568 -50.234155 
L 102.782162 -50.600192 
L 103.016757 -50.969376 
L 103.251351 -51.341696 
L 103.485946 -51.717146 
L 103.720541 -52.095713 
L 103.955135 -52.477389 
L 104.18973 -52.862159 
L 104.424324 -53.250014 
L 104.658919 -53.640938 
L 104.893514 -54.034918 
L 105.128108 -54.431939 
L 105.362703 -54.831986 
L 105.597297 -55.235041 
L 105.831892 -55.641088 
L 106.066486 -56.050107 
L 106.301081 -56.46208 
L 106.535676 -56.876987 
L 106.77027 -57.294807 
L 107.004865 -57.715518 
L 107.239459 -58.139098 
L 107.474054 -58.565523 
L 107.708649 -58.994768 
L 107.943243 -59.426809 
L 108.177838 -59.861618 
L 108.412432 -60.29917 
L 108.647027 -60.739435 
L 108.881622 -61.182386 
L 109.116216 -61.627992 
L 109.350811 -62.076223 
L 109.585405 -62.527046 
L 109.82 -62.98043 
L 110.054595 -63.436341 
L 110.289189 -63.894744 
L 110.523784 -64.355605 
L 110.758378 -64.818886 
L 110.992973 -65.284551 
L 111.227568 -65.752562 
L 111.462162 -66.22288 
L 111.696757 -66.695464 
L 111.931351 -67.170275 
L 112.165946 -67.647269 
L 112.400541 -68.126406 
L 112.635135 -68.60764 
L 112.86973 -69.090927 
L 113.104324 -69.576223 
L 113.338919 -70.063481 
L 113.573514 -70.552652 
L 113.808108 -71.043691 
L 114.042703 -71.536547 
L 114.277297 -72.03117 
L 114.511892 -72.52751 
L 114.746486 -73.025514 
L 114.981081 -73.525132 
L 115.215676 -74.026308 
L 115.45027 -74.528989 
L 115.684865 -75.033119 
L 115.919459 -75.538643 
L 116.154054 -76.045504 
L 116.388649 -76.553644 
L 116.623243 -77.063004 
L 116.857838 -77.573526 
L 117.092432 -78.085148 
L 117.327027 -78.597811 
L 117.561622 -79.111452 
L 117.796216 -79.626008 
L 118.030811 -80.141417 
L 118.265405 -80.657615 
L 118.5 -81.174536 
L 118.734595 -81.692115 
L 118.969189 -82.210286 
L 119.203784 -82.728981 
L 119.438378 -83.248134 
L 119.672973 -83.767675 
L 119.907568 -84.287535 
L 120.142162 -84.807646 
L 120.376757 -85.327935 
L 120.611351 -85.848333 
L 120.845946 -86.368767 
L 121.080541 -86.889166 
L 121.315135 -87.409456 
L 121.54973 -87.929564 
L 121.784324 -88.449416 
L 122.018919 -88.968938 
L 122.253514 -89.488054 
L 122.488108 -90.006688 
L 122.722703 -90.524765 
L 122.957297 -91.042207 
L 123.191892 -91.558939 
L 123.426486 -92.074882 
L 123.661081 -92.589959 
L 123.895676 -93.10409 
L 124.13027 -93.617198 
L 124.364865 -94.129203 
L 124.599459 -94.640026 
L 124.834054 -95.149587 
L 125.068649 -95.657806 
L 125.303243 -96.164603 
L 125.537838 -96.669896 
L 125.772432 -97.173605 
L 126.007027 -97.67565 
L 126.241622 -98.175947 
L 126.476216 -98.674417 
L 126.710811 -99.170977 
L 126.945405 -99.665546 
L 127.18 -100.158041 
L 127.414595 -100.64838 
L 127.649189 -101.136482 
L 127.883784 -101.622263 
L 128.118378 -102.105643 
L 128.352973 -102.586538 
L 128.587568 -103.064866 
L 128.822162 -103.540546 
L 129.056757 -104.013494 
L 129.291351 -104.48363 
L 129.525946 -104.95087 
L 129.760541 -105.415134 
L 129.995135 -105.876339 
L 130.22973 -106.334404 
L 130.464324 -106.789248 
L 130.698919 -107.24079 
L 130.933514 -107.688948 
L 131.168108 -108.133642 
L 131.402703 -108.574793 
L 131.637297 -109.012319 
L 131.871892 -109.446142 
L 132.106486 -109.876182 
L 132.341081 -110.302361 
L 132.575676 -110.724599 
L 132.81027 -111.142819 
L 133.044865 -111.556944 
L 133.279459 -111.966896 
L 133.514054 -112.372598 
L 133.748649 -112.773976 
L 133.983243 -113.170953 
L 134.217838 -113.563454 
L 134.452432 -113.951405 
L 134.687027 -114.334734 
L 134.921622 -114.713365 
L 135.156216 -115.087228 
L 135.390811 -115.456251 
L 135.625405 -115.820362 
L 135.86 -116.179492 
L 136.094595 -116.533571 
L 136.329189 -116.88253 
L 136.563784 -117.226303 
L 136.798378 -117.564821 
L 137.032973 -117.898019 
L 137.267568 -118.225831 
L 137.502162 -118.548194 
L 137.736757 -118.865043 
L 137.971351 -119.176316 
L 138.205946 -119.481952 
L 138.440541 -119.78189 
L 138.675135 -120.076071 
L 138.90973 -120.364436 
L 139.144324 -120.646927 
L 139.378919 -120.923488 
L 139.613514 -121.194063 
L 139.848108 -121.458599 
L 140.082703 -121.717042 
L 140.317297 -121.969341 
L 140.551892 -122.215443 
L 140.786486 -122.4553 
L 141.021081 -122.688863 
L 141.255676 -122.916085 
L 141.49027 -123.136918 
L 141.724865 -123.35132 
L 141.959459 -123.559245 
L 142.194054 -123.760652 
L 142.428649 -123.955498 
L 142.663243 -124.143746 
L 142.897838 -124.325355 
L 143.132432 -124.500288 
L 143.367027 -124.668511 
L 143.601622 -124.829987 
L 143.836216 -124.984684 
L 144.070811 -125.13257 
L 144.305405 -125.273615 
L 144.54 -125.407789 
L 144.774595 -125.535065 
L 145.009189 -125.655416 
L 145.243784 -125.768817 
L 145.478378 -125.875245 
L 145.712973 -125.974678 
L 145.947568 -126.067096 
L 146.182162 -126.152478 
L 146.416757 -126.230808 
L 146.651351 -126.302069 
L 146.885946 -126.366246 
L 147.120541 -126.423326 
L 147.355135 -126.473297 
L 147.58973 -126.516149 
L 147.824324 -126.551872 
L 148.058919 -126.58046 
L 148.293514 -126.601906 
L 148.528108 -126.616206 
L 148.762703 -126.623356 
L 148.997297 -126.623356 
L 149.231892 -126.616206 
L 149.466486 -126.601906 
L 149.701081 -126.58046 
L 149.935676 -126.551872 
L 150.17027 -126.516149 
L 150.404865 -126.473297 
L 150.639459 -126.423326 
L 150.874054 -126.366246 
L 151.108649 -126.302069 
L 151.343243 -126.230808 
L 151.577838 -126.152478 
L 151.812432 -126.067096 
L 152.047027 -125.974678 
L 152.281622 -125.875245 
L 152.516216 -125.768817 
L 152.750811 -125.655416 
L 152.985405 -125.535065 
L 153.22 -125.407789 
L 153.454595 -125.273615 
L 153.689189 -125.13257 
L 153.923784 -124.984684 
L 154.158378 -124.829987 
L 154.392973 -124.668511 
L 154.627568 -124.500288 
L 154.862162 -124.325355 
L 155.096757 -124.143746 
L 155.331351 -123.955498 
L 155.565946 -123.760652 
L 155.800541 -123.559245 
L 156.035135 -123.35132 
L 156.26973 -123.136918 
L 156.504324 -122.916085 
L 156.738919 -122.688863 
L 156.973514 -122.4553 
L 157.208108 -122.215443 
L 157.442703 -121.969341 
L 157.677297 -121.717042 
L 157.911892 -121.458599 
L 158.146486 -121.194063 
L 158.381081 -120.923488 
L 158.615676 -120.646927 
L 158.85027 -120.364436 
L 159.084865 -120.076071 
L 159.319459 -119.78189 
L 159.554054 -119.481952 
L 159.788649 -119.176316 
L 160.023243 -118.865043 
L 160.257838 -118.548194 
L 160.492432 -118.225831 
L 160.727027 -117.898019 
L 160.961622 -117.564821 
L 161.196216 -117.226303 
L 161.430811 -116.88253 
L 161.665405 -116.533571 
L 161.9 -116.179492 
L 162.134595 -115.820362 
L 162.369189 -115.456251 
L 162.603784 -115.087228 
L 162.838378 -114.713365 
L 163.072973 -114.334734 
L 163.307568 -113.951405 
L 163.542162 -113.563454 
L 163.776757 -113.170953 
L 164.011351 -112.773976 
L 164.245946 -112.372598 
L 164.480541 -111.966896 
L 164.715135 -111.556944 
L 164.94973 -111.142819 
L 165.184324 -110.724599 
L 165.418919 -110.302361 
L 165.653514 -109.876182 
L 165.888108 -109.446142 
L 166.122703 -109.012319 
L 166.357297 -108.574793 
L 166.591892 -108.133642 
L 166.826486 -107.688948 
L 167.061081 -107.24079 
L 167.295676 -106.789248 
L 167.53027 -106.334404 
L 167.764865 -105.876339 
L 167.999459 -105.415134 
L 168.234054 -104.95087 
L 168.468649 -104.48363 
L 168.703243 -104.013494 
L 168.937838 -103.540546 
L 169.172432 -103.064866 
L 169.407027 -102.586538 
L 169.641622 -102.105643 
L 169.876216 -101.622263 
L 170.110811 -101.136482 
L 170.345405 -100.64838 
L 170.58 -100.158041 
L 170.814595 -99.665546 
L 171.049189 -99.170977 
L 171.283784 -98.674417 
L 171.518378 -98.175947 
L 171.752973 -97.67565 
L 171.987568 -97.173605 
L 172.222162 -96.669896 
L 172.456757 -96.164603 
L 172.691351 -95.657806 
L 172.925946 -95.149587 
L 173.160541 -94.640026 
L 173.395135 -94.129203 
L 173.62973 -93.617198 
L 173.864324 -93.10409 
L 174.098919 -92.589959 
L 174.333514 -92.074882 
L 174.568108 -91.558939 
L 174.802703 -91.042207 
L 175.037297 -90.524765 
L 175.271892 -90.006688 
L 175.506486 -89.488054 
L 175.741081 -88.968938 
L 175.975676 -88.449416 
L 176.21027 -87.929564 
L 176.444865 -87.409456 
L 176.679459 -86.889166 
L 176.914054 -86.368767 
L 177.148649 -85.848333 
L 177.383243 -85.327935 
L 177.617838 -84.807646 
L 177.852432 -84.287535 
L 178.087027 -83.767675 
L 178.321622 -83.248134 
L 178.556216 -82.728981 
L 178.790811 -82.210286 
L 179.025405 -81.692115 
L 179.26 -81.174536 
L 179.494595 -80.657615 
L 179.729189 -80.141417 
L 179.963784 -79.626008 
L 180.198378 -79.111452 
L 180.432973 -78.597811 
L 180.667568 -78.085148 
L 180.902162 -77.573526 
L 181.136757 -77.063004 
L 181.371351 -76.553644 
L 181.605946 -76.045504 
L 181.840541 -75.538643 
L 182.075135 -75.033119 
L 182.30973 -74.528989 
L 182.544324 -74.026308 
L 182.778919 -73.525132 
L 183.013514 -73.025514 
L 183.248108 -72.52751 
L 183.482703 -72.03117 
L 183.717297 -71.536547 
L 183.951892 -71.043691 
L 184.186486 -70.552652 
L 184.421081 -70.063481 
L 184.655676 -69.576223 
L 184.89027 -69.090927 
L 185.124865 -68.60764 
L 185.359459 -68.126406 
L 185.594054 -67.647269 
L 185.828649 -67.170275 
L 186.063243 -66.695464 
L 186.297838 -66.22288 
L 186.532432 -65.752562 
L 186.767027 -65.284551 
L 187.001622 -64.818886 
L 187.236216 -64.355605 
L 187.470811 -63.894744 
L 187.705405 -63.436341 
L 187.94 -62.98043 
L 188.174595 -62.527046 
L 188.409189 -62.076223 
L 188.643784 -61.627992 
L 188.878378 -61.182386 
L 189.112973 -60.739435 
L 189.347568 -60.29917 
L 189.582162 -59.861618 
L 189.816757 -59.426809 
L 190.051351 -58.994768 
L 190.285946 -58.565523 
L 190.520541 -58.139098 
L 190.755135 -57.715518 
L 190.98973 -57.294807 
L 191.224324 -56.876987 
L 191.458919 -56.46208 
L 191.693514 -56.050107 
L 191.928108 -55.641088 
L 192.162703 -55.235041 
L 192.397297 -54.831986 
L 192.631892 -54.431939 
L 192.866486 -54.034918 
L 193.101081 -53.640938 
L 193.335676 -53.250014 
L 193.57027 -52.862159 
L 193.804865 -52.477389 
L 194.039459 -52.095713 
L 194.274054 -51.717146 
L 194.508649 -51.341696 
L 194.743243 -50.969376 
L 194.977838 -50.600192 
L 195.212432 -50.234155 
L 195.447027 -49.871272 
L 195.681622 -49.511549 
L 195.916216 -49.154994 
L 196.150811 -48.801612 
L 196.385405 -48.451406 
L 196.62 -48.104383 
L 196.854595 -47.760543 
L 197.089189 -47.419892 
L 197.323784 -47.082429 
L 197.558378 -46.748158 
L 197.792973 -46.417077 
L 198.027568 -46.089187 
L 198.262162 -45.764487 
L 198.496757 -45.442977 
L 198.731351 -45.124653 
L 198.965946 -44.809513 
L 199.200541 -44.497553 
L 199.435135 -44.188771 
L 199.66973 -43.883161 
L 199.904324 -43.580718 
L 200.138919 -43.281437 
L 200.373514 -42.985311 
L 200.608108 -42.692333 
L 200.842703 -42.402497 
L 201.077297 -42.115793 
L 201.311892 -41.832215 
L 201.546486 -41.551752 
L 201.781081 -41.274396 
L 202.015676 -41.000137 
L 202.25027 -40.728963 
L 202.484865 -40.460865 
L 202.719459 -40.19583 
L 202.954054 -39.933847 
L 203.188649 -39.674904 
L 203.423243 -39.418989 
L 203.657838 -39.166086 
L 203.892432 -38.916185 
L 204.127027 -38.66927 
L 204.361622 -38.425326 
L 204.596216 -38.184341 
L 204.830811 -37.946297 
L 205.065405 -37.711181 
L 205.3 -37.478975 
L 205.534595 -37.249664 
L 205.769189 -37.023232 
L 206.003784 -36.799662 
L 206.238378 -36.578936 
L 206.472973 -36.361037 
L 206.707568 -36.145948 
L 206.942162 -35.93365 
L 207.176757 -35.724126 
L 207.411351 -35.517356 
L 207.645946 -35.313323 
L 207.880541 -35.112006 
L 208.115135 -34.913387 
L 208.34973 -34.717447 
L 208.584324 -34.524165 
L 208.818919 -34.333522 
L 209.053514 -34.145498 
L 209.288108 -33.960072 
L 209.522703 -33.777224 
L 209.757297 -33.596933 
L 209.991892 -33.419179 
L 210.226486 -33.243941 
L 210.461081 -33.071198 
L 210.695676 -32.900927 
L 210.93027 -32.733109 
L 211.164865 -32.567722 
L 211.399459 -32.404744 
L 211.634054 -32.244153 
L 211.868649 -32.085927 
L 212.103243 -31.930046 
L 212.337838 -31.776486 
L 212.572432 -31.625226 
L 212.807027 -31.476244 
L 213.041622 -31.329518 
L 213.276216 -31.185025 
L 213.510811 -31.042743 
L 213.745405 -30.902651 
L 213.98 -30.764725 
L 214.214595 -30.628943 
L 214.449189 -30.495284 
L 214.683784 -30.363724 
L 214.918378 -30.234242 
L 215.152973 -30.106814 
L 215.387568 -29.98142 
L 215.622162 -29.858036 
L 215.856757 -29.73664 
L 216.091351 -29.61721 
L 216.325946 -29.499723 
L 216.560541 -29.384158 
L 216.795135 -29.270492 
L 217.02973 -29.158703 
L 217.264324 -29.04877 
L 217.498919 -28.940669 
L 217.733514 -28.83438 
L 217.968108 -28.72988 
L 218.202703 -28.627147 
L 218.437297 -28.52616 
L 218.671892 -28.426897 
L 218.906486 -28.329337 
L 219.141081 -28.233458 
L 219.375676 -28.139239 
L 219.61027 -28.046658 
L 219.844865 -27.955694 
L 220.079459 -27.866327 
L 220.314054 -27.778535 
L 220.548649 -27.692297 
L 220.783243 -27.607593 
L 221.017838 -27.524402 
L 221.252432 -27.442704 
L 221.487027 -27.362478 
L 221.721622 -27.283704 
L 221.956216 -27.206362 
L 222.190811 -27.130432 
L 222.425405 -27.055894 
L 222.66 -26.982728 
L 222.894595 -26.910915 
L 223.129189 -26.840436 
L 223.363784 -26.771271 
L 223.598378 -26.703401 
L 223.832973 -26.636807 
L 224.067568 -26.57147 
L 224.302162 -26.507372 
L 224.536757 -26.444494 
L 224.771351 -26.382818 
L 225.005946 -26.322325 
L 225.240541 -26.262998 
L 225.475135 -26.204819 
L 225.70973 -26.147769 
L 225.944324 -26.091832 
L 226.178919 -26.03699 
L 226.413514 -25.983227 
L 226.648108 -25.930523 
L 226.882703 -25.878864 
L 227.117297 -25.828232 
L 227.351892 -25.778611 
L 227.586486 -25.729984 
L 227.821081 -25.682336 
L 228.055676 -25.635649 
L 228.29027 -25.589909 
L 228.524865 -25.545099 
L 228.759459 -25.501205 
L 228.994054 -25.45821 
L 229.228649 -25.4161 
L 229.463243 -25.37486 
L 229.697838 -25.334474 
L 229.932432 -25.294929 
L 230.167027 -25.256209 
L 230.401622 -25.218301 
L 230.636216 -25.18119 
L 230.870811 -25.144863 
L 231.105405 -25.109305 
L 231.34 -25.074503 
L 231.574595 -25.040444 
L 231.809189 -25.007113 
L 232.043784 -24.9745 
L 232.278378 -24.942589 
L 232.512973 -24.911369 
L 232.747568 -24.880827 
L 232.982162 -24.850951 
L 233.216757 -24.821728 
L 233.451351 -24.793146 
L 233.685946 -24.765193 
L 233.920541 -24.737858 
L 234.155135 -24.711129 
L 234.38973 -24.684994 
L 234.624324 -24.659443 
L 234.858919 -24.634464 
L 235.093514 -24.610047 
L 235.328108 -24.586179 
L 235.562703 -24.562852 
L 235.797297 -24.540054 
L 236.031892 -24.517775 
L 236.266486 -24.496005 
L 236.501081 -24.474734 
L 236.735676 -24.453953 
L 236.97027 -24.43365 
L 237.204865 -24.413818 
L 237.439459 -24.394446 
L 237.674054 -24.375525 
L 237.908649 -24.357047 
L 238.143243 -24.339001 
L 238.377838 -24.32138 
L 238.612432 -24.304175 
L 238.847027 -24.287377 
L 239.081622 -24.270978 
L 239.316216 -24.254969 
L 239.550811 -24.239343 
L 239.785405 -24.224091 
L 240.02 -24.209206 
L 240.254595 -24.19468 
L 240.489189 -24.180505 
L 240.723784 -24.166674 
L 240.958378 -24.15318 
L 241.192973 -24.140015 
L 241.427568 -24.127172 
L 241.662162 -24.114645 
L 241.896757 -24.102426 
L 242.131351 -24.090509 
L 242.365946 -24.078888 
L 242.600541 -24.067555 
L 242.835135 -24.056505 
L 243.06973 -24.045731 
L 243.304324 -24.035227 
L 243.538919 -24.024988 
L 243.773514 -24.015006 
L 244.008108 -24.005277 
L 244.242703 -23.995795 
L 244.477297 -23.986555 
L 244.711892 -23.97755 
L 244.946486 -23.968775 
L 245.181081 -23.960226 
L 245.415676 -23.951897 
L 245.65027 -23.943782 
L 245.884865 -23.935878 
L 246.119459 -23.928179 
L 246.354054 -23.92068 
L 246.588649 -23.913377 
L 246.823243 -23.906265 
L 247.057838 -23.89934 
L 247.292432 -23.892598 
L 247.527027 -23.886033 
L 247.761622 -23.879642 
L 247.996216 -23.87342 
L 248.230811 -23.867365 
L 248.465405 -23.86147 
L 248.7 -23.855734 
L 248.934595 -23.850151 
L 249.169189 -23.844719 
L 249.403784 -23.839434 
L 249.638378 -23.834291 
L 249.872973 -23.829288 
L 250.107568 -23.824421 
L 250.342162 -23.819686 
L 250.576757 -23.815081 
L 250.811351 -23.810603 
L 251.045946 -23.806247 
L 251.280541 -23.802012 
L 251.515135 -23.797893 
L 251.74973 -23.793889 
L 251.984324 -23.789996 
L 252.218919 -23.786211 
L 252.453514 -23.782532 
L 252.688108 -23.778956 
L 252.922703 -23.775481 
L 253.157297 -23.772103 
L 253.391892 -23.768821 
L 253.626486 -23.765631 
L 253.861081 -23.762532 
L 254.095676 -23.759521 
L 254.33027 -23.756596 
L 254.564865 -23.753754 
L 254.799459 -23.750994 
L 255.034054 -23.748313 
L 255.268649 -23.74571 
L 255.503243 -23.743181 
L 255.737838 -23.740726 
L 255.972432 -23.738342 
L 256.207027 -23.736027 
L 256.441622 -23.73378 
L 256.676216 -23.731598 
L 256.910811 -23.72948 
L 257.145405 -23.727425 
L 257.38 -23.72543 
L 257.614595 -23.723494 
L 257.849189 -23.721615 
L 258.083784 -23.719792 
L 258.318378 -23.718023 
L 258.552973 -23.716307 
L 258.787568 -23.714642 
L 259.022162 -23.713027 
L 259.256757 -23.711461 
L 259.491351 -23.709941 
L 259.725946 -23.708468 
L 259.960541 -23.707039 
L 260.195135 -23.705653 
L 260.42973 -23.704309 
L 260.664324 -23.703007 
L 260.898919 -23.701744 
L 261.133514 -23.700519 
L 261.368108 -23.699333 
L 261.602703 -23.698182 
L 261.837297 -23.697067 
L 262.071892 -23.695987 
L 262.306486 -23.69494 
L 262.541081 -23.693926 
L 262.775676 -23.692943 
L 263.01027 -23.69199 
L 263.244865 -23.691068 
L 263.479459 -23.690174 
L 263.714054 -23.689308 
L 263.948649 -23.68847 
L 264.183243 -23.687658 
L 264.417838 -23.686871 
L 264.652432 -23.68611 
L 264.887027 -23.685373 
L 265.121622 -23.684659 
L 265.356216 -23.683968 
L 265.590811 -23.683299 
L 265.825405 -23.682651 
L 266.06 -23.682024 
L 266.06 -23.66425 
L 266.06 -23.66425 
L 265.825405 -23.66425 
L 265.590811 -23.66425 
L 265.356216 -23.66425 
L 265.121622 -23.66425 
L 264.887027 -23.66425 
L 264.652432 -23.66425 
L 264.417838 -23.66425 
L 264.183243 -23.66425 
L 263.948649 -23.66425 
L 263.714054 -23.66425 
L 263.479459 -23.66425 
L 263.244865 -23.66425 
L 263.01027 -23.66425 
L 262.775676 -23.66425 
L 262.541081 -23.66425 
L 262.306486 -23.66425 
L 262.071892 -23.66425 
L 261.837297 -23.66425 
L 261.602703 -23.66425 
L 261.368108 -23.66425 
L 261.133514 -23.66425 
L 260.898919 -23.66425 
L 260.664324 -23.66425 
L 260.42973 -23.66425 
L 260.195135 -23.66425 
L 259.960541 -23.66425 
L 259.725946 -23.66425 
L 259.491351 -23.66425 
L 259.256757 -23.66425 
L 259.022162 -23.66425 
L 258.787568 -23.66425 
L 258.552973 -23.66425 
L 258.318378 -23.66425 
L 258.083784 -23.66425 
L 257.849189 -23.66425 
L 257.614595 -23.66425 
L 257.38 -23.66425 
L 257.145405 -23.66425 
L 256.910811 -23.66425 
L 256.676216 -23.66425 
L 256.441622 -23.66425 
L 256.207027 -23.66425 
L 255.972432 -23.66425 
L 255.737838 -23.66425 
L 255.503243 -23.66425 
L 255.268649 -23.66425 
L 255.034054 -23.66425 
L 254.799459 -23.66425 
L 254.564865 -23.66425 
L 254.33027 -23.66425 
L 254.095676 -23.66425 
L 253.861081 -23.66425 
L 253.626486 -23.66425 
L 253.391892 -23.66425 
L 253.157297 -23.66425 
L 252.922703 -23.66425 
L 252.688108 -23.66425 
L 252.453514 -23.66425 
L 252.218919 -23.66425 
L 251.984324 -23.66425 
L 251.74973 -23.66425 
L 251.515135 -23.66425 
L 251.280541 -23.66425 
L 251.045946 -23.66425 
L 250.811351 -23.66425 
L 250.576757 -23.66425 
L 250.342162 -23.66425 
L 250.107568 -23.66425 
L 249.872973 -23.66425 
L 249.638378 -23.66425 
L 249.403784 -23.66425 
L 249.169189 -23.66425 
L 248.934595 -23.66425 
L 248.7 -23.66425 
L 248.465405 -23.66425 
L 248.230811 -23.66425 
L 247.996216 -23.66425 
L 247.761622 -23.66425 
L 247.527027 -23.66425 
L 247.292432 -23.66425 
L 247.057838 -23.66425 
L 246.823243 -23.66425 
L 246.588649 -23.66425 
L 246.354054 -23.66425 
L 246.119459 -23.66425 
L 245.884865 -23.66425 
L 245.65027 -23.66425 
L 245.415676 -23.66425 
L 245.181081 -23.66425 
L 244.946486 -23.66425 
L 244.711892 -23.66425 
L 244.477297 -23.66425 
L 244.242703 -23.66425 
L 244.008108 -23.66425 
L 243.773514 -23.66425 
L 243.538919 -23.66425 
L 243.304324 -23.66425 
L 243.06973 -23.66425 
L 242.835135 -23.66425 
L 242.600541 -23.66425 
L 242.365946 -23.66425 
L 242.131351 -23.66425 
L 241.896757 -23.66425 
L 241.662162 -23.66425 
L 241.427568 -23.66425 
L 241.192973 -23.66425 
L 240.958378 -23.66425 
L 240.723784 -23.66425 
L 240.489189 -23.66425 
L 240.254595 -23.66425 
L 240.02 -23.66425 
L 239.785405 -23.66425 
L 239.550811 -23.66425 
L 239.316216 -23.66425 
L 239.081622 -23.66425 
L 238.847027 -23.66425 
L 238.612432 -23.66425 
L 238.377838 -23.66425 
L 238.143243 -23.66425 
L 237.908649 -23.66425 
L 237.674054 -23.66425 
L 237.439459 -23.66425 
L 237.204865 -23.66425 
L 236.97027 -23.66425 
L 236.735676 -23.66425 
L 236.501081 -23.66425 
L 236.266486 -23.66425 
L 236.031892 -23.66425 
L 235.797297 -23.66425 
L 235.562703 -23.66425 
L 235.328108 -23.66425 
L 235.093514 -23.66425 
L 234.858919 -23.66425 
L 234.624324 -23.66425 
L 234.38973 -23.66425 
L 234.155135 -23.66425 
L 233.920541 -23.66425 
L 233.685946 -23.66425 
L 233.451351 -23.66425 
L 233.216757 -23.66425 
L 232.982162 -23.66425 
L 232.747568 -23.66425 
L 232.512973 -23.66425 
L 232.278378 -23.66425 
L 232.043784 -23.66425 
L 231.809189 -23.66425 
L 231.574595 -23.66425 
L 231.34 -23.66425 
L 231.105405 -23.66425 
L 230.870811 -23.66425 
L 230.636216 -23.66425 
L 230.401622 -23.66425 
L 230.167027 -23.66425 
L 229.932432 -23.66425 
L 229.697838 -23.66425 
L 229.463243 -23.66425 
L 229.228649 -23.66425 
L 228.994054 -23.66425 
L 228.759459 -23.66425 
L 228.524865 -23.66425 
L 228.29027 -23.66425 
L 228.055676 -23.66425 
L 227.821081 -23.66425 
L 227.586486 -23.66425 
L 227.351892 -23.66425 
L 227.117297 -23.66425 
L 226.882703 -23.66425 
L 226.648108 -23.66425 
L 226.413514 -23.66425 
L 226.178919 -23.66425 
L 225.944324 -23.66425 
L 225.70973 -23.66425 
L 225.475135 -23.66425 
L 225.240541 -23.66425 
L 225.005946 -23.66425 
L 224.771351 -23.66425 
L 224.536757 -23.66425 
L 224.302162 -23.66425 
L 224.067568 -23.66425 
L 223.832973 -23.66425 
L 223.598378 -23.66425 
L 223.363784 -23.66425 
L 223.129189 -23.66425 
L 222.894595 -23.66425 
L 222.66 -23.66425 
L 222.425405 -23.66425 
L 222.190811 -23.66425 
L 221.956216 -23.66425 
L 221.721622 -23.66425 
L 221.487027 -23.66425 
L 221.252432 -23.66425 
L 221.017838 -23.66425 
L 220.783243 -23.66425 
L 220.548649 -23.66425 
L 220.314054 -23.66425 
L 220.079459 -23.66425 
L 219.844865 -23.66425 
L 219.61027 -23.66425 
L 219.375676 -23.66425 
L 219.141081 -23.66425 
L 218.906486 -23.66425 
L 218.671892 -23.66425 
L 218.437297 -23.66425 
L 218.202703 -23.66425 
L 217.968108 -23.66425 
L 217.733514 -23.66425 
L 217.498919 -23.66425 
L 217.264324 -23.66425 
L 217.02973 -23.66425 
L 216.795135 -23.66425 
L 216.560541 -23.66425 
L 216.325946 -23.66425 
L 216.091351 -23.66425 
L 215.856757 -23.66425 
L 215.622162 -23.66425 
L 215.387568 -23.66425 
L 215.152973 -23.66425 
L 214.918378 -23.66425 
L 214.683784 -23.66425 
L 214.449189 -23.66425 
L 214.214595 -23.66425 
L 213.98 -23.66425 
L 213.745405 -23.66425 
L 213.510811 -23.66425 
L 213.276216 -23.66425 
L 213.041622 -23.66425 
L 212.807027 -23.66425 
L 212.572432 -23.66425 
L 212.337838 -23.66425 
L 212.103243 -23.66425 
L 211.868649 -23.66425 
L 211.634054 -23.66425 
L 211.399459 -23.66425 
L 211.164865 -23.66425 
L 210.93027 -23.66425 
L 210.695676 -23.66425 
L 210.461081 -23.66425 
L 210.226486 -23.66425 
L 209.991892 -23.66425 
L 209.757297 -23.66425 
L 209.522703 -23.66425 
L 209.288108 -23.66425 
L 209.053514 -23.66425 
L 208.818919 -23.66425 
L 208.584324 -23.66425 
L 208.34973 -23.66425 
L 208.115135 -23.66425 
L 207.880541 -23.66425 
L 207.645946 -23.66425 
L 207.411351 -23.66425 
L 207.176757 -23.66425 
L 206.942162 -23.66425 
L 206.707568 -23.66425 
L 206.472973 -23.66425 
L 206.238378 -23.66425 
L 206.003784 -23.66425 
L 205.769189 -23.66425 
L 205.534595 -23.66425 
L 205.3 -23.66425 
L 205.065405 -23.66425 
L 204.830811 -23.66425 
L 204.596216 -23.66425 
L 204.361622 -23.66425 
L 204.127027 -23.66425 
L 203.892432 -23.66425 
L 203.657838 -23.66425 
L 203.423243 -23.66425 
L 203.188649 -23.66425 
L 202.954054 -23.66425 
L 202.719459 -23.66425 
L 202.484865 -23.66425 
L 202.25027 -23.66425 
L 202.015676 -23.66425 
L 201.781081 -23.66425 
L 201.546486 -23.66425 
L 201.311892 -23.66425 
L 201.077297 -23.66425 
L 200.842703 -23.66425 
L 200.608108 -23.66425 
L 200.373514 -23.66425 
L 200.138919 -23.66425 
L 199.904324 -23.66425 
L 199.66973 -23.66425 
L 199.435135 -23.66425 
L 199.200541 -23.66425 
L 198.965946 -23.66425 
L 198.731351 -23.66425 
L 198.496757 -23.66425 
L 198.262162 -23.66425 
L 198.027568 -23.66425 
L 197.792973 -23.66425 
L 197.558378 -23.66425 
L 197.323784 -23.66425 
L 197.089189 -23.66425 
L 196.854595 -23.66425 
L 196.62 -23.66425 
L 196.385405 -23.66425 
L 196.150811 -23.66425 
L 195.916216 -23.66425 
L 195.681622 -23.66425 
L 195.447027 -23.66425 
L 195.212432 -23.66425 
L 194.977838 -23.66425 
L 194.743243 -23.66425 
L 194.508649 -23.66425 
L 194.274054 -23.66425 
L 194.039459 -23.66425 
L 193.804865 -23.66425 
L 193.57027 -23.66425 
L 193.335676 -23.66425 
L 193.101081 -23.66425 
L 192.866486 -23.66425 
L 192.631892 -23.66425 
L 192.397297 -23.66425 
L 192.162703 -23.66425 
L 191.928108 -23.66425 
L 191.693514 -23.66425 
L 191.458919 -23.66425 
L 191.224324 -23.66425 
L 190.98973 -23.66425 
L 190.755135 -23.66425 
L 190.520541 -23.66425 
L 190.285946 -23.66425 
L 190.051351 -23.66425 
L 189.816757 -23.66425 
L 189.582162 -23.66425 
L 189.347568 -23.66425 
L 189.112973 -23.66425 
L 188.878378 -23.66425 
L 188.643784 -23.66425 
L 188.409189 -23.66425 
L 188.174595 -23.66425 
L 187.94 -23.66425 
L 187.705405 -23.66425 
L 187.470811 -23.66425 
L 187.236216 -23.66425 
L 187.001622 -23.66425 
L 186.767027 -23.66425 
L 186.532432 -23.66425 
L 186.297838 -23.66425 
L 186.063243 -23.66425 
L 185.828649 -23.66425 
L 185.594054 -23.66425 
L 185.359459 -23.66425 
L 185.124865 -23.66425 
L 184.89027 -23.66425 
L 184.655676 -23.66425 
L 184.421081 -23.66425 
L 184.186486 -23.66425 
L 183.951892 -23.66425 
L 183.717297 -23.66425 
L 183.482703 -23.66425 
L 183.248108 -23.66425 
L 183.013514 -23.66425 
L 182.778919 -23.66425 
L 182.544324 -23.66425 
L 182.30973 -23.66425 
L 182.075135 -23.66425 
L 181.840541 -23.66425 
L 181.605946 -23.66425 
L 181.371351 -23.66425 
L 181.136757 -23.66425 
L 180.902162 -23.66425 
L 180.667568 -23.66425 
L 180.432973 -23.66425 
L 180.198378 -23.66425 
L 179.963784 -23.66425 
L 179.729189 -23.66425 
L 179.494595 -23.66425 
L 179.26 -23.66425 
L 179.025405 -23.66425 
L 178.790811 -23.66425 
L 178.556216 -23.66425 
L 178.321622 -23.66425 
L 178.087027 -23.66425 
L 177.852432 -23.66425 
L 177.617838 -23.66425 
L 177.383243 -23.66425 
L 177.148649 -23.66425 
L 176.914054 -23.66425 
L 176.679459 -23.66425 
L 176.444865 -23.66425 
L 176.21027 -23.66425 
L 175.975676 -23.66425 
L 175.741081 -23.66425 
L 175.506486 -23.66425 
L 175.271892 -23.66425 
L 175.037297 -23.66425 
L 174.802703 -23.66425 
L 174.568108 -23.66425 
L 174.333514 -23.66425 
L 174.098919 -23.66425 
L 173.864324 -23.66425 
L 173.62973 -23.66425 
L 173.395135 -23.66425 
L 173.160541 -23.66425 
L 172.925946 -23.66425 
L 172.691351 -23.66425 
L 172.456757 -23.66425 
L 172.222162 -23.66425 
L 171.987568 -23.66425 
L 171.752973 -23.66425 
L 171.518378 -23.66425 
L 171.283784 -23.66425 
L 171.049189 -23.66425 
L 170.814595 -23.66425 
L 170.58 -23.66425 
L 170.345405 -23.66425 
L 170.110811 -23.66425 
L 169.876216 -23.66425 
L 169.641622 -23.66425 
L 169.407027 -23.66425 
L 169.172432 -23.66425 
L 168.937838 -23.66425 
L 168.703243 -23.66425 
L 168.468649 -23.66425 
L 168.234054 -23.66425 
L 167.999459 -23.66425 
L 167.764865 -23.66425 
L 167.53027 -23.66425 
L 167.295676 -23.66425 
L 167.061081 -23.66425 
L 166.826486 -23.66425 
L 166.591892 -23.66425 
L 166.357297 -23.66425 
L 166.122703 -23.66425 
L 165.888108 -23.66425 
L 165.653514 -23.66425 
L 165.418919 -23.66425 
L 165.184324 -23.66425 
L 164.94973 -23.66425 
L 164.715135 -23.66425 
L 164.480541 -23.66425 
L 164.245946 -23.66425 
L 164.011351 -23.66425 
L 163.776757 -23.66425 
L 163.542162 -23.66425 
L 163.307568 -23.66425 
L 163.072973 -23.66425 
L 162.838378 -23.66425 
L 162.603784 -23.66425 
L 162.369189 -23.66425 
L 162.134595 -23.66425 
L 161.9 -23.66425 
L 161.665405 -23.66425 
L 161.430811 -23.66425 
L 161.196216 -23.66425 
L 160.961622 -23.66425 
L 160.727027 -23.66425 
L 160.492432 -23.66425 
L 160.257838 -23.66425 
L 160.023243 -23.66425 
L 159.788649 -23.66425 
L 159.554054 -23.66425 
L 159.319459 -23.66425 
L 159.084865 -23.66425 
L 158.85027 -23.66425 
L 158.615676 -23.66425 
L 158.381081 -23.66425 
L 158.146486 -23.66425 
L 157.911892 -23.66425 
L 157.677297 -23.66425 
L 157.442703 -23.66425 
L 157.208108 -23.66425 
L 156.973514 -23.66425 
L 156.738919 -23.66425 
L 156.504324 -23.66425 
L 156.26973 -23.66425 
L 156.035135 -23.66425 
L 155.800541 -23.66425 
L 155.565946 -23.66425 
L 155.331351 -23.66425 
L 155.096757 -23.66425 
L 154.862162 -23.66425 
L 154.627568 -23.66425 
L 154.392973 -23.66425 
L 154.158378 -23.66425 
L 153.923784 -23.66425 
L 153.689189 -23.66425 
L 153.454595 -23.66425 
L 153.22 -23.66425 
L 152.985405 -23.66425 
L 152.750811 -23.66425 
L 152.516216 -23.66425 
L 152.281622 -23.66425 
L 152.047027 -23.66425 
L 151.812432 -23.66425 
L 151.577838 -23.66425 
L 151.343243 -23.66425 
L 151.108649 -23.66425 
L 150.874054 -23.66425 
L 150.639459 -23.66425 
L 150.404865 -23.66425 
L 150.17027 -23.66425 
L 149.935676 -23.66425 
L 149.701081 -23.66425 
L 149.466486 -23.66425 
L 149.231892 -23.66425 
L 148.997297 -23.66425 
L 148.762703 -23.66425 
L 148.528108 -23.66425 
L 148.293514 -23.66425 
L 148.058919 -23.66425 
L 147.824324 -23.66425 
L 147.58973 -23.66425 
L 147.355135 -23.66425 
L 147.120541 -23.66425 
L 146.885946 -23.66425 
L 146.651351 -23.66425 
L 146.416757 -23.66425 
L 146.182162 -23.66425 
L 145.947568 -23.66425 
L 145.712973 -23.66425 
L 145.478378 -23.66425 
L 145.243784 -23.66425 
L 145.009189 -23.66425 
L 144.774595 -23.66425 
L 144.54 -23.66425 
L 144.305405 -23.66425 
L 144.070811 -23.66425 
L 143.836216 -23.66425 
L 143.601622 -23.66425 
L 143.367027 -23.66425 
L 143.132432 -23.66425 
L 142.897838 -23.66425 
L 142.663243 -23.66425 
L 142.428649 -23.66425 
L 142.194054 -23.66425 
L 141.959459 -23.66425 
L 141.724865 -23.66425 
L 141.49027 -23.66425 
L 141.255676 -23.66425 
L 141.021081 -23.66425 
L 140.786486 -23.66425 
L 140.551892 -23.66425 
L 140.317297 -23.66425 
L 140.082703 -23.66425 
L 139.848108 -23.66425 
L 139.613514 -23.66425 
L 139.378919 -23.66425 
L 139.144324 -23.66425 
L 138.90973 -23.66425 
L 138.675135 -23.66425 
L 138.440541 -23.66425 
L 138.205946 -23.66425 
L 137.971351 -23.66425 
L 137.736757 -23.66425 
L 137.502162 -23.66425 
L 137.267568 -23.66425 
L 137.032973 -23.66425 
L 136.798378 -23.66425 
L 136.563784 -23.66425 
L 136.329189 -23.66425 
L 136.094595 -23.66425 
L 135.86 -23.66425 
L 135.625405 -23.66425 
L 135.390811 -23.66425 
L 135.156216 -23.66425 
L 134.921622 -23.66425 
L 134.687027 -23.66425 
L 134.452432 -23.66425 
L 134.217838 -23.66425 
L 133.983243 -23.66425 
L 133.748649 -23.66425 
L 133.514054 -23.66425 
L 133.279459 -23.66425 
L 133.044865 -23.66425 
L 132.81027 -23.66425 
L 132.575676 -23.66425 
L 132.341081 -23.66425 
L 132.106486 -23.66425 
L 131.871892 -23.66425 
L 131.637297 -23.66425 
L 131.402703 -23.66425 
L 131.168108 -23.66425 
L 130.933514 -23.66425 
L 130.698919 -23.66425 
L 130.464324 -23.66425 
L 130.22973 -23.66425 
L 129.995135 -23.66425 
L 129.760541 -23.66425 
L 129.525946 -23.66425 
L 129.291351 -23.66425 
L 129.056757 -23.66425 
L 128.822162 -23.66425 
L 128.587568 -23.66425 
L 128.352973 -23.66425 
L 128.118378 -23.66425 
L 127.883784 -23.66425 
L 127.649189 -23.66425 
L 127.414595 -23.66425 
L 127.18 -23.66425 
L 126.945405 -23.66425 
L 126.710811 -23.66425 
L 126.476216 -23.66425 
L 126.241622 -23.66425 
L 126.007027 -23.66425 
L 125.772432 -23.66425 
L 125.537838 -23.66425 
L 125.303243 -23.66425 
L 125.068649 -23.66425 
L 124.834054 -23.66425 
L 124.599459 -23.66425 
L 124.364865 -23.66425 
L 124.13027 -23.66425 
L 123.895676 -23.66425 
L 123.661081 -23.66425 
L 123.426486 -23.66425 
L 123.191892 -23.66425 
L 122.957297 -23.66425 
L 122.722703 -23.66425 
L 122.488108 -23.66425 
L 122.253514 -23.66425 
L 122.018919 -23.66425 
L 121.784324 -23.66425 
L 121.54973 -23.66425 
L 121.315135 -23.66425 
L 121.080541 -23.66425 
L 120.845946 -23.66425 
L 120.611351 -23.66425 
L 120.376757 -23.66425 
L 120.142162 -23.66425 
L 119.907568 -23.66425 
L 119.672973 -23.66425 
L 119.438378 -23.66425 
L 119.203784 -23.66425 
L 118.969189 -23.66425 
L 118.734595 -23.66425 
L 118.5 -23.66425 
L 118.265405 -23.66425 
L 118.030811 -23.66425 
L 117.796216 -23.66425 
L 117.561622 -23.66425 
L 117.327027 -23.66425 
L 117.092432 -23.66425 
L 116.857838 -23.66425 
L 116.623243 -23.66425 
L 116.388649 -23.66425 
L 116.154054 -23.66425 
L 115.919459 -23.66425 
L 115.684865 -23.66425 
L 115.45027 -23.66425 
L 115.215676 -23.66425 
L 114.981081 -23.66425 
L 114.746486 -23.66425 
L 114.511892 -23.66425 
L 114.277297 -23.66425 
L 114.042703 -23.66425 
L 113.808108 -23.66425 
L 113.573514 -23.66425 
L 113.338919 -23.66425 
L 113.104324 -23.66425 
L 112.86973 -23.66425 
L 112.635135 -23.66425 
L 112.400541 -23.66425 
L 112.165946 -23.66425 
L 111.931351 -23.66425 
L 111.696757 -23.66425 
L 111.462162 -23.66425 
L 111.227568 -23.66425 
L 110.992973 -23.66425 
L 110.758378 -23.66425 
L 110.523784 -23.66425 
L 110.289189 -23.66425 
L 110.054595 -23.66425 
L 109.82 -23.66425 
L 109.585405 -23.66425 
L 109.350811 -23.66425 
L 109.116216 -23.66425 
L 108.881622 -23.66425 
L 108.647027 -23.66425 
L 108.412432 -23.66425 
L 108.177838 -23.66425 
L 107.943243 -23.66425 
L 107.708649 -23.66425 
L 107.474054 -23.66425 
L 107.239459 -23.66425 
L 107.004865 -23.66425 
L 106.77027 -23.66425 
L 106.535676 -23.66425 
L 106.301081 -23.66425 
L 106.066486 -23.66425 
L 105.831892 -23.66425 
L 105.597297 -23.66425 
L 105.362703 -23.66425 
L 105.128108 -23.66425 
L 104.893514 -23.66425 
L 104.658919 -23.66425 
L 104.424324 -23.66425 
L 104.18973 -23.66425 
L 103.955135 -23.66425 
L 103.720541 -23.66425 
L 103.485946 -23.66425 
L 103.251351 -23.66425 
L 103.016757 -23.66425 
L 102.782162 -23.66425 
L 102.547568 -23.66425 
L 102.312973 -23.66425 
L 102.078378 -23.66425 
L 101.843784 -23.66425 
L 101.609189 -23.66425 
L 101.374595 -23.66425 
L 101.14 -23.66425 
L 100.905405 -23.66425 
L 100.670811 -23.66425 
L 100.436216 -23.66425 
L 100.201622 -23.66425 
L 99.967027 -23.66425 
L 99.732432 -23.66425 
L 99.497838 -23.66425 
L 99.263243 -23.66425 
L 99.028649 -23.66425 
L 98.794054 -23.66425 
L 98.559459 -23.66425 
L 98.324865 -23.66425 
L 98.09027 -23.66425 
L 97.855676 -23.66425 
L 97.621081 -23.66425 
L 97.386486 -23.66425 
L 97.151892 -23.66425 
L 96.917297 -23.66425 
L 96.682703 -23.66425 
L 96.448108 -23.66425 
L 96.213514 -23.66425 
L 95.978919 -23.66425 
L 95.744324 -23.66425 
L 95.50973 -23.66425 
L 95.275135 -23.66425 
L 95.040541 -23.66425 
L 94.805946 -23.66425 
L 94.571351 -23.66425 
L 94.336757 -23.66425 
L 94.102162 -23.66425 
L 93.867568 -23.66425 
L 93.632973 -23.66425 
L 93.398378 -23.66425 
L 93.163784 -23.66425 
L 92.929189 -23.66425 
L 92.694595 -23.66425 
L 92.46 -23.66425 
L 92.225405 -23.66425 
L 91.990811 -23.66425 
L 91.756216 -23.66425 
L 91.521622 -23.66425 
L 91.287027 -23.66425 
L 91.052432 -23.66425 
L 90.817838 -23.66425 
L 90.583243 -23.66425 
L 90.348649 -23.66425 
L 90.114054 -23.66425 
L 89.879459 -23.66425 
L 89.644865 -23.66425 
L 89.41027 -23.66425 
L 89.175676 -23.66425 
L 88.941081 -23.66425 
L 88.706486 -23.66425 
L 88.471892 -23.66425 
L 88.237297 -23.66425 
L 88.002703 -23.66425 
L 87.768108 -23.66425 
L 87.533514 -23.66425 
L 87.298919 -23.66425 
L 87.064324 -23.66425 
L 86.82973 -23.66425 
L 86.595135 -23.66425 
L 86.360541 -23.66425 
L 86.125946 -23.66425 
L 85.891351 -23.66425 
L 85.656757 -23.66425 
L 85.422162 -23.66425 
L 85.187568 -23.66425 
L 84.952973 -23.66425 
L 84.718378 -23.66425 
L 84.483784 -23.66425 
L 84.249189 -23.66425 
L 84.014595 -23.66425 
L 83.78 -23.66425 
L 83.545405 -23.66425 
L 83.310811 -23.66425 
L 83.076216 -23.66425 
L 82.841622 -23.66425 
L 82.607027 -23.66425 
L 82.372432 -23.66425 
L 82.137838 -23.66425 
L 81.903243 -23.66425 
L 81.668649 -23.66425 
L 81.434054 -23.66425 
L 81.199459 -23.66425 
L 80.964865 -23.66425 
L 80.73027 -23.66425 
L 80.495676 -23.66425 
L 80.261081 -23.66425 
L 80.026486 -23.66425 
L 79.791892 -23.66425 
L 79.557297 -23.66425 
L 79.322703 -23.66425 
L 79.088108 -23.66425 
L 78.853514 -23.66425 
L 78.618919 -23.66425 
L 78.384324 -23.66425 
L 78.14973 -23.66425 
L 77.915135 -23.66425 
L 77.680541 -23.66425 
L 77.445946 -23.66425 
L 77.211351 -23.66425 
L 76.976757 -23.66425 
L 76.742162 -23.66425 
L 76.507568 -23.66425 
L 76.272973 -23.66425 
L 76.038378 -23.66425 
L 75.803784 -23.66425 
L 75.569189 -23.66425 
L 75.334595 -23.66425 
L 75.1 -23.66425 
L 74.865405 -23.66425 
L 74.630811 -23.66425 
L 74.396216 -23.66425 
L 74.161622 -23.66425 
L 73.927027 -23.66425 
L 73.692432 -23.66425 
L 73.457838 -23.66425 
L 73.223243 -23.66425 
L 72.988649 -23.66425 
L 72.754054 -23.66425 
L 72.519459 -23.66425 
L 72.284865 -23.66425 
L 72.05027 -23.66425 
L 71.815676 -23.66425 
L 71.581081 -23.66425 
L 71.346486 -23.66425 
L 71.111892 -23.66425 
L 70.877297 -23.66425 
L 70.642703 -23.66425 
L 70.408108 -23.66425 
L 70.173514 -23.66425 
L 69.938919 -23.66425 
L 69.704324 -23.66425 
L 69.46973 -23.66425 
L 69.235135 -23.66425 
L 69.000541 -23.66425 
L 68.765946 -23.66425 
L 68.531351 -23.66425 
L 68.296757 -23.66425 
L 68.062162 -23.66425 
L 67.827568 -23.66425 
L 67.592973 -23.66425 
L 67.358378 -23.66425 
L 67.123784 -23.66425 
L 66.889189 -23.66425 
L 66.654595 -23.66425 
L 66.42 -23.66425 
L 66.185405 -23.66425 
L 65.950811 -23.66425 
L 65.716216 -23.66425 
L 65.481622 -23.66425 
L 65.247027 -23.66425 
L 65.012432 -23.66425 
L 64.777838 -23.66425 
L 64.543243 -23.66425 
L 64.308649 -23.66425 
L 64.074054 -23.66425 
L 63.839459 -23.66425 
L 63.604865 -23.66425 
L 63.37027 -23.66425 
L 63.135676 -23.66425 
L 62.901081 -23.66425 
L 62.666486 -23.66425 
L 62.431892 -23.66425 
L 62.197297 -23.66425 
L 61.962703 -23.66425 
L 61.728108 -23.66425 
L 61.493514 -23.66425 
L 61.258919 -23.66425 
L 61.024324 -23.66425 
L 60.78973 -23.66425 
L 60.555135 -23.66425 
L 60.320541 -23.66425 
L 60.085946 -23.66425 
L 59.851351 -23.66425 
L 59.616757 -23.66425 
L 59.382162 -23.66425 
L 59.147568 -23.66425 
L 58.912973 -23.66425 
L 58.678378 -23.66425 
L 58.443784 -23.66425 
L 58.209189 -23.66425 
L 57.974595 -23.66425 
L 57.74 -23.66425 
L 57.505405 -23.66425 
L 57.270811 -23.66425 
L 57.036216 -23.66425 
L 56.801622 -23.66425 
L 56.567027 -23.66425 
L 56.332432 -23.66425 
L 56.097838 -23.66425 
L 55.863243 -23.66425 
L 55.628649 -23.66425 
L 55.394054 -23.66425 
L 55.159459 -23.66425 
L 54.924865 -23.66425 
L 54.69027 -23.66425 
L 54.455676 -23.66425 
L 54.221081 -23.66425 
L 53.986486 -23.66425 
L 53.751892 -23.66425 
L 53.517297 -23.66425 
L 53.282703 -23.66425 
L 53.048108 -23.66425 
L 52.813514 -23.66425 
L 52.578919 -23.66425 
L 52.344324 -23.66425 
L 52.10973 -23.66425 
L 51.875135 -23.66425 
L 51.640541 -23.66425 
L 51.405946 -23.66425 
L 51.171351 -23.66425 
L 50.936757 -23.66425 
L 50.702162 -23.66425 
L 50.467568 -23.66425 
L 50.232973 -23.66425 
L 49.998378 -23.66425 
L 49.763784 -23.66425 
L 49.529189 -23.66425 
L 49.294595 -23.66425 
L 49.06 -23.66425 
L 48.825405 -23.66425 
L 48.590811 -23.66425 
L 48.356216 -23.66425 
L 48.121622 -23.66425 
L 47.887027 -23.66425 
L 47.652432 -23.66425 
L 47.417838 -23.66425 
L 47.183243 -23.66425 
L 46.948649 -23.66425 
L 46.714054 -23.66425 
L 46.479459 -23.66425 
L 46.244865 -23.66425 
L 46.01027 -23.66425 
L 45.775676 -23.66425 
L 45.541081 -23.66425 
L 45.306486 -23.66425 
L 45.071892 -23.66425 
L 44.837297 -23.66425 
L 44.602703 -23.66425 
L 44.368108 -23.66425 
L 44.133514 -23.66425 
L 43.898919 -23.66425 
L 43.664324 -23.66425 
L 43.42973 -23.66425 
L 43.195135 -23.66425 
L 42.960541 -23.66425 
L 42.725946 -23.66425 
L 42.491351 -23.66425 
L 42.256757 -23.66425 
L 42.022162 -23.66425 
L 41.787568 -23.66425 
L 41.552973 -23.66425 
L 41.318378 -23.66425 
L 41.083784 -23.66425 
L 40.849189 -23.66425 
L 40.614595 -23.66425 
L 40.38 -23.66425 
L 40.145405 -23.66425 
L 39.910811 -23.66425 
L 39.676216 -23.66425 
L 39.441622 -23.66425 
L 39.207027 -23.66425 
L 38.972432 -23.66425 
L 38.737838 -23.66425 
L 38.503243 -23.66425 
L 38.268649 -23.66425 
L 38.034054 -23.66425 
L 37.799459 -23.66425 
L 37.564865 -23.66425 
L 37.33027 -23.66425 
L 37.095676 -23.66425 
L 36.861081 -23.66425 
L 36.626486 -23.66425 
L 36.391892 -23.66425 
L 36.157297 -23.66425 
L 35.922703 -23.66425 
L 35.688108 -23.66425 
L 35.453514 -23.66425 
L 35.218919 -23.66425 
L 34.984324 -23.66425 
L 34.74973 -23.66425 
L 34.515135 -23.66425 
L 34.280541 -23.66425 
L 34.045946 -23.66425 
L 33.811351 -23.66425 
L 33.576757 -23.66425 
L 33.342162 -23.66425 
L 33.107568 -23.66425 
L 32.872973 -23.66425 
L 32.638378 -23.66425 
L 32.403784 -23.66425 
L 32.169189 -23.66425 
L 31.934595 -23.66425 
L 31.7 -23.66425 
z
" style="stroke: #e04f39; stroke-opacity: 0.18"/>
    </defs>
    <g clip-path="url(#p63a9c7c81b)">
     <use xlink:href="#ma117ce56a9" x="0" y="169.86025" style="fill: #e04f39; fill-opacity: 0.18; stroke: #e04f39; stroke-opacity: 0.18"/>
    </g>
   </g>
   <g id="matplotlib.axis_1">
    <g id="text_1">
     <!-- Time -->
     <g style="fill: #44546a" transform="translate(140.141875 161.07025) scale(0.08 -0.08)">
      <defs>
       <path id="ArialMT-54" d="M 1659 0 
L 1659 4041 
L 150 4041 
L 150 4581 
L 3781 4581 
L 3781 4041 
L 2266 4041 
L 2266 0 
L 1659 0 
z
" transform="scale(0.015625)"/>
       <path id="ArialMT-69" d="M 425 3934 
L 425 4581 
L 988 4581 
L 988 3934 
L 425 3934 
z
M 425 0 
L 425 3319 
L 988 3319 
L 988 0 
L 425 0 
z
" transform="scale(0.015625)"/>
       <path id="ArialMT-6d" d="M 422 0 
L 422 3319 
L 925 3319 
L 925 2853 
Q 1081 3097 1340 3245 
Q 1600 3394 1931 3394 
Q 2300 3394 2536 3241 
Q 2772 3088 2869 2813 
Q 3263 3394 3894 3394 
Q 4388 3394 4653 3120 
Q 4919 2847 4919 2278 
L 4919 0 
L 4359 0 
L 4359 2091 
Q 4359 2428 4304 2576 
Q 4250 2725 4106 2815 
Q 3963 2906 3769 2906 
Q 3419 2906 3187 2673 
Q 2956 2441 2956 1928 
L 2956 0 
L 2394 0 
L 2394 2156 
Q 2394 2531 2256 2718 
Q 2119 2906 1806 2906 
Q 1569 2906 1367 2781 
Q 1166 2656 1075 2415 
Q 984 2175 984 1722 
L 984 0 
L 422 0 
z
" transform="scale(0.015625)"/>
       <path id="ArialMT-65" d="M 2694 1069 
L 3275 997 
Q 3138 488 2766 206 
Q 2394 -75 1816 -75 
Q 1088 -75 661 373 
Q 234 822 234 1631 
Q 234 2469 665 2931 
Q 1097 3394 1784 3394 
Q 2450 3394 2872 2941 
Q 3294 2488 3294 1666 
Q 3294 1616 3291 1516 
L 816 1516 
Q 847 969 1125 678 
Q 1403 388 1819 388 
Q 2128 388 2347 550 
Q 2566 713 2694 1069 
z
M 847 1978 
L 2700 1978 
Q 2663 2397 2488 2606 
Q 2219 2931 1791 2931 
Q 1403 2931 1139 2672 
Q 875 2413 847 1978 
z
" transform="scale(0.015625)"/>
      </defs>
      <use xlink:href="#ArialMT-54"/>
      <use xlink:href="#ArialMT-69" transform="translate(57.333984 0)"/>
      <use xlink:href="#ArialMT-6d" transform="translate(79.550781 0)"/>
      <use xlink:href="#ArialMT-65" transform="translate(162.851562 0)"/>
     </g>
    </g>
   </g>
   <g id="matplotlib.axis_2">
    <g id="ytick_1">
     <g id="line2d_1">
      <defs>
       <path id="m724e875b4c" d="M 0 0 
L -3 0 
" style="stroke: #e04f39; stroke-width: 0.8"/>
      </defs>
      <g>
       <use xlink:href="#m724e875b4c" x="31.7" y="146.196" style="fill: #e04f39; stroke: #e04f39; stroke-width: 0.8"/>
      </g>
     </g>
     <g id="text_2">
      <!-- 0 -->
      <g style="fill: #e04f39" transform="translate(20.75125 149.059125) scale(0.08 -0.08)">
       <defs>
        <path id="ArialMT-30" d="M 266 2259 
Q 266 3072 433 3567 
Q 600 4063 929 4331 
Q 1259 4600 1759 4600 
Q 2128 4600 2406 4451 
Q 2684 4303 2865 4023 
Q 3047 3744 3150 3342 
Q 3253 2941 3253 2259 
Q 3253 1453 3087 958 
Q 2922 463 2592 192 
Q 2263 -78 1759 -78 
Q 1097 -78 719 397 
Q 266 969 266 2259 
z
M 844 2259 
Q 844 1131 1108 757 
Q 1372 384 1759 384 
Q 2147 384 2411 759 
Q 2675 1134 2675 2259 
Q 2675 3391 2411 3762 
Q 2147 4134 1753 4134 
Q 1366 4134 1134 3806 
Q 844 3388 844 2259 
z
" transform="scale(0.015625)"/>
       </defs>
       <use xlink:href="#ArialMT-30"/>
      </g>
     </g>
    </g>
    <g id="ytick_2">
     <g id="line2d_2">
      <g>
       <use xlink:href="#m724e875b4c" x="31.7" y="43.236" style="fill: #e04f39; stroke: #e04f39; stroke-width: 0.8"/>
      </g>
     </g>
     <g id="text_3">
      <!-- $I_0$ -->
      <g style="fill: #e04f39" transform="translate(19.04 46.099125) scale(0.08 -0.08)">
       <defs>
        <path id="DejaVuSans-Oblique-49" d="M 1081 4666 
L 1716 4666 
L 806 0 
L 172 0 
L 1081 4666 
z
" transform="scale(0.015625)"/>
        <path id="DejaVuSans-30" d="M 2034 4250 
Q 1547 4250 1301 3770 
Q 1056 3291 1056 2328 
Q 1056 1369 1301 889 
Q 1547 409 2034 409 
Q 2525 409 2770 889 
Q 3016 1369 3016 2328 
Q 3016 3291 2770 3770 
Q 2525 4250 2034 4250 
z
M 2034 4750 
Q 2819 4750 3233 4129 
Q 3647 3509 3647 2328 
Q 3647 1150 3233 529 
Q 2819 -91 2034 -91 
Q 1250 -91 836 529 
Q 422 1150 422 2328 
Q 422 3509 836 4129 
Q 1250 4750 2034 4750 
z
" transform="scale(0.015625)"/>
       </defs>
       <use xlink:href="#DejaVuSans-Oblique-49" transform="translate(0 0.09375)"/>
       <use xlink:href="#DejaVuSans-30" transform="translate(29.492188 -16.3125) scale(0.7)"/>
      </g>
     </g>
    </g>
    <g id="text_4">
     <!-- Intensity  $I(t)$ -->
     <g style="fill: #e04f39" transform="translate(13.28 102.272) rotate(-90) scale(0.08 -0.08)">
      <defs>
       <path id="ArialMT-49" d="M 597 0 
L 597 4581 
L 1203 4581 
L 1203 0 
L 597 0 
z
" transform="scale(0.015625)"/>
       <path id="ArialMT-6e" d="M 422 0 
L 422 3319 
L 928 3319 
L 928 2847 
Q 1294 3394 1984 3394 
Q 2284 3394 2536 3286 
Q 2788 3178 2913 3003 
Q 3038 2828 3088 2588 
Q 3119 2431 3119 2041 
L 3119 0 
L 2556 0 
L 2556 2019 
Q 2556 2363 2490 2533 
Q 2425 2703 2258 2804 
Q 2091 2906 1866 2906 
Q 1506 2906 1245 2678 
Q 984 2450 984 1813 
L 984 0 
L 422 0 
z
" transform="scale(0.015625)"/>
       <path id="ArialMT-74" d="M 1650 503 
L 1731 6 
Q 1494 -44 1306 -44 
Q 1000 -44 831 53 
Q 663 150 594 308 
Q 525 466 525 972 
L 525 2881 
L 113 2881 
L 113 3319 
L 525 3319 
L 525 4141 
L 1084 4478 
L 1084 3319 
L 1650 3319 
L 1650 2881 
L 1084 2881 
L 1084 941 
Q 1084 700 1114 631 
Q 1144 563 1211 522 
Q 1278 481 1403 481 
Q 1497 481 1650 503 
z
" transform="scale(0.015625)"/>
       <path id="ArialMT-73" d="M 197 991 
L 753 1078 
Q 800 744 1014 566 
Q 1228 388 1613 388 
Q 2000 388 2187 545 
Q 2375 703 2375 916 
Q 2375 1106 2209 1216 
Q 2094 1291 1634 1406 
Q 1016 1563 777 1677 
Q 538 1791 414 1992 
Q 291 2194 291 2438 
Q 291 2659 392 2848 
Q 494 3038 669 3163 
Q 800 3259 1026 3326 
Q 1253 3394 1513 3394 
Q 1903 3394 2198 3281 
Q 2494 3169 2634 2976 
Q 2775 2784 2828 2463 
L 2278 2388 
Q 2241 2644 2061 2787 
Q 1881 2931 1553 2931 
Q 1166 2931 1000 2803 
Q 834 2675 834 2503 
Q 834 2394 903 2306 
Q 972 2216 1119 2156 
Q 1203 2125 1616 2013 
Q 2213 1853 2448 1751 
Q 2684 1650 2818 1456 
Q 2953 1263 2953 975 
Q 2953 694 2789 445 
Q 2625 197 2315 61 
Q 2006 -75 1616 -75 
Q 969 -75 630 194 
Q 291 463 197 991 
z
" transform="scale(0.015625)"/>
       <path id="ArialMT-79" d="M 397 -1278 
L 334 -750 
Q 519 -800 656 -800 
Q 844 -800 956 -737 
Q 1069 -675 1141 -563 
Q 1194 -478 1313 -144 
Q 1328 -97 1363 -6 
L 103 3319 
L 709 3319 
L 1400 1397 
Q 1534 1031 1641 628 
Q 1738 1016 1872 1384 
L 2581 3319 
L 3144 3319 
L 1881 -56 
Q 1678 -603 1566 -809 
Q 1416 -1088 1222 -1217 
Q 1028 -1347 759 -1347 
Q 597 -1347 397 -1278 
z
" transform="scale(0.015625)"/>
       <path id="ArialMT-20" transform="scale(0.015625)"/>
       <path id="DejaVuSans-28" d="M 1984 4856 
Q 1566 4138 1362 3434 
Q 1159 2731 1159 2009 
Q 1159 1288 1364 580 
Q 1569 -128 1984 -844 
L 1484 -844 
Q 1016 -109 783 600 
Q 550 1309 550 2009 
Q 550 2706 781 3412 
Q 1013 4119 1484 4856 
L 1984 4856 
z
" transform="scale(0.015625)"/>
       <path id="DejaVuSans-Oblique-74" d="M 2706 3500 
L 2619 3053 
L 1472 3053 
L 1100 1153 
Q 1081 1047 1072 975 
Q 1063 903 1063 863 
Q 1063 663 1183 572 
Q 1303 481 1569 481 
L 2150 481 
L 2053 0 
L 1503 0 
Q 991 0 739 200 
Q 488 400 488 806 
Q 488 878 497 964 
Q 506 1050 525 1153 
L 897 3053 
L 409 3053 
L 500 3500 
L 978 3500 
L 1172 4494 
L 1747 4494 
L 1556 3500 
L 2706 3500 
z
" transform="scale(0.015625)"/>
       <path id="DejaVuSans-29" d="M 513 4856 
L 1013 4856 
Q 1481 4119 1714 3412 
Q 1947 2706 1947 2009 
Q 1947 1309 1714 600 
Q 1481 -109 1013 -844 
L 513 -844 
Q 928 -128 1133 580 
Q 1338 1288 1338 2009 
Q 1338 2731 1133 3434 
Q 928 4138 513 4856 
z
" transform="scale(0.015625)"/>
      </defs>
      <use xlink:href="#ArialMT-49" transform="translate(0 0.125)"/>
      <use xlink:href="#ArialMT-6e" transform="translate(27.783203 0.125)"/>
      <use xlink:href="#ArialMT-74" transform="translate(83.398438 0.125)"/>
      <use xlink:href="#ArialMT-65" transform="translate(111.181641 0.125)"/>
      <use xlink:href="#ArialMT-6e" transform="translate(166.796875 0.125)"/>
      <use xlink:href="#ArialMT-73" transform="translate(222.412109 0.125)"/>
      <use xlink:href="#ArialMT-69" transform="translate(272.412109 0.125)"/>
      <use xlink:href="#ArialMT-74" transform="translate(294.628906 0.125)"/>
      <use xlink:href="#ArialMT-79" transform="translate(322.412109 0.125)"/>
      <use xlink:href="#ArialMT-20" transform="translate(372.412109 0.125)"/>
      <use xlink:href="#ArialMT-20" transform="translate(400.195312 0.125)"/>
      <use xlink:href="#DejaVuSans-Oblique-49" transform="translate(427.978516 0.125)"/>
      <use xlink:href="#DejaVuSans-28" transform="translate(457.470703 0.125)"/>
      <use xlink:href="#DejaVuSans-Oblique-74" transform="translate(496.484375 0.125)"/>
      <use xlink:href="#DejaVuSans-29" transform="translate(535.693359 0.125)"/>
     </g>
    </g>
   </g>
   <g id="line2d_3">
    <path d="M 31.7 146.178226 
L 48.121622 146.025959 
L 56.097838 145.745605 
L 61.728108 145.342475 
L 66.42 144.785747 
L 70.173514 144.130266 
L 73.692432 143.28878 
L 76.742162 142.335848 
L 79.557297 141.233103 
L 82.137838 140.002214 
L 84.718378 138.530732 
L 87.298919 136.789052 
L 89.644865 134.946863 
L 91.990811 132.837018 
L 94.336757 130.441261 
L 96.682703 127.744457 
L 99.263243 124.417273 
L 101.843784 120.705256 
L 104.424324 116.610236 
L 107.239459 111.721152 
L 110.289189 105.965506 
L 113.808108 98.816559 
L 118.265405 89.202635 
L 128.118378 67.754607 
L 131.168108 61.726608 
L 133.748649 57.086274 
L 136.094595 53.326679 
L 138.205946 50.378298 
L 140.082703 48.143208 
L 141.724865 46.50893 
L 143.367027 45.191739 
L 144.774595 44.325185 
L 146.182162 43.707772 
L 147.58973 43.344101 
L 148.997297 43.236894 
L 150.404865 43.386953 
L 151.812432 43.793154 
L 153.22 44.452461 
L 154.627568 45.359962 
L 156.035135 46.50893 
L 157.677297 48.143208 
L 159.319459 50.07836 
L 161.196216 52.633947 
L 163.307568 55.908845 
L 165.653514 59.984068 
L 168.234054 64.90938 
L 171.518378 71.684303 
L 176.444865 82.450794 
L 183.717297 98.323703 
L 187.470811 105.965506 
L 190.755135 112.144732 
L 193.57027 116.998091 
L 196.385405 121.408844 
L 198.965946 125.050737 
L 201.546486 128.308498 
L 204.127027 131.19098 
L 206.707568 133.714302 
L 209.288108 135.900178 
L 211.868649 137.774323 
L 214.449189 139.364966 
L 217.02973 140.701547 
L 219.844865 141.904556 
L 222.894595 142.949335 
L 226.178919 143.82326 
L 229.697838 144.525776 
L 233.685946 145.095057 
L 238.377838 145.53887 
L 244.242703 145.864455 
L 252.453514 146.077718 
L 266.06 146.178226 
L 266.06 146.178226 
" clip-path="url(#p63a9c7c81b)" style="fill: none; stroke: #e04f39; stroke-width: 2.2; stroke-linecap: square"/>
   </g>
   <g id="patch_3">
    <path d="M 31.7 151.344 
L 31.7 7.2 
" style="fill: none; stroke: #e04f39; stroke-width: 0.8; stroke-linejoin: miter; stroke-linecap: square"/>
   </g>
   <g id="patch_4">
    <path d="M 31.7 151.344 
L 266.06 151.344 
" style="fill: none; stroke: #cccccc; stroke-width: 0.8; stroke-linejoin: miter; stroke-linecap: square"/>
   </g>
   <g id="text_5">
    <g id="patch_5">
     <path d="M 115.0075 23.1348 
L 182.7525 23.1348 
Q 185.3025 23.1348 185.3025 20.5848 
L 185.3025 7.8348 
Q 185.3025 5.2848 182.7525 5.2848 
L 115.0075 5.2848 
Q 112.4575 5.2848 112.4575 7.8348 
L 112.4575 20.5848 
Q 112.4575 23.1348 115.0075 23.1348 
z
" style="fill: #ffffff; stroke: #cccccc; stroke-width: 0.7; stroke-linejoin: miter"/>
    </g>
    <!-- $\delta\omega(t) = -\frac{n_2\,\omega_0\,L}{c}\frac{dI}{dt}$ -->
    <g style="fill: #44546a" transform="translate(115.0075 17.0148) scale(0.085 -0.085)">
     <defs>
      <path id="DejaVuSans-Oblique-3b4" d="M 3472 4053 
Q 3197 4272 2450 4272 
Q 1659 4272 1588 3906 
Q 1531 3619 2328 3469 
Q 2953 3353 3253 3003 
Q 3616 2581 3447 1716 
Q 3284 888 2763 400 
Q 2238 -91 1488 -91 
Q 741 -91 406 400 
Q 72 888 241 1747 
Q 363 2384 891 2900 
Q 1097 3100 1353 3213 
Q 913 3459 1000 3900 
Q 1166 4750 2544 4750 
Q 3234 4750 3566 4531 
L 3472 4053 
z
M 1753 3056 
Q 1525 2966 1306 2738 
Q 969 2384 847 1747 
Q 722 1113 919 756 
Q 1119 397 1584 397 
Q 2044 397 2381 759 
Q 2722 1122 2838 1716 
Q 2956 2338 2731 2638 
Q 2491 2959 2103 2994 
Q 1906 3013 1753 3056 
z
" transform="scale(0.015625)"/>
      <path id="DejaVuSans-Oblique-3c9" d="M 1369 -91 
Q 72 -91 434 1766 
Q 575 2500 1256 3500 
L 1875 3500 
Q 1231 2500 1088 1750 
Q 819 397 1519 397 
Q 2166 397 2478 2078 
L 3009 2078 
Q 2669 388 3316 397 
Q 4013 403 4275 1750 
Q 4419 2500 4169 3500 
L 4788 3500 
Q 5075 2500 4934 1766 
Q 4578 -94 3278 -91 
Q 2428 -88 2503 844 
Q 2194 -91 1369 -91 
z
" transform="scale(0.015625)"/>
      <path id="DejaVuSans-3d" d="M 678 2906 
L 4684 2906 
L 4684 2381 
L 678 2381 
L 678 2906 
z
M 678 1631 
L 4684 1631 
L 4684 1100 
L 678 1100 
L 678 1631 
z
" transform="scale(0.015625)"/>
      <path id="DejaVuSans-2212" d="M 678 2272 
L 4684 2272 
L 4684 1741 
L 678 1741 
L 678 2272 
z
" transform="scale(0.015625)"/>
      <path id="DejaVuSans-Oblique-6e" d="M 3566 2113 
L 3156 0 
L 2578 0 
L 2988 2091 
Q 3016 2238 3031 2350 
Q 3047 2463 3047 2528 
Q 3047 2791 2881 2937 
Q 2716 3084 2419 3084 
Q 1956 3084 1622 2776 
Q 1288 2469 1184 1941 
L 800 0 
L 225 0 
L 903 3500 
L 1478 3500 
L 1363 2950 
Q 1603 3253 1940 3418 
Q 2278 3584 2650 3584 
Q 3113 3584 3367 3334 
Q 3622 3084 3622 2631 
Q 3622 2519 3608 2391 
Q 3594 2263 3566 2113 
z
" transform="scale(0.015625)"/>
      <path id="DejaVuSans-32" d="M 1228 531 
L 3431 531 
L 3431 0 
L 469 0 
L 469 531 
Q 828 903 1448 1529 
Q 2069 2156 2228 2338 
Q 2531 2678 2651 2914 
Q 2772 3150 2772 3378 
Q 2772 3750 2511 3984 
Q 2250 4219 1831 4219 
Q 1534 4219 1204 4116 
Q 875 4013 500 3803 
L 500 4441 
Q 881 4594 1212 4672 
Q 1544 4750 1819 4750 
Q 2544 4750 2975 4387 
Q 3406 4025 3406 3419 
Q 3406 3131 3298 2873 
Q 3191 2616 2906 2266 
Q 2828 2175 2409 1742 
Q 1991 1309 1228 531 
z
" transform="scale(0.015625)"/>
      <path id="DejaVuSans-Oblique-4c" d="M 1075 4666 
L 1709 4666 
L 909 525 
L 3181 525 
L 3078 0 
L 172 0 
L 1075 4666 
z
" transform="scale(0.015625)"/>
      <path id="DejaVuSans-Oblique-63" d="M 3431 3366 
L 3316 2797 
Q 3109 2947 2876 3022 
Q 2644 3097 2394 3097 
Q 2119 3097 1870 3000 
Q 1622 2903 1453 2725 
Q 1184 2453 1037 2087 
Q 891 1722 891 1331 
Q 891 859 1127 628 
Q 1363 397 1844 397 
Q 2081 397 2348 469 
Q 2616 541 2906 684 
L 2797 116 
Q 2547 13 2283 -39 
Q 2019 -91 1741 -91 
Q 1044 -91 669 257 
Q 294 606 294 1253 
Q 294 1797 489 2255 
Q 684 2713 1069 3078 
Q 1331 3328 1684 3456 
Q 2038 3584 2456 3584 
Q 2700 3584 2940 3529 
Q 3181 3475 3431 3366 
z
" transform="scale(0.015625)"/>
      <path id="DejaVuSans-Oblique-64" d="M 2675 525 
Q 2444 222 2128 65 
Q 1813 -91 1428 -91 
Q 903 -91 598 267 
Q 294 625 294 1247 
Q 294 1766 478 2236 
Q 663 2706 1013 3078 
Q 1244 3325 1534 3454 
Q 1825 3584 2144 3584 
Q 2481 3584 2739 3421 
Q 2997 3259 3138 2956 
L 3513 4863 
L 4091 4863 
L 3144 0 
L 2566 0 
L 2675 525 
z
M 891 1350 
Q 891 897 1095 644 
Q 1300 391 1663 391 
Q 1931 391 2161 520 
Q 2391 650 2566 903 
Q 2750 1166 2856 1509 
Q 2963 1853 2963 2188 
Q 2963 2622 2758 2865 
Q 2553 3109 2194 3109 
Q 1922 3109 1687 2981 
Q 1453 2853 1288 2613 
Q 1106 2353 998 2009 
Q 891 1666 891 1350 
z
" transform="scale(0.015625)"/>
     </defs>
     <use xlink:href="#DejaVuSans-Oblique-3b4" transform="translate(0 0.987656)"/>
     <use xlink:href="#DejaVuSans-Oblique-3c9" transform="translate(61.181641 0.987656)"/>
     <use xlink:href="#DejaVuSans-28" transform="translate(144.921875 0.987656)"/>
     <use xlink:href="#DejaVuSans-Oblique-74" transform="translate(183.935547 0.987656)"/>
     <use xlink:href="#DejaVuSans-29" transform="translate(223.144531 0.987656)"/>
     <use xlink:href="#DejaVuSans-3d" transform="translate(281.640625 0.987656)"/>
     <use xlink:href="#DejaVuSans-2212" transform="translate(384.912109 0.987656)"/>
     <use xlink:href="#DejaVuSans-Oblique-6e" transform="translate(468.701172 56.965625) scale(0.7)"/>
     <use xlink:href="#DejaVuSans-32" transform="translate(513.066406 45.48125) scale(0.49)"/>
     <use xlink:href="#DejaVuSans-Oblique-3c9" transform="translate(557.520735 56.965625) scale(0.7)"/>
     <use xlink:href="#DejaVuSans-30" transform="translate(616.138899 45.48125) scale(0.49)"/>
     <use xlink:href="#DejaVuSans-Oblique-4c" transform="translate(660.593228 56.965625) scale(0.7)"/>
     <use xlink:href="#DejaVuSans-Oblique-63" transform="translate(564.701172 -25.665469) scale(0.7)"/>
     <use xlink:href="#DejaVuSans-Oblique-64" transform="translate(715.092251 45.779844) scale(0.7)"/>
     <use xlink:href="#DejaVuSans-Oblique-49" transform="translate(759.525845 45.779844) scale(0.7)"/>
     <use xlink:href="#DejaVuSans-Oblique-64" transform="translate(712.092251 -39.654531) scale(0.7)"/>
     <use xlink:href="#DejaVuSans-Oblique-74" transform="translate(756.525845 -39.654531) scale(0.7)"/>
     <path d="M 468.701172 19.784531 
L 468.701172 26.034531 
L 699.592251 26.034531 
L 699.592251 19.784531 
L 468.701172 19.784531 
z
"/>
     <path d="M 712.092251 19.784531 
L 712.092251 26.034531 
L 783.972134 26.034531 
L 783.972134 19.784531 
L 712.092251 19.784531 
z
"/>
    </g>
   </g>
  </g>
  <g id="axes_2">
   <g id="matplotlib.axis_3">
    <g id="ytick_3">
     <g id="line2d_4">
      <defs>
       <path id="m86ee82dff5" d="M 0 0 
L 3 0 
" style="stroke: #4298b5; stroke-width: 0.8"/>
      </defs>
      <g>
       <use xlink:href="#m86ee82dff5" x="266.06" y="127.32" style="fill: #4298b5; stroke: #4298b5; stroke-width: 0.8"/>
      </g>
     </g>
     <g id="text_6">
      <!-- red -->
      <g style="fill: #4298b5" transform="translate(272.56 130.00418) scale(0.075 -0.075)">
       <defs>
        <path id="ArialMT-72" d="M 416 0 
L 416 3319 
L 922 3319 
L 922 2816 
Q 1116 3169 1280 3281 
Q 1444 3394 1641 3394 
Q 1925 3394 2219 3213 
L 2025 2691 
Q 1819 2813 1613 2813 
Q 1428 2813 1281 2702 
Q 1134 2591 1072 2394 
Q 978 2094 978 1738 
L 978 0 
L 416 0 
z
" transform="scale(0.015625)"/>
        <path id="ArialMT-64" d="M 2575 0 
L 2575 419 
Q 2259 -75 1647 -75 
Q 1250 -75 917 144 
Q 584 363 401 755 
Q 219 1147 219 1656 
Q 219 2153 384 2558 
Q 550 2963 881 3178 
Q 1213 3394 1622 3394 
Q 1922 3394 2156 3267 
Q 2391 3141 2538 2938 
L 2538 4581 
L 3097 4581 
L 3097 0 
L 2575 0 
z
M 797 1656 
Q 797 1019 1065 703 
Q 1334 388 1700 388 
Q 2069 388 2326 689 
Q 2584 991 2584 1609 
Q 2584 2291 2321 2609 
Q 2059 2928 1675 2928 
Q 1300 2928 1048 2622 
Q 797 2316 797 1656 
z
" transform="scale(0.015625)"/>
       </defs>
       <use xlink:href="#ArialMT-72"/>
       <use xlink:href="#ArialMT-65" transform="translate(33.300781 0)"/>
       <use xlink:href="#ArialMT-64" transform="translate(88.916016 0)"/>
      </g>
     </g>
    </g>
    <g id="ytick_4">
     <g id="line2d_5">
      <g>
       <use xlink:href="#m86ee82dff5" x="266.06" y="79.272" style="fill: #4298b5; stroke: #4298b5; stroke-width: 0.8"/>
      </g>
     </g>
     <g id="text_7">
      <!-- 0 -->
      <g style="fill: #4298b5" transform="translate(272.56 81.95618) scale(0.075 -0.075)">
       <use xlink:href="#ArialMT-30"/>
      </g>
     </g>
    </g>
    <g id="ytick_5">
     <g id="line2d_6">
      <g>
       <use xlink:href="#m86ee82dff5" x="266.06" y="31.224" style="fill: #4298b5; stroke: #4298b5; stroke-width: 0.8"/>
      </g>
     </g>
     <g id="text_8">
      <!-- blue -->
      <g style="fill: #4298b5" transform="translate(272.56 33.90818) scale(0.075 -0.075)">
       <defs>
        <path id="ArialMT-62" d="M 941 0 
L 419 0 
L 419 4581 
L 981 4581 
L 981 2947 
Q 1338 3394 1891 3394 
Q 2197 3394 2470 3270 
Q 2744 3147 2920 2923 
Q 3097 2700 3197 2384 
Q 3297 2069 3297 1709 
Q 3297 856 2875 390 
Q 2453 -75 1863 -75 
Q 1275 -75 941 416 
L 941 0 
z
M 934 1684 
Q 934 1088 1097 822 
Q 1363 388 1816 388 
Q 2184 388 2453 708 
Q 2722 1028 2722 1663 
Q 2722 2313 2464 2622 
Q 2206 2931 1841 2931 
Q 1472 2931 1203 2611 
Q 934 2291 934 1684 
z
" transform="scale(0.015625)"/>
        <path id="ArialMT-6c" d="M 409 0 
L 409 4581 
L 972 4581 
L 972 0 
L 409 0 
z
" transform="scale(0.015625)"/>
        <path id="ArialMT-75" d="M 2597 0 
L 2597 488 
Q 2209 -75 1544 -75 
Q 1250 -75 995 37 
Q 741 150 617 320 
Q 494 491 444 738 
Q 409 903 409 1263 
L 409 3319 
L 972 3319 
L 972 1478 
Q 972 1038 1006 884 
Q 1059 663 1231 536 
Q 1403 409 1656 409 
Q 1909 409 2131 539 
Q 2353 669 2445 892 
Q 2538 1116 2538 1541 
L 2538 3319 
L 3100 3319 
L 3100 0 
L 2597 0 
z
" transform="scale(0.015625)"/>
       </defs>
       <use xlink:href="#ArialMT-62"/>
       <use xlink:href="#ArialMT-6c" transform="translate(55.615234 0)"/>
       <use xlink:href="#ArialMT-75" transform="translate(77.832031 0)"/>
       <use xlink:href="#ArialMT-65" transform="translate(133.447266 0)"/>
      </g>
     </g>
    </g>
    <g id="text_9">
     <!-- Freq. shift  $\delta\omega(t)$ -->
     <g style="fill: #4298b5" transform="translate(296.818516 109.792) rotate(-90) scale(0.08 -0.08)">
      <defs>
       <path id="ArialMT-46" d="M 525 0 
L 525 4581 
L 3616 4581 
L 3616 4041 
L 1131 4041 
L 1131 2622 
L 3281 2622 
L 3281 2081 
L 1131 2081 
L 1131 0 
L 525 0 
z
" transform="scale(0.015625)"/>
       <path id="ArialMT-71" d="M 2538 -1272 
L 2538 353 
Q 2406 169 2170 47 
Q 1934 -75 1669 -75 
Q 1078 -75 651 397 
Q 225 869 225 1691 
Q 225 2191 398 2587 
Q 572 2984 901 3189 
Q 1231 3394 1625 3394 
Q 2241 3394 2594 2875 
L 2594 3319 
L 3100 3319 
L 3100 -1272 
L 2538 -1272 
z
M 803 1669 
Q 803 1028 1072 708 
Q 1341 388 1716 388 
Q 2075 388 2334 692 
Q 2594 997 2594 1619 
Q 2594 2281 2320 2615 
Q 2047 2950 1678 2950 
Q 1313 2950 1058 2639 
Q 803 2328 803 1669 
z
" transform="scale(0.015625)"/>
       <path id="ArialMT-2e" d="M 581 0 
L 581 641 
L 1222 641 
L 1222 0 
L 581 0 
z
" transform="scale(0.015625)"/>
       <path id="ArialMT-68" d="M 422 0 
L 422 4581 
L 984 4581 
L 984 2938 
Q 1378 3394 1978 3394 
Q 2347 3394 2619 3248 
Q 2891 3103 3008 2847 
Q 3125 2591 3125 2103 
L 3125 0 
L 2563 0 
L 2563 2103 
Q 2563 2525 2380 2717 
Q 2197 2909 1863 2909 
Q 1613 2909 1392 2779 
Q 1172 2650 1078 2428 
Q 984 2206 984 1816 
L 984 0 
L 422 0 
z
" transform="scale(0.015625)"/>
       <path id="ArialMT-66" d="M 556 0 
L 556 2881 
L 59 2881 
L 59 3319 
L 556 3319 
L 556 3672 
Q 556 4006 616 4169 
Q 697 4388 901 4523 
Q 1106 4659 1475 4659 
Q 1713 4659 2000 4603 
L 1916 4113 
Q 1741 4144 1584 4144 
Q 1328 4144 1222 4034 
Q 1116 3925 1116 3625 
L 1116 3319 
L 1763 3319 
L 1763 2881 
L 1116 2881 
L 1116 0 
L 556 0 
z
" transform="scale(0.015625)"/>
      </defs>
      <use xlink:href="#ArialMT-46" transform="translate(0 0.125)"/>
      <use xlink:href="#ArialMT-72" transform="translate(61.083984 0.125)"/>
      <use xlink:href="#ArialMT-65" transform="translate(94.384766 0.125)"/>
      <use xlink:href="#ArialMT-71" transform="translate(150 0.125)"/>
      <use xlink:href="#ArialMT-2e" transform="translate(205.615234 0.125)"/>
      <use xlink:href="#ArialMT-20" transform="translate(233.398438 0.125)"/>
      <use xlink:href="#ArialMT-73" transform="translate(261.181641 0.125)"/>
      <use xlink:href="#ArialMT-68" transform="translate(311.181641 0.125)"/>
      <use xlink:href="#ArialMT-69" transform="translate(366.796875 0.125)"/>
      <use xlink:href="#ArialMT-66" transform="translate(389.013672 0.125)"/>
      <use xlink:href="#ArialMT-74" transform="translate(416.796875 0.125)"/>
      <use xlink:href="#ArialMT-20" transform="translate(444.580078 0.125)"/>
      <use xlink:href="#ArialMT-20" transform="translate(472.363281 0.125)"/>
      <use xlink:href="#DejaVuSans-Oblique-3b4" transform="translate(500.146484 0.125)"/>
      <use xlink:href="#DejaVuSans-Oblique-3c9" transform="translate(561.328125 0.125)"/>
      <use xlink:href="#DejaVuSans-28" transform="translate(645.068359 0.125)"/>
      <use xlink:href="#DejaVuSans-Oblique-74" transform="translate(684.082031 0.125)"/>
      <use xlink:href="#DejaVuSans-29" transform="translate(723.291016 0.125)"/>
     </g>
    </g>
   </g>
   <g id="line2d_7">
    <path d="M 31.7 79.329871 
L 41.318378 79.47645 
L 48.825405 79.780474 
L 54.221081 80.205459 
L 58.678378 80.768048 
L 62.431892 81.450643 
L 65.950811 82.316167 
L 69.000541 83.283065 
L 72.05027 84.487787 
L 74.865405 85.840637 
L 77.680541 87.450214 
L 80.495676 89.337116 
L 83.310811 91.515317 
L 86.125946 93.989523 
L 88.941081 96.752428 
L 91.990811 100.045479 
L 95.744324 104.450843 
L 101.843784 112.044873 
L 106.301081 117.44329 
L 109.116216 120.534197 
L 111.462162 122.799207 
L 113.573514 124.521464 
L 115.45027 125.749458 
L 117.092432 126.556087 
L 118.5 127.027648 
L 119.907568 127.280191 
L 121.315135 127.299924 
L 122.722703 127.07471 
L 124.13027 126.594313 
L 125.537838 125.850616 
L 126.945405 124.837827 
L 128.352973 123.55265 
L 129.995135 121.708291 
L 131.637297 119.496117 
L 133.279459 116.925079 
L 135.156216 113.565832 
L 137.267568 109.286034 
L 139.613514 103.97437 
L 142.194054 97.564253 
L 145.478378 88.775187 
L 156.738919 58.000802 
L 159.319459 51.845689 
L 161.665405 46.817614 
L 163.776757 42.827308 
L 165.653514 39.74637 
L 167.295676 37.430519 
L 168.937838 35.480464 
L 170.58 33.901403 
L 171.987568 32.843375 
L 173.395135 32.055166 
L 174.802703 31.531389 
L 176.21027 31.264301 
L 177.617838 31.244003 
L 179.025405 31.45866 
L 180.432973 31.894739 
L 182.075135 32.663296 
L 183.717297 33.686995 
L 185.594054 35.134114 
L 187.705405 37.064505 
L 190.051351 39.512449 
L 193.101081 43.03844 
L 198.027568 49.146506 
L 203.892432 56.337431 
L 207.411351 60.308083 
L 210.461081 63.437451 
L 213.276216 66.03362 
L 216.091351 68.335212 
L 218.906486 70.34226 
L 221.721622 72.065209 
L 224.536757 73.522203 
L 227.351892 74.736575 
L 230.401622 75.808894 
L 233.685946 76.719755 
L 237.204865 77.462206 
L 241.192973 78.07141 
L 245.884865 78.5517 
L 251.515135 78.897031 
L 259.256757 79.129544 
L 266.06 79.214129 
L 266.06 79.214129 
" clip-path="url(#p63a9c7c81b)" style="fill: none; stroke-dasharray: 8.14,3.52; stroke-dashoffset: 0; stroke: #4298b5; stroke-width: 2.2"/>
   </g>
   <g id="line2d_8">
    <path d="M 31.7 79.272 
L 266.06 79.272 
" clip-path="url(#p63a9c7c81b)" style="fill: none; stroke-dasharray: 0.6,0.99; stroke-dashoffset: 0; stroke: #4298b5; stroke-opacity: 0.5; stroke-width: 0.6"/>
   </g>
   <g id="patch_6">
    <path d="M 266.06 151.344 
L 266.06 7.2 
" style="fill: none; stroke: #4298b5; stroke-width: 0.8; stroke-linejoin: miter; stroke-linecap: square"/>
   </g>
  </g>
 </g>
 <defs>
  <clipPath id="p63a9c7c81b">
   <rect x="31.7" y="7.2" width="234.36" height="144.144"/>
  </clipPath>
 </defs>
</svg>
