<?xml version="1.0" encoding="utf-8" standalone="no"?>
<!DOCTYPE svg PUBLIC "-//W3C//DTD SVG 1.1//EN"
  "http://www.w3.org/Graphics/SVG/1.1/DTD/svg11.dtd">
<svg xmlns:xlink="http://www.w3.org/1999/xlink" width="100.8pt" height="61.2pt" viewBox="0 0 100.8 61.2" xmlns="http://www.w3.org/2000/svg" version="1.1">
 <metadata>
  <rdf:RDF xmlns:dc="http://purl.org/dc/elements/1.1/" xmlns:cc="http://creativecommons.org/ns#" xmlns:rdf="http://www.w3.org/1999/02/22-rdf-syntax-ns#">
   <cc:Work>
    <dc:type rdf:resource="http://purl.org/dc/dcmitype/StillImage"/>
    <dc:date>2026-07-17T16:50:13.064583</dc:date>
    <dc:format>image/svg+xml</dc:format>
    <dc:creator>
     <cc:Agent>
      <dc:title>Matplotlib v3.11.0, https://matplotlib.org/</dc:title>
     </cc:Agent>
    </dc:creator>
   </cc:Work>
  </rdf:RDF>
 </metadata>
 <defs>
  <style type="text/css">*{stroke-linejoin: round; stroke-linecap: butt}</style>
 </defs>
 <g id="figure_1">
  <g id="patch_1">
   <path d="M 0 61.2 
L 100.8 61.2 
L 100.8 0 
L 0 0 
L 0 61.2 
z
" style="fill: none; opacity: 0"/>
  </g>
  <g id="axes_1">
   <g id="FillBetweenPolyCollection_1">
    <path d="M 0 61.019972 
L 0 61.2 
L 0.252632 61.2 
L 0.505263 61.2 
L 0.757895 61.2 
L 1.010526 61.2 
L 1.263158 61.2 
L 1.515789 61.2 
L 1.768421 61.2 
L 2.021053 61.2 
L 2.273684 61.2 
L 2.526316 61.2 
L 2.778947 61.2 
L 3.031579 61.2 
L 3.284211 61.2 
L 3.536842 61.2 
L 3.789474 61.2 
L 4.042105 61.2 
L 4.294737 61.2 
L 4.547368 61.2 
L 4.8 61.2 
L 5.052632 61.2 
L 5.305263 61.2 
L 5.557895 61.2 
L 5.810526 61.2 
L 6.063158 61.2 
L 6.315789 61.2 
L 6.568421 61.2 
L 6.821053 61.2 
L 7.073684 61.2 
L 7.326316 61.2 
L 7.578947 61.2 
L 7.831579 61.2 
L 8.084211 61.2 
L 8.336842 61.2 
L 8.589474 61.2 
L 8.842105 61.2 
L 9.094737 61.2 
L 9.347368 61.2 
L 9.6 61.2 
L 9.852632 61.2 
L 10.105263 61.2 
L 10.357895 61.2 
L 10.610526 61.2 
L 10.863158 61.2 
L 11.115789 61.2 
L 11.368421 61.2 
L 11.621053 61.2 
L 11.873684 61.2 
L 12.126316 61.2 
L 12.378947 61.2 
L 12.631579 61.2 
L 12.884211 61.2 
L 13.136842 61.2 
L 13.389474 61.2 
L 13.642105 61.2 
L 13.894737 61.2 
L 14.147368 61.2 
L 14.4 61.2 
L 14.652632 61.2 
L 14.905263 61.2 
L 15.157895 61.2 
L 15.410526 61.2 
L 15.663158 61.2 
L 15.915789 61.2 
L 16.168421 61.2 
L 16.421053 61.2 
L 16.673684 61.2 
L 16.926316 61.2 
L 17.178947 61.2 
L 17.431579 61.2 
L 17.684211 61.2 
L 17.936842 61.2 
L 18.189474 61.2 
L 18.442105 61.2 
L 18.694737 61.2 
L 18.947368 61.2 
L 19.2 61.2 
L 19.452632 61.2 
L 19.705263 61.2 
L 19.957895 61.2 
L 20.210526 61.2 
L 20.463158 61.2 
L 20.715789 61.2 
L 20.968421 61.2 
L 21.221053 61.2 
L 21.473684 61.2 
L 21.726316 61.2 
L 21.978947 61.2 
L 22.231579 61.2 
L 22.484211 61.2 
L 22.736842 61.2 
L 22.989474 61.2 
L 23.242105 61.2 
L 23.494737 61.2 
L 23.747368 61.2 
L 24 61.2 
L 24.252632 61.2 
L 24.505263 61.2 
L 24.757895 61.2 
L 25.010526 61.2 
L 25.263158 61.2 
L 25.515789 61.2 
L 25.768421 61.2 
L 26.021053 61.2 
L 26.273684 61.2 
L 26.526316 61.2 
L 26.778947 61.2 
L 27.031579 61.2 
L 27.284211 61.2 
L 27.536842 61.2 
L 27.789474 61.2 
L 28.042105 61.2 
L 28.294737 61.2 
L 28.547368 61.2 
L 28.8 61.2 
L 29.052632 61.2 
L 29.305263 61.2 
L 29.557895 61.2 
L 29.810526 61.2 
L 30.063158 61.2 
L 30.315789 61.2 
L 30.568421 61.2 
L 30.821053 61.2 
L 31.073684 61.2 
L 31.326316 61.2 
L 31.578947 61.2 
L 31.831579 61.2 
L 32.084211 61.2 
L 32.336842 61.2 
L 32.589474 61.2 
L 32.842105 61.2 
L 33.094737 61.2 
L 33.347368 61.2 
L 33.6 61.2 
L 33.852632 61.2 
L 34.105263 61.2 
L 34.357895 61.2 
L 34.610526 61.2 
L 34.863158 61.2 
L 35.115789 61.2 
L 35.368421 61.2 
L 35.621053 61.2 
L 35.873684 61.2 
L 36.126316 61.2 
L 36.378947 61.2 
L 36.631579 61.2 
L 36.884211 61.2 
L 37.136842 61.2 
L 37.389474 61.2 
L 37.642105 61.2 
L 37.894737 61.2 
L 38.147368 61.2 
L 38.4 61.2 
L 38.652632 61.2 
L 38.905263 61.2 
L 39.157895 61.2 
L 39.410526 61.2 
L 39.663158 61.2 
L 39.915789 61.2 
L 40.168421 61.2 
L 40.421053 61.2 
L 40.673684 61.2 
L 40.926316 61.2 
L 41.178947 61.2 
L 41.431579 61.2 
L 41.684211 61.2 
L 41.936842 61.2 
L 42.189474 61.2 
L 42.442105 61.2 
L 42.694737 61.2 
L 42.947368 61.2 
L 43.2 61.2 
L 43.452632 61.2 
L 43.705263 61.2 
L 43.957895 61.2 
L 44.210526 61.2 
L 44.463158 61.2 
L 44.715789 61.2 
L 44.968421 61.2 
L 45.221053 61.2 
L 45.473684 61.2 
L 45.726316 61.2 
L 45.978947 61.2 
L 46.231579 61.2 
L 46.484211 61.2 
L 46.736842 61.2 
L 46.989474 61.2 
L 47.242105 61.2 
L 47.494737 61.2 
L 47.747368 61.2 
L 48 61.2 
L 48.252632 61.2 
L 48.505263 61.2 
L 48.757895 61.2 
L 49.010526 61.2 
L 49.263158 61.2 
L 49.515789 61.2 
L 49.768421 61.2 
L 50.021053 61.2 
L 50.273684 61.2 
L 50.526316 61.2 
L 50.778947 61.2 
L 51.031579 61.2 
L 51.284211 61.2 
L 51.536842 61.2 
L 51.789474 61.2 
L 52.042105 61.2 
L 52.294737 61.2 
L 52.547368 61.2 
L 52.8 61.2 
L 53.052632 61.2 
L 53.305263 61.2 
L 53.557895 61.2 
L 53.810526 61.2 
L 54.063158 61.2 
L 54.315789 61.2 
L 54.568421 61.2 
L 54.821053 61.2 
L 55.073684 61.2 
L 55.326316 61.2 
L 55.578947 61.2 
L 55.831579 61.2 
L 56.084211 61.2 
L 56.336842 61.2 
L 56.589474 61.2 
L 56.842105 61.2 
L 57.094737 61.2 
L 57.347368 61.2 
L 57.6 61.2 
L 57.852632 61.2 
L 58.105263 61.2 
L 58.357895 61.2 
L 58.610526 61.2 
L 58.863158 61.2 
L 59.115789 61.2 
L 59.368421 61.2 
L 59.621053 61.2 
L 59.873684 61.2 
L 60.126316 61.2 
L 60.378947 61.2 
L 60.631579 61.2 
L 60.884211 61.2 
L 61.136842 61.2 
L 61.389474 61.2 
L 61.642105 61.2 
L 61.894737 61.2 
L 62.147368 61.2 
L 62.4 61.2 
L 62.652632 61.2 
L 62.905263 61.2 
L 63.157895 61.2 
L 63.410526 61.2 
L 63.663158 61.2 
L 63.915789 61.2 
L 64.168421 61.2 
L 64.421053 61.2 
L 64.673684 61.2 
L 64.926316 61.2 
L 65.178947 61.2 
L 65.431579 61.2 
L 65.684211 61.2 
L 65.936842 61.2 
L 66.189474 61.2 
L 66.442105 61.2 
L 66.694737 61.2 
L 66.947368 61.2 
L 67.2 61.2 
L 67.452632 61.2 
L 67.705263 61.2 
L 67.957895 61.2 
L 68.210526 61.2 
L 68.463158 61.2 
L 68.715789 61.2 
L 68.968421 61.2 
L 69.221053 61.2 
L 69.473684 61.2 
L 69.726316 61.2 
L 69.978947 61.2 
L 70.231579 61.2 
L 70.484211 61.2 
L 70.736842 61.2 
L 70.989474 61.2 
L 71.242105 61.2 
L 71.494737 61.2 
L 71.747368 61.2 
L 72 61.2 
L 72.252632 61.2 
L 72.505263 61.2 
L 72.757895 61.2 
L 73.010526 61.2 
L 73.263158 61.2 
L 73.515789 61.2 
L 73.768421 61.2 
L 74.021053 61.2 
L 74.273684 61.2 
L 74.526316 61.2 
L 74.778947 61.2 
L 75.031579 61.2 
L 75.284211 61.2 
L 75.536842 61.2 
L 75.789474 61.2 
L 76.042105 61.2 
L 76.294737 61.2 
L 76.547368 61.2 
L 76.8 61.2 
L 77.052632 61.2 
L 77.305263 61.2 
L 77.557895 61.2 
L 77.810526 61.2 
L 78.063158 61.2 
L 78.315789 61.2 
L 78.568421 61.2 
L 78.821053 61.2 
L 79.073684 61.2 
L 79.326316 61.2 
L 79.578947 61.2 
L 79.831579 61.2 
L 80.084211 61.2 
L 80.336842 61.2 
L 80.589474 61.2 
L 80.842105 61.2 
L 81.094737 61.2 
L 81.347368 61.2 
L 81.6 61.2 
L 81.852632 61.2 
L 82.105263 61.2 
L 82.357895 61.2 
L 82.610526 61.2 
L 82.863158 61.2 
L 83.115789 61.2 
L 83.368421 61.2 
L 83.621053 61.2 
L 83.873684 61.2 
L 84.126316 61.2 
L 84.378947 61.2 
L 84.631579 61.2 
L 84.884211 61.2 
L 85.136842 61.2 
L 85.389474 61.2 
L 85.642105 61.2 
L 85.894737 61.2 
L 86.147368 61.2 
L 86.4 61.2 
L 86.652632 61.2 
L 86.905263 61.2 
L 87.157895 61.2 
L 87.410526 61.2 
L 87.663158 61.2 
L 87.915789 61.2 
L 88.168421 61.2 
L 88.421053 61.2 
L 88.673684 61.2 
L 88.926316 61.2 
L 89.178947 61.2 
L 89.431579 61.2 
L 89.684211 61.2 
L 89.936842 61.2 
L 90.189474 61.2 
L 90.442105 61.2 
L 90.694737 61.2 
L 90.947368 61.2 
L 91.2 61.2 
L 91.452632 61.2 
L 91.705263 61.2 
L 91.957895 61.2 
L 92.210526 61.2 
L 92.463158 61.2 
L 92.715789 61.2 
L 92.968421 61.2 
L 93.221053 61.2 
L 93.473684 61.2 
L 93.726316 61.2 
L 93.978947 61.2 
L 94.231579 61.2 
L 94.484211 61.2 
L 94.736842 61.2 
L 94.989474 61.2 
L 95.242105 61.2 
L 95.494737 61.2 
L 95.747368 61.2 
L 96 61.2 
L 96.252632 61.2 
L 96.505263 61.2 
L 96.757895 61.2 
L 97.010526 61.2 
L 97.263158 61.2 
L 97.515789 61.2 
L 97.768421 61.2 
L 98.021053 61.2 
L 98.273684 61.2 
L 98.526316 61.2 
L 98.778947 61.2 
L 99.031579 61.2 
L 99.284211 61.2 
L 99.536842 61.2 
L 99.789474 61.2 
L 100.042105 61.2 
L 100.294737 61.2 
L 100.547368 61.2 
L 100.8 61.2 
L 100.8 61.019972 
L 100.8 61.019972 
L 100.547368 61.00926 
L 100.294737 60.997969 
L 100.042105 60.986072 
L 99.789474 60.97354 
L 99.536842 60.960344 
L 99.284211 60.946452 
L 99.031579 60.931833 
L 98.778947 60.916453 
L 98.526316 60.900279 
L 98.273684 60.883274 
L 98.021053 60.865401 
L 97.768421 60.846622 
L 97.515789 60.826898 
L 97.263158 60.806187 
L 97.010526 60.784447 
L 96.757895 60.761635 
L 96.505263 60.737704 
L 96.252632 60.712609 
L 96 60.686301 
L 95.747368 60.658729 
L 95.494737 60.629844 
L 95.242105 60.599591 
L 94.989474 60.567917 
L 94.736842 60.534766 
L 94.484211 60.500079 
L 94.231579 60.463797 
L 93.978947 60.425859 
L 93.726316 60.386202 
L 93.473684 60.344763 
L 93.221053 60.301474 
L 92.968421 60.256269 
L 92.715789 60.209077 
L 92.463158 60.159827 
L 92.210526 60.108446 
L 91.957895 60.054861 
L 91.705263 59.998993 
L 91.452632 59.940766 
L 91.2 59.880099 
L 90.947368 59.816911 
L 90.694737 59.75112 
L 90.442105 59.682639 
L 90.189474 59.611383 
L 89.936842 59.537264 
L 89.684211 59.460192 
L 89.431579 59.380076 
L 89.178947 59.296824 
L 88.926316 59.210341 
L 88.673684 59.120533 
L 88.421053 59.027302 
L 88.168421 58.930551 
L 87.915789 58.83018 
L 87.663158 58.726088 
L 87.410526 58.618174 
L 87.157895 58.506335 
L 86.905263 58.390467 
L 86.652632 58.270467 
L 86.4 58.146228 
L 86.147368 58.017645 
L 85.894737 57.884611 
L 85.642105 57.747019 
L 85.389474 57.604761 
L 85.136842 57.457729 
L 84.884211 57.305815 
L 84.631579 57.148911 
L 84.378947 56.986909 
L 84.126316 56.819701 
L 83.873684 56.64718 
L 83.621053 56.469238 
L 83.368421 56.285769 
L 83.115789 56.096667 
L 82.863158 55.901828 
L 82.610526 55.701147 
L 82.357895 55.494522 
L 82.105263 55.281852 
L 81.852632 55.063038 
L 81.6 54.837982 
L 81.347368 54.606587 
L 81.094737 54.368761 
L 80.842105 54.124412 
L 80.589474 53.873451 
L 80.336842 53.615792 
L 80.084211 53.351351 
L 79.831579 53.08005 
L 79.578947 52.801809 
L 79.326316 52.516557 
L 79.073684 52.224223 
L 78.821053 51.924743 
L 78.568421 51.618053 
L 78.315789 51.304097 
L 78.063158 50.982823 
L 77.810526 50.654181 
L 77.557895 50.31813 
L 77.305263 49.974631 
L 77.052632 49.623652 
L 76.8 49.265166 
L 76.547368 48.899152 
L 76.294737 48.525595 
L 76.042105 48.144487 
L 75.789474 47.755824 
L 75.536842 47.359611 
L 75.284211 46.955859 
L 75.031579 46.544586 
L 74.778947 46.125818 
L 74.526316 45.699586 
L 74.273684 45.265931 
L 74.021053 44.8249 
L 73.768421 44.37655 
L 73.515789 43.920943 
L 73.263158 43.458151 
L 73.010526 42.988255 
L 72.757895 42.511342 
L 72.505263 42.02751 
L 72.252632 41.536864 
L 72 41.039518 
L 71.747368 40.535595 
L 71.494737 40.025228 
L 71.242105 39.508556 
L 70.989474 38.985731 
L 70.736842 38.456911 
L 70.484211 37.922265 
L 70.231579 37.381968 
L 69.978947 36.836209 
L 69.726316 36.285182 
L 69.473684 35.729091 
L 69.221053 35.168151 
L 68.968421 34.602583 
L 68.715789 34.03262 
L 68.463158 33.458502 
L 68.210526 32.880478 
L 67.957895 32.298806 
L 67.705263 31.713752 
L 67.452632 31.125591 
L 67.2 30.534606 
L 66.947368 29.941088 
L 66.694737 29.345336 
L 66.442105 28.747657 
L 66.189474 28.148366 
L 65.936842 27.547783 
L 65.684211 26.946237 
L 65.431579 26.344064 
L 65.178947 25.741606 
L 64.926316 25.139209 
L 64.673684 24.537229 
L 64.421053 23.936025 
L 64.168421 23.335961 
L 63.915789 22.737408 
L 63.663158 22.140739 
L 63.410526 21.546333 
L 63.157895 20.954572 
L 62.905263 20.365842 
L 62.652632 19.780532 
L 62.4 19.199034 
L 62.147368 18.62174 
L 61.894737 18.049046 
L 61.642105 17.48135 
L 61.389474 16.919048 
L 61.136842 16.362539 
L 60.884211 15.812221 
L 60.631579 15.268491 
L 60.378947 14.731746 
L 60.126316 14.202381 
L 59.873684 13.680789 
L 59.621053 13.167362 
L 59.368421 12.662488 
L 59.115789 12.16655 
L 58.863158 11.679931 
L 58.610526 11.203006 
L 58.357895 10.736147 
L 58.105263 10.27972 
L 57.852632 9.834087 
L 57.6 9.399602 
L 57.347368 8.976611 
L 57.094737 8.565457 
L 56.842105 8.166471 
L 56.589474 7.77998 
L 56.336842 7.406298 
L 56.084211 7.045734 
L 55.831579 6.698585 
L 55.578947 6.36514 
L 55.326316 6.045677 
L 55.073684 5.740463 
L 54.821053 5.449755 
L 54.568421 5.173799 
L 54.315789 4.912828 
L 54.063158 4.667063 
L 53.810526 4.436715 
L 53.557895 4.22198 
L 53.305263 4.023042 
L 53.052632 3.840072 
L 52.8 3.673227 
L 52.547368 3.522653 
L 52.294737 3.388478 
L 52.042105 3.270818 
L 51.789474 3.169777 
L 51.536842 3.085441 
L 51.284211 3.017884 
L 51.031579 2.967165 
L 50.778947 2.933328 
L 50.526316 2.916402 
L 50.273684 2.916402 
L 50.021053 2.933328 
L 49.768421 2.967165 
L 49.515789 3.017884 
L 49.263158 3.085441 
L 49.010526 3.169777 
L 48.757895 3.270818 
L 48.505263 3.388478 
L 48.252632 3.522653 
L 48 3.673227 
L 47.747368 3.840072 
L 47.494737 4.023042 
L 47.242105 4.22198 
L 46.989474 4.436715 
L 46.736842 4.667063 
L 46.484211 4.912828 
L 46.231579 5.173799 
L 45.978947 5.449755 
L 45.726316 5.740463 
L 45.473684 6.045677 
L 45.221053 6.36514 
L 44.968421 6.698585 
L 44.715789 7.045734 
L 44.463158 7.406298 
L 44.210526 7.77998 
L 43.957895 8.166471 
L 43.705263 8.565457 
L 43.452632 8.976611 
L 43.2 9.399602 
L 42.947368 9.834087 
L 42.694737 10.27972 
L 42.442105 10.736147 
L 42.189474 11.203006 
L 41.936842 11.679931 
L 41.684211 12.16655 
L 41.431579 12.662488 
L 41.178947 13.167362 
L 40.926316 13.680789 
L 40.673684 14.202381 
L 40.421053 14.731746 
L 40.168421 15.268491 
L 39.915789 15.812221 
L 39.663158 16.362539 
L 39.410526 16.919048 
L 39.157895 17.48135 
L 38.905263 18.049046 
L 38.652632 18.62174 
L 38.4 19.199034 
L 38.147368 19.780532 
L 37.894737 20.365842 
L 37.642105 20.954572 
L 37.389474 21.546333 
L 37.136842 22.140739 
L 36.884211 22.737408 
L 36.631579 23.335961 
L 36.378947 23.936025 
L 36.126316 24.537229 
L 35.873684 25.139209 
L 35.621053 25.741606 
L 35.368421 26.344064 
L 35.115789 26.946237 
L 34.863158 27.547783 
L 34.610526 28.148366 
L 34.357895 28.747657 
L 34.105263 29.345336 
L 33.852632 29.941088 
L 33.6 30.534606 
L 33.347368 31.125591 
L 33.094737 31.713752 
L 32.842105 32.298806 
L 32.589474 32.880478 
L 32.336842 33.458502 
L 32.084211 34.03262 
L 31.831579 34.602583 
L 31.578947 35.168151 
L 31.326316 35.729091 
L 31.073684 36.285182 
L 30.821053 36.836209 
L 30.568421 37.381968 
L 30.315789 37.922265 
L 30.063158 38.456911 
L 29.810526 38.985731 
L 29.557895 39.508556 
L 29.305263 40.025228 
L 29.052632 40.535595 
L 28.8 41.039518 
L 28.547368 41.536864 
L 28.294737 42.02751 
L 28.042105 42.511342 
L 27.789474 42.988255 
L 27.536842 43.458151 
L 27.284211 43.920943 
L 27.031579 44.37655 
L 26.778947 44.8249 
L 26.526316 45.265931 
L 26.273684 45.699586 
L 26.021053 46.125818 
L 25.768421 46.544586 
L 25.515789 46.955859 
L 25.263158 47.359611 
L 25.010526 47.755824 
L 24.757895 48.144487 
L 24.505263 48.525595 
L 24.252632 48.899152 
L 24 49.265166 
L 23.747368 49.623652 
L 23.494737 49.974631 
L 23.242105 50.31813 
L 22.989474 50.654181 
L 22.736842 50.982823 
L 22.484211 51.304097 
L 22.231579 51.618053 
L 21.978947 51.924743 
L 21.726316 52.224223 
L 21.473684 52.516557 
L 21.221053 52.801809 
L 20.968421 53.08005 
L 20.715789 53.351351 
L 20.463158 53.615792 
L 20.210526 53.873451 
L 19.957895 54.124412 
L 19.705263 54.368761 
L 19.452632 54.606587 
L 19.2 54.837982 
L 18.947368 55.063038 
L 18.694737 55.281852 
L 18.442105 55.494522 
L 18.189474 55.701147 
L 17.936842 55.901828 
L 17.684211 56.096667 
L 17.431579 56.285769 
L 17.178947 56.469238 
L 16.926316 56.64718 
L 16.673684 56.819701 
L 16.421053 56.986909 
L 16.168421 57.148911 
L 15.915789 57.305815 
L 15.663158 57.457729 
L 15.410526 57.604761 
L 15.157895 57.747019 
L 14.905263 57.884611 
L 14.652632 58.017645 
L 14.4 58.146228 
L 14.147368 58.270467 
L 13.894737 58.390467 
L 13.642105 58.506335 
L 13.389474 58.618174 
L 13.136842 58.726088 
L 12.884211 58.83018 
L 12.631579 58.930551 
L 12.378947 59.027302 
L 12.126316 59.120533 
L 11.873684 59.210341 
L 11.621053 59.296824 
L 11.368421 59.380076 
L 11.115789 59.460192 
L 10.863158 59.537264 
L 10.610526 59.611383 
L 10.357895 59.682639 
L 10.105263 59.75112 
L 9.852632 59.816911 
L 9.6 59.880099 
L 9.347368 59.940766 
L 9.094737 59.998993 
L 8.842105 60.054861 
L 8.589474 60.108446 
L 8.336842 60.159827 
L 8.084211 60.209077 
L 7.831579 60.256269 
L 7.578947 60.301474 
L 7.326316 60.344763 
L 7.073684 60.386202 
L 6.821053 60.425859 
L 6.568421 60.463797 
L 6.315789 60.500079 
L 6.063158 60.534766 
L 5.810526 60.567917 
L 5.557895 60.599591 
L 5.305263 60.629844 
L 5.052632 60.658729 
L 4.8 60.686301 
L 4.547368 60.712609 
L 4.294737 60.737704 
L 4.042105 60.761635 
L 3.789474 60.784447 
L 3.536842 60.806187 
L 3.284211 60.826898 
L 3.031579 60.846622 
L 2.778947 60.865401 
L 2.526316 60.883274 
L 2.273684 60.900279 
L 2.021053 60.916453 
L 1.768421 60.931833 
L 1.515789 60.946452 
L 1.263158 60.960344 
L 1.010526 60.97354 
L 0.757895 60.986072 
L 0.505263 60.997969 
L 0.252632 61.00926 
L 0 61.019972 
z
" clip-path="url(#p8ca08cc4bd)" style="fill: #8c1515; fill-opacity: 0.92"/>
   </g>
  </g>
 </g>
 <defs>
  <clipPath id="p8ca08cc4bd">
   <rect x="0" y="0" width="100.8" height="61.2"/>
  </clipPath>
 </defs>
</svg>
