<?xml version="1.0" encoding="utf-8" standalone="no"?>
<!DOCTYPE svg PUBLIC "-//W3C//DTD SVG 1.1//EN"
  "http://www.w3.org/Graphics/SVG/1.1/DTD/svg11.dtd">
<svg xmlns:xlink="http://www.w3.org/1999/xlink" width="100.8pt" height="61.2pt" viewBox="0 0 100.8 61.2" xmlns="http://www.w3.org/2000/svg" version="1.1">
 <metadata>
  <rdf:RDF xmlns:dc="http://purl.org/dc/elements/1.1/" xmlns:cc="http://creativecommons.org/ns#" xmlns:rdf="http://www.w3.org/1999/02/22-rdf-syntax-ns#">
   <cc:Work>
    <dc:type rdf:resource="http://purl.org/dc/dcmitype/StillImage"/>
    <dc:date>2026-07-17T16:50:13.069667</dc:date>
    <dc:format>image/svg+xml</dc:format>
    <dc:creator>
     <cc:Agent>
      <dc:title>Matplotlib v3.11.0, https://matplotlib.org/</dc:title>
     </cc:Agent>
    </dc:creator>
   </cc:Work>
  </rdf:RDF>
 </metadata>
 <defs>
  <style type="text/css">*{stroke-linejoin: round; stroke-linecap: butt}</style>
 </defs>
 <g id="figure_1">
  <g id="patch_1">
   <path d="M 0 61.2 
L 100.8 61.2 
L 100.8 0 
L 0 0 
L 0 61.2 
z
" style="fill: none; opacity: 0"/>
  </g>
  <g id="axes_1">
   <g id="FillBetweenPolyCollection_1">
    <path d="M 0 61.2 
L 0 61.2 
L 0.252632 61.2 
L 0.505263 61.2 
L 0.757895 61.2 
L 1.010526 61.2 
L 1.263158 61.2 
L 1.515789 61.2 
L 1.768421 61.2 
L 2.021053 61.2 
L 2.273684 61.2 
L 2.526316 61.2 
L 2.778947 61.2 
L 3.031579 61.2 
L 3.284211 61.2 
L 3.536842 61.2 
L 3.789474 61.2 
L 4.042105 61.2 
L 4.294737 61.2 
L 4.547368 61.2 
L 4.8 61.2 
L 5.052632 61.2 
L 5.305263 61.2 
L 5.557895 61.2 
L 5.810526 61.2 
L 6.063158 61.2 
L 6.315789 61.2 
L 6.568421 61.2 
L 6.821053 61.2 
L 7.073684 61.2 
L 7.326316 61.2 
L 7.578947 61.2 
L 7.831579 61.2 
L 8.084211 61.2 
L 8.336842 61.2 
L 8.589474 61.2 
L 8.842105 61.2 
L 9.094737 61.2 
L 9.347368 61.2 
L 9.6 61.2 
L 9.852632 61.2 
L 10.105263 61.2 
L 10.357895 61.2 
L 10.610526 61.2 
L 10.863158 61.2 
L 11.115789 61.2 
L 11.368421 61.2 
L 11.621053 61.2 
L 11.873684 61.2 
L 12.126316 61.2 
L 12.378947 61.2 
L 12.631579 61.2 
L 12.884211 61.2 
L 13.136842 61.2 
L 13.389474 61.2 
L 13.642105 61.2 
L 13.894737 61.2 
L 14.147368 61.2 
L 14.4 61.2 
L 14.652632 61.2 
L 14.905263 61.2 
L 15.157895 61.2 
L 15.410526 61.2 
L 15.663158 61.2 
L 15.915789 61.2 
L 16.168421 61.2 
L 16.421053 61.2 
L 16.673684 61.2 
L 16.926316 61.2 
L 17.178947 61.2 
L 17.431579 61.2 
L 17.684211 61.2 
L 17.936842 61.2 
L 18.189474 61.2 
L 18.442105 61.2 
L 18.694737 61.2 
L 18.947368 61.2 
L 19.2 61.2 
L 19.452632 61.2 
L 19.705263 61.2 
L 19.957895 61.2 
L 20.210526 61.2 
L 20.463158 61.2 
L 20.715789 61.2 
L 20.968421 61.2 
L 21.221053 61.2 
L 21.473684 61.2 
L 21.726316 61.2 
L 21.978947 61.2 
L 22.231579 61.2 
L 22.484211 61.2 
L 22.736842 61.2 
L 22.989474 61.2 
L 23.242105 61.2 
L 23.494737 61.2 
L 23.747368 61.2 
L 24 61.2 
L 24.252632 61.2 
L 24.505263 61.2 
L 24.757895 61.2 
L 25.010526 61.2 
L 25.263158 61.2 
L 25.515789 61.2 
L 25.768421 61.2 
L 26.021053 61.2 
L 26.273684 61.2 
L 26.526316 61.2 
L 26.778947 61.2 
L 27.031579 61.2 
L 27.284211 61.2 
L 27.536842 61.2 
L 27.789474 61.2 
L 28.042105 61.2 
L 28.294737 61.2 
L 28.547368 61.2 
L 28.8 61.2 
L 29.052632 61.2 
L 29.305263 61.2 
L 29.557895 61.2 
L 29.810526 61.2 
L 30.063158 61.2 
L 30.315789 61.2 
L 30.568421 61.2 
L 30.821053 61.2 
L 31.073684 61.2 
L 31.326316 61.2 
L 31.578947 61.2 
L 31.831579 61.2 
L 32.084211 61.2 
L 32.336842 61.2 
L 32.589474 61.2 
L 32.842105 61.2 
L 33.094737 61.2 
L 33.347368 61.2 
L 33.6 61.2 
L 33.852632 61.2 
L 34.105263 61.2 
L 34.357895 61.2 
L 34.610526 61.2 
L 34.863158 61.2 
L 35.115789 61.2 
L 35.368421 61.2 
L 35.621053 61.2 
L 35.873684 61.2 
L 36.126316 61.2 
L 36.378947 61.2 
L 36.631579 61.2 
L 36.884211 61.2 
L 37.136842 61.2 
L 37.389474 61.2 
L 37.642105 61.2 
L 37.894737 61.2 
L 38.147368 61.2 
L 38.4 61.2 
L 38.652632 61.2 
L 38.905263 61.2 
L 39.157895 61.2 
L 39.410526 61.2 
L 39.663158 61.2 
L 39.915789 61.2 
L 40.168421 61.2 
L 40.421053 61.2 
L 40.673684 61.2 
L 40.926316 61.2 
L 41.178947 61.2 
L 41.431579 61.2 
L 41.684211 61.2 
L 41.936842 61.2 
L 42.189474 61.2 
L 42.442105 61.2 
L 42.694737 61.2 
L 42.947368 61.2 
L 43.2 61.2 
L 43.452632 61.2 
L 43.705263 61.2 
L 43.957895 61.2 
L 44.210526 61.2 
L 44.463158 61.2 
L 44.715789 61.2 
L 44.968421 61.2 
L 45.221053 61.2 
L 45.473684 61.2 
L 45.726316 61.2 
L 45.978947 61.2 
L 46.231579 61.2 
L 46.484211 61.2 
L 46.736842 61.2 
L 46.989474 61.2 
L 47.242105 61.2 
L 47.494737 61.2 
L 47.747368 61.2 
L 48 61.2 
L 48.252632 61.2 
L 48.505263 61.2 
L 48.757895 61.2 
L 49.010526 61.2 
L 49.263158 61.2 
L 49.515789 61.2 
L 49.768421 61.2 
L 50.021053 61.2 
L 50.273684 61.2 
L 50.526316 61.2 
L 50.778947 61.2 
L 51.031579 61.2 
L 51.284211 61.2 
L 51.536842 61.2 
L 51.789474 61.2 
L 52.042105 61.2 
L 52.294737 61.2 
L 52.547368 61.2 
L 52.8 61.2 
L 53.052632 61.2 
L 53.305263 61.2 
L 53.557895 61.2 
L 53.810526 61.2 
L 54.063158 61.2 
L 54.315789 61.2 
L 54.568421 61.2 
L 54.821053 61.2 
L 55.073684 61.2 
L 55.326316 61.2 
L 55.578947 61.2 
L 55.831579 61.2 
L 56.084211 61.2 
L 56.336842 61.2 
L 56.589474 61.2 
L 56.842105 61.2 
L 57.094737 61.2 
L 57.347368 61.2 
L 57.6 61.2 
L 57.852632 61.2 
L 58.105263 61.2 
L 58.357895 61.2 
L 58.610526 61.2 
L 58.863158 61.2 
L 59.115789 61.2 
L 59.368421 61.2 
L 59.621053 61.2 
L 59.873684 61.2 
L 60.126316 61.2 
L 60.378947 61.2 
L 60.631579 61.2 
L 60.884211 61.2 
L 61.136842 61.2 
L 61.389474 61.2 
L 61.642105 61.2 
L 61.894737 61.2 
L 62.147368 61.2 
L 62.4 61.2 
L 62.652632 61.2 
L 62.905263 61.2 
L 63.157895 61.2 
L 63.410526 61.2 
L 63.663158 61.2 
L 63.915789 61.2 
L 64.168421 61.2 
L 64.421053 61.2 
L 64.673684 61.2 
L 64.926316 61.2 
L 65.178947 61.2 
L 65.431579 61.2 
L 65.684211 61.2 
L 65.936842 61.2 
L 66.189474 61.2 
L 66.442105 61.2 
L 66.694737 61.2 
L 66.947368 61.2 
L 67.2 61.2 
L 67.452632 61.2 
L 67.705263 61.2 
L 67.957895 61.2 
L 68.210526 61.2 
L 68.463158 61.2 
L 68.715789 61.2 
L 68.968421 61.2 
L 69.221053 61.2 
L 69.473684 61.2 
L 69.726316 61.2 
L 69.978947 61.2 
L 70.231579 61.2 
L 70.484211 61.2 
L 70.736842 61.2 
L 70.989474 61.2 
L 71.242105 61.2 
L 71.494737 61.2 
L 71.747368 61.2 
L 72 61.2 
L 72.252632 61.2 
L 72.505263 61.2 
L 72.757895 61.2 
L 73.010526 61.2 
L 73.263158 61.2 
L 73.515789 61.2 
L 73.768421 61.2 
L 74.021053 61.2 
L 74.273684 61.2 
L 74.526316 61.2 
L 74.778947 61.2 
L 75.031579 61.2 
L 75.284211 61.2 
L 75.536842 61.2 
L 75.789474 61.2 
L 76.042105 61.2 
L 76.294737 61.2 
L 76.547368 61.2 
L 76.8 61.2 
L 77.052632 61.2 
L 77.305263 61.2 
L 77.557895 61.2 
L 77.810526 61.2 
L 78.063158 61.2 
L 78.315789 61.2 
L 78.568421 61.2 
L 78.821053 61.2 
L 79.073684 61.2 
L 79.326316 61.2 
L 79.578947 61.2 
L 79.831579 61.2 
L 80.084211 61.2 
L 80.336842 61.2 
L 80.589474 61.2 
L 80.842105 61.2 
L 81.094737 61.2 
L 81.347368 61.2 
L 81.6 61.2 
L 81.852632 61.2 
L 82.105263 61.2 
L 82.357895 61.2 
L 82.610526 61.2 
L 82.863158 61.2 
L 83.115789 61.2 
L 83.368421 61.2 
L 83.621053 61.2 
L 83.873684 61.2 
L 84.126316 61.2 
L 84.378947 61.2 
L 84.631579 61.2 
L 84.884211 61.2 
L 85.136842 61.2 
L 85.389474 61.2 
L 85.642105 61.2 
L 85.894737 61.2 
L 86.147368 61.2 
L 86.4 61.2 
L 86.652632 61.2 
L 86.905263 61.2 
L 87.157895 61.2 
L 87.410526 61.2 
L 87.663158 61.2 
L 87.915789 61.2 
L 88.168421 61.2 
L 88.421053 61.2 
L 88.673684 61.2 
L 88.926316 61.2 
L 89.178947 61.2 
L 89.431579 61.2 
L 89.684211 61.2 
L 89.936842 61.2 
L 90.189474 61.2 
L 90.442105 61.2 
L 90.694737 61.2 
L 90.947368 61.2 
L 91.2 61.2 
L 91.452632 61.2 
L 91.705263 61.2 
L 91.957895 61.2 
L 92.210526 61.2 
L 92.463158 61.2 
L 92.715789 61.2 
L 92.968421 61.2 
L 93.221053 61.2 
L 93.473684 61.2 
L 93.726316 61.2 
L 93.978947 61.2 
L 94.231579 61.2 
L 94.484211 61.2 
L 94.736842 61.2 
L 94.989474 61.2 
L 95.242105 61.2 
L 95.494737 61.2 
L 95.747368 61.2 
L 96 61.2 
L 96.252632 61.2 
L 96.505263 61.2 
L 96.757895 61.2 
L 97.010526 61.2 
L 97.263158 61.2 
L 97.515789 61.2 
L 97.768421 61.2 
L 98.021053 61.2 
L 98.273684 61.2 
L 98.526316 61.2 
L 98.778947 61.2 
L 99.031579 61.2 
L 99.284211 61.2 
L 99.536842 61.2 
L 99.789474 61.2 
L 100.042105 61.2 
L 100.294737 61.2 
L 100.547368 61.2 
L 100.8 61.2 
L 100.8 61.2 
L 100.8 61.2 
L 100.547368 61.2 
L 100.294737 61.2 
L 100.042105 61.199999 
L 99.789474 61.199999 
L 99.536842 61.199999 
L 99.284211 61.199999 
L 99.031579 61.199999 
L 98.778947 61.199999 
L 98.526316 61.199998 
L 98.273684 61.199998 
L 98.021053 61.199998 
L 97.768421 61.199997 
L 97.515789 61.199997 
L 97.263158 61.199996 
L 97.010526 61.199995 
L 96.757895 61.199994 
L 96.505263 61.199993 
L 96.252632 61.199992 
L 96 61.199991 
L 95.747368 61.199989 
L 95.494737 61.199987 
L 95.242105 61.199984 
L 94.989474 61.199981 
L 94.736842 61.199978 
L 94.484211 61.199974 
L 94.231579 61.199969 
L 93.978947 61.199964 
L 93.726316 61.199957 
L 93.473684 61.199949 
L 93.221053 61.19994 
L 92.968421 61.19993 
L 92.715789 61.199918 
L 92.463158 61.199903 
L 92.210526 61.199887 
L 91.957895 61.199867 
L 91.705263 61.199844 
L 91.452632 61.199818 
L 91.2 61.199787 
L 90.947368 61.199752 
L 90.694737 61.199711 
L 90.442105 61.199663 
L 90.189474 61.199608 
L 89.936842 61.199544 
L 89.684211 61.19947 
L 89.431579 61.199385 
L 89.178947 61.199287 
L 88.926316 61.199175 
L 88.673684 61.199045 
L 88.421053 61.198896 
L 88.168421 61.198725 
L 87.915789 61.198529 
L 87.663158 61.198304 
L 87.410526 61.198047 
L 87.157895 61.197753 
L 86.905263 61.197417 
L 86.652632 61.197034 
L 86.4 61.196598 
L 86.147368 61.196101 
L 85.894737 61.195536 
L 85.642105 61.194893 
L 85.389474 61.194164 
L 85.136842 61.193337 
L 84.884211 61.192401 
L 84.631579 61.19134 
L 84.378947 61.190142 
L 84.126316 61.188788 
L 83.873684 61.187261 
L 83.621053 61.18554 
L 83.368421 61.183602 
L 83.115789 61.181422 
L 82.863158 61.178972 
L 82.610526 61.176222 
L 82.357895 61.173138 
L 82.105263 61.169684 
L 81.852632 61.165818 
L 81.6 61.161496 
L 81.347368 61.156669 
L 81.094737 61.151284 
L 80.842105 61.145283 
L 80.589474 61.1386 
L 80.336842 61.131168 
L 80.084211 61.122911 
L 79.831579 61.113746 
L 79.578947 61.103583 
L 79.326316 61.092327 
L 79.073684 61.079872 
L 78.821053 61.066105 
L 78.568421 61.050903 
L 78.315789 61.034135 
L 78.063158 61.015658 
L 77.810526 60.995319 
L 77.557895 60.972955 
L 77.305263 60.948388 
L 77.052632 60.921431 
L 76.8 60.891882 
L 76.547368 60.859526 
L 76.294737 60.824133 
L 76.042105 60.785458 
L 75.789474 60.743244 
L 75.536842 60.697213 
L 75.284211 60.647074 
L 75.031579 60.59252 
L 74.778947 60.533223 
L 74.526316 60.46884 
L 74.273684 60.399011 
L 74.021053 60.323354 
L 73.768421 60.241472 
L 73.515789 60.152948 
L 73.263158 60.057345 
L 73.010526 59.954211 
L 72.757895 59.843071 
L 72.505263 59.723435 
L 72.252632 59.594792 
L 72 59.456617 
L 71.747368 59.308365 
L 71.494737 59.149475 
L 71.242105 58.979373 
L 70.989474 58.797468 
L 70.736842 58.603156 
L 70.484211 58.395823 
L 70.231579 58.174842 
L 69.978947 57.939579 
L 69.726316 57.689392 
L 69.473684 57.423635 
L 69.221053 57.141659 
L 68.968421 56.842813 
L 68.715789 56.526451 
L 68.463158 56.191929 
L 68.210526 55.838613 
L 67.957895 55.46588 
L 67.705263 55.073119 
L 67.452632 54.659738 
L 67.2 54.225167 
L 66.947368 53.768859 
L 66.694737 53.290297 
L 66.442105 52.788996 
L 66.189474 52.264507 
L 65.936842 51.716422 
L 65.684211 51.144378 
L 65.431579 50.548062 
L 65.178947 49.927212 
L 64.926316 49.281624 
L 64.673684 48.611158 
L 64.421053 47.915735 
L 64.168421 47.19535 
L 63.915789 46.450069 
L 63.663158 45.680035 
L 63.410526 44.885473 
L 63.157895 44.066692 
L 62.905263 43.224086 
L 62.652632 42.358141 
L 62.4 41.469436 
L 62.147368 40.558641 
L 61.894737 39.626527 
L 61.642105 38.673961 
L 61.389474 37.701907 
L 61.136842 36.711431 
L 60.884211 35.703697 
L 60.631579 34.67997 
L 60.378947 33.641612 
L 60.126316 32.590082 
L 59.873684 31.526933 
L 59.621053 30.453814 
L 59.368421 29.37246 
L 59.115789 28.284693 
L 58.863158 27.192419 
L 58.610526 26.097619 
L 58.357895 25.002346 
L 58.105263 23.908722 
L 57.852632 22.818926 
L 57.6 21.735193 
L 57.347368 20.659804 
L 57.094737 19.595078 
L 56.842105 18.543366 
L 56.589474 17.50704 
L 56.336842 16.488489 
L 56.084211 15.490104 
L 55.831579 14.514273 
L 55.578947 13.563371 
L 55.326316 12.639749 
L 55.073684 11.745726 
L 54.821053 10.883579 
L 54.568421 10.055532 
L 54.315789 9.26375 
L 54.063158 8.510326 
L 53.810526 7.797272 
L 53.557895 7.126513 
L 53.305263 6.499875 
L 53.052632 5.919079 
L 52.8 5.385734 
L 52.547368 4.901325 
L 52.294737 4.467211 
L 52.042105 4.084616 
L 51.789474 3.754625 
L 51.536842 3.478176 
L 51.284211 3.256059 
L 51.031579 3.088911 
L 50.778947 2.977211 
L 50.526316 2.921281 
L 50.273684 2.921281 
L 50.021053 2.977211 
L 49.768421 3.088911 
L 49.515789 3.256059 
L 49.263158 3.478176 
L 49.010526 3.754625 
L 48.757895 4.084616 
L 48.505263 4.467211 
L 48.252632 4.901325 
L 48 5.385734 
L 47.747368 5.919079 
L 47.494737 6.499875 
L 47.242105 7.126513 
L 46.989474 7.797272 
L 46.736842 8.510326 
L 46.484211 9.26375 
L 46.231579 10.055532 
L 45.978947 10.883579 
L 45.726316 11.745726 
L 45.473684 12.639749 
L 45.221053 13.563371 
L 44.968421 14.514273 
L 44.715789 15.490104 
L 44.463158 16.488489 
L 44.210526 17.50704 
L 43.957895 18.543366 
L 43.705263 19.595078 
L 43.452632 20.659804 
L 43.2 21.735193 
L 42.947368 22.818926 
L 42.694737 23.908722 
L 42.442105 25.002346 
L 42.189474 26.097619 
L 41.936842 27.192419 
L 41.684211 28.284693 
L 41.431579 29.37246 
L 41.178947 30.453814 
L 40.926316 31.526933 
L 40.673684 32.590082 
L 40.421053 33.641612 
L 40.168421 34.67997 
L 39.915789 35.703697 
L 39.663158 36.711431 
L 39.410526 37.701907 
L 39.157895 38.673961 
L 38.905263 39.626527 
L 38.652632 40.558641 
L 38.4 41.469436 
L 38.147368 42.358141 
L 37.894737 43.224086 
L 37.642105 44.066692 
L 37.389474 44.885473 
L 37.136842 45.680035 
L 36.884211 46.450069 
L 36.631579 47.19535 
L 36.378947 47.915735 
L 36.126316 48.611158 
L 35.873684 49.281624 
L 35.621053 49.927212 
L 35.368421 50.548062 
L 35.115789 51.144378 
L 34.863158 51.716422 
L 34.610526 52.264507 
L 34.357895 52.788996 
L 34.105263 53.290297 
L 33.852632 53.768859 
L 33.6 54.225167 
L 33.347368 54.659738 
L 33.094737 55.073119 
L 32.842105 55.46588 
L 32.589474 55.838613 
L 32.336842 56.191929 
L 32.084211 56.526451 
L 31.831579 56.842813 
L 31.578947 57.141659 
L 31.326316 57.423635 
L 31.073684 57.689392 
L 30.821053 57.939579 
L 30.568421 58.174842 
L 30.315789 58.395823 
L 30.063158 58.603156 
L 29.810526 58.797468 
L 29.557895 58.979373 
L 29.305263 59.149475 
L 29.052632 59.308365 
L 28.8 59.456617 
L 28.547368 59.594792 
L 28.294737 59.723435 
L 28.042105 59.843071 
L 27.789474 59.954211 
L 27.536842 60.057345 
L 27.284211 60.152948 
L 27.031579 60.241472 
L 26.778947 60.323354 
L 26.526316 60.399011 
L 26.273684 60.46884 
L 26.021053 60.533223 
L 25.768421 60.59252 
L 25.515789 60.647074 
L 25.263158 60.697213 
L 25.010526 60.743244 
L 24.757895 60.785458 
L 24.505263 60.824133 
L 24.252632 60.859526 
L 24 60.891882 
L 23.747368 60.921431 
L 23.494737 60.948388 
L 23.242105 60.972955 
L 22.989474 60.995319 
L 22.736842 61.015658 
L 22.484211 61.034135 
L 22.231579 61.050903 
L 21.978947 61.066105 
L 21.726316 61.079872 
L 21.473684 61.092327 
L 21.221053 61.103583 
L 20.968421 61.113746 
L 20.715789 61.122911 
L 20.463158 61.131168 
L 20.210526 61.1386 
L 19.957895 61.145283 
L 19.705263 61.151284 
L 19.452632 61.156669 
L 19.2 61.161496 
L 18.947368 61.165818 
L 18.694737 61.169684 
L 18.442105 61.173138 
L 18.189474 61.176222 
L 17.936842 61.178972 
L 17.684211 61.181422 
L 17.431579 61.183602 
L 17.178947 61.18554 
L 16.926316 61.187261 
L 16.673684 61.188788 
L 16.421053 61.190142 
L 16.168421 61.19134 
L 15.915789 61.192401 
L 15.663158 61.193337 
L 15.410526 61.194164 
L 15.157895 61.194893 
L 14.905263 61.195536 
L 14.652632 61.196101 
L 14.4 61.196598 
L 14.147368 61.197034 
L 13.894737 61.197417 
L 13.642105 61.197753 
L 13.389474 61.198047 
L 13.136842 61.198304 
L 12.884211 61.198529 
L 12.631579 61.198725 
L 12.378947 61.198896 
L 12.126316 61.199045 
L 11.873684 61.199175 
L 11.621053 61.199287 
L 11.368421 61.199385 
L 11.115789 61.19947 
L 10.863158 61.199544 
L 10.610526 61.199608 
L 10.357895 61.199663 
L 10.105263 61.199711 
L 9.852632 61.199752 
L 9.6 61.199787 
L 9.347368 61.199818 
L 9.094737 61.199844 
L 8.842105 61.199867 
L 8.589474 61.199887 
L 8.336842 61.199903 
L 8.084211 61.199918 
L 7.831579 61.19993 
L 7.578947 61.19994 
L 7.326316 61.199949 
L 7.073684 61.199957 
L 6.821053 61.199964 
L 6.568421 61.199969 
L 6.315789 61.199974 
L 6.063158 61.199978 
L 5.810526 61.199981 
L 5.557895 61.199984 
L 5.305263 61.199987 
L 5.052632 61.199989 
L 4.8 61.199991 
L 4.547368 61.199992 
L 4.294737 61.199993 
L 4.042105 61.199994 
L 3.789474 61.199995 
L 3.536842 61.199996 
L 3.284211 61.199997 
L 3.031579 61.199997 
L 2.778947 61.199998 
L 2.526316 61.199998 
L 2.273684 61.199998 
L 2.021053 61.199999 
L 1.768421 61.199999 
L 1.515789 61.199999 
L 1.263158 61.199999 
L 1.010526 61.199999 
L 0.757895 61.199999 
L 0.505263 61.2 
L 0.252632 61.2 
L 0 61.2 
z
" clip-path="url(#pc5df9a5788)" style="fill: #8c1515; fill-opacity: 0.92"/>
   </g>
  </g>
 </g>
 <defs>
  <clipPath id="pc5df9a5788">
   <rect x="0" y="0" width="100.8" height="61.2"/>
  </clipPath>
 </defs>
</svg>
