<?xml version="1.0" encoding="utf-8" standalone="no"?>
<!DOCTYPE svg PUBLIC "-//W3C//DTD SVG 1.1//EN"
  "http://www.w3.org/Graphics/SVG/1.1/DTD/svg11.dtd">
<svg xmlns:xlink="http://www.w3.org/1999/xlink" width="100.8pt" height="61.2pt" viewBox="0 0 100.8 61.2" xmlns="http://www.w3.org/2000/svg" version="1.1">
 <metadata>
  <rdf:RDF xmlns:dc="http://purl.org/dc/elements/1.1/" xmlns:cc="http://creativecommons.org/ns#" xmlns:rdf="http://www.w3.org/1999/02/22-rdf-syntax-ns#">
   <cc:Work>
    <dc:type rdf:resource="http://purl.org/dc/dcmitype/StillImage"/>
    <dc:date>2026-07-17T16:50:13.073542</dc:date>
    <dc:format>image/svg+xml</dc:format>
    <dc:creator>
     <cc:Agent>
      <dc:title>Matplotlib v3.11.0, https://matplotlib.org/</dc:title>
     </cc:Agent>
    </dc:creator>
   </cc:Work>
  </rdf:RDF>
 </metadata>
 <defs>
  <style type="text/css">*{stroke-linejoin: round; stroke-linecap: butt}</style>
 </defs>
 <g id="figure_1">
  <g id="patch_1">
   <path d="M 0 61.2 
L 100.8 61.2 
L 100.8 0 
L 0 0 
L 0 61.2 
z
" style="fill: none; opacity: 0"/>
  </g>
  <g id="axes_1">
   <g id="FillBetweenPolyCollection_1">
    <path d="M 0 61.2 
L 0 61.2 
L 0.252632 61.2 
L 0.505263 61.2 
L 0.757895 61.2 
L 1.010526 61.2 
L 1.263158 61.2 
L 1.515789 61.2 
L 1.768421 61.2 
L 2.021053 61.2 
L 2.273684 61.2 
L 2.526316 61.2 
L 2.778947 61.2 
L 3.031579 61.2 
L 3.284211 61.2 
L 3.536842 61.2 
L 3.789474 61.2 
L 4.042105 61.2 
L 4.294737 61.2 
L 4.547368 61.2 
L 4.8 61.2 
L 5.052632 61.2 
L 5.305263 61.2 
L 5.557895 61.2 
L 5.810526 61.2 
L 6.063158 61.2 
L 6.315789 61.2 
L 6.568421 61.2 
L 6.821053 61.2 
L 7.073684 61.2 
L 7.326316 61.2 
L 7.578947 61.2 
L 7.831579 61.2 
L 8.084211 61.2 
L 8.336842 61.2 
L 8.589474 61.2 
L 8.842105 61.2 
L 9.094737 61.2 
L 9.347368 61.2 
L 9.6 61.2 
L 9.852632 61.2 
L 10.105263 61.2 
L 10.357895 61.2 
L 10.610526 61.2 
L 10.863158 61.2 
L 11.115789 61.2 
L 11.368421 61.2 
L 11.621053 61.2 
L 11.873684 61.2 
L 12.126316 61.2 
L 12.378947 61.2 
L 12.631579 61.2 
L 12.884211 61.2 
L 13.136842 61.2 
L 13.389474 61.2 
L 13.642105 61.2 
L 13.894737 61.2 
L 14.147368 61.2 
L 14.4 61.2 
L 14.652632 61.2 
L 14.905263 61.2 
L 15.157895 61.2 
L 15.410526 61.2 
L 15.663158 61.2 
L 15.915789 61.2 
L 16.168421 61.2 
L 16.421053 61.2 
L 16.673684 61.2 
L 16.926316 61.2 
L 17.178947 61.2 
L 17.431579 61.2 
L 17.684211 61.2 
L 17.936842 61.2 
L 18.189474 61.2 
L 18.442105 61.2 
L 18.694737 61.2 
L 18.947368 61.2 
L 19.2 61.2 
L 19.452632 61.2 
L 19.705263 61.2 
L 19.957895 61.2 
L 20.210526 61.2 
L 20.463158 61.2 
L 20.715789 61.2 
L 20.968421 61.2 
L 21.221053 61.2 
L 21.473684 61.2 
L 21.726316 61.2 
L 21.978947 61.2 
L 22.231579 61.2 
L 22.484211 61.2 
L 22.736842 61.2 
L 22.989474 61.2 
L 23.242105 61.2 
L 23.494737 61.2 
L 23.747368 61.2 
L 24 61.2 
L 24.252632 61.2 
L 24.505263 61.2 
L 24.757895 61.2 
L 25.010526 61.2 
L 25.263158 61.2 
L 25.515789 61.2 
L 25.768421 61.2 
L 26.021053 61.2 
L 26.273684 61.2 
L 26.526316 61.2 
L 26.778947 61.2 
L 27.031579 61.2 
L 27.284211 61.2 
L 27.536842 61.2 
L 27.789474 61.2 
L 28.042105 61.2 
L 28.294737 61.2 
L 28.547368 61.2 
L 28.8 61.2 
L 29.052632 61.2 
L 29.305263 61.2 
L 29.557895 61.2 
L 29.810526 61.2 
L 30.063158 61.2 
L 30.315789 61.2 
L 30.568421 61.2 
L 30.821053 61.2 
L 31.073684 61.2 
L 31.326316 61.2 
L 31.578947 61.2 
L 31.831579 61.2 
L 32.084211 61.2 
L 32.336842 61.2 
L 32.589474 61.2 
L 32.842105 61.2 
L 33.094737 61.2 
L 33.347368 61.2 
L 33.6 61.2 
L 33.852632 61.2 
L 34.105263 61.2 
L 34.357895 61.2 
L 34.610526 61.2 
L 34.863158 61.2 
L 35.115789 61.2 
L 35.368421 61.2 
L 35.621053 61.2 
L 35.873684 61.2 
L 36.126316 61.2 
L 36.378947 61.2 
L 36.631579 61.2 
L 36.884211 61.2 
L 37.136842 61.2 
L 37.389474 61.2 
L 37.642105 61.2 
L 37.894737 61.2 
L 38.147368 61.2 
L 38.4 61.2 
L 38.652632 61.2 
L 38.905263 61.2 
L 39.157895 61.2 
L 39.410526 61.2 
L 39.663158 61.2 
L 39.915789 61.2 
L 40.168421 61.2 
L 40.421053 61.2 
L 40.673684 61.2 
L 40.926316 61.2 
L 41.178947 61.2 
L 41.431579 61.2 
L 41.684211 61.2 
L 41.936842 61.2 
L 42.189474 61.2 
L 42.442105 61.2 
L 42.694737 61.2 
L 42.947368 61.2 
L 43.2 61.2 
L 43.452632 61.2 
L 43.705263 61.2 
L 43.957895 61.2 
L 44.210526 61.2 
L 44.463158 61.2 
L 44.715789 61.2 
L 44.968421 61.2 
L 45.221053 61.2 
L 45.473684 61.2 
L 45.726316 61.2 
L 45.978947 61.2 
L 46.231579 61.2 
L 46.484211 61.2 
L 46.736842 61.2 
L 46.989474 61.2 
L 47.242105 61.2 
L 47.494737 61.2 
L 47.747368 61.2 
L 48 61.2 
L 48.252632 61.2 
L 48.505263 61.2 
L 48.757895 61.2 
L 49.010526 61.2 
L 49.263158 61.2 
L 49.515789 61.2 
L 49.768421 61.2 
L 50.021053 61.2 
L 50.273684 61.2 
L 50.526316 61.2 
L 50.778947 61.2 
L 51.031579 61.2 
L 51.284211 61.2 
L 51.536842 61.2 
L 51.789474 61.2 
L 52.042105 61.2 
L 52.294737 61.2 
L 52.547368 61.2 
L 52.8 61.2 
L 53.052632 61.2 
L 53.305263 61.2 
L 53.557895 61.2 
L 53.810526 61.2 
L 54.063158 61.2 
L 54.315789 61.2 
L 54.568421 61.2 
L 54.821053 61.2 
L 55.073684 61.2 
L 55.326316 61.2 
L 55.578947 61.2 
L 55.831579 61.2 
L 56.084211 61.2 
L 56.336842 61.2 
L 56.589474 61.2 
L 56.842105 61.2 
L 57.094737 61.2 
L 57.347368 61.2 
L 57.6 61.2 
L 57.852632 61.2 
L 58.105263 61.2 
L 58.357895 61.2 
L 58.610526 61.2 
L 58.863158 61.2 
L 59.115789 61.2 
L 59.368421 61.2 
L 59.621053 61.2 
L 59.873684 61.2 
L 60.126316 61.2 
L 60.378947 61.2 
L 60.631579 61.2 
L 60.884211 61.2 
L 61.136842 61.2 
L 61.389474 61.2 
L 61.642105 61.2 
L 61.894737 61.2 
L 62.147368 61.2 
L 62.4 61.2 
L 62.652632 61.2 
L 62.905263 61.2 
L 63.157895 61.2 
L 63.410526 61.2 
L 63.663158 61.2 
L 63.915789 61.2 
L 64.168421 61.2 
L 64.421053 61.2 
L 64.673684 61.2 
L 64.926316 61.2 
L 65.178947 61.2 
L 65.431579 61.2 
L 65.684211 61.2 
L 65.936842 61.2 
L 66.189474 61.2 
L 66.442105 61.2 
L 66.694737 61.2 
L 66.947368 61.2 
L 67.2 61.2 
L 67.452632 61.2 
L 67.705263 61.2 
L 67.957895 61.2 
L 68.210526 61.2 
L 68.463158 61.2 
L 68.715789 61.2 
L 68.968421 61.2 
L 69.221053 61.2 
L 69.473684 61.2 
L 69.726316 61.2 
L 69.978947 61.2 
L 70.231579 61.2 
L 70.484211 61.2 
L 70.736842 61.2 
L 70.989474 61.2 
L 71.242105 61.2 
L 71.494737 61.2 
L 71.747368 61.2 
L 72 61.2 
L 72.252632 61.2 
L 72.505263 61.2 
L 72.757895 61.2 
L 73.010526 61.2 
L 73.263158 61.2 
L 73.515789 61.2 
L 73.768421 61.2 
L 74.021053 61.2 
L 74.273684 61.2 
L 74.526316 61.2 
L 74.778947 61.2 
L 75.031579 61.2 
L 75.284211 61.2 
L 75.536842 61.2 
L 75.789474 61.2 
L 76.042105 61.2 
L 76.294737 61.2 
L 76.547368 61.2 
L 76.8 61.2 
L 77.052632 61.2 
L 77.305263 61.2 
L 77.557895 61.2 
L 77.810526 61.2 
L 78.063158 61.2 
L 78.315789 61.2 
L 78.568421 61.2 
L 78.821053 61.2 
L 79.073684 61.2 
L 79.326316 61.2 
L 79.578947 61.2 
L 79.831579 61.2 
L 80.084211 61.2 
L 80.336842 61.2 
L 80.589474 61.2 
L 80.842105 61.2 
L 81.094737 61.2 
L 81.347368 61.2 
L 81.6 61.2 
L 81.852632 61.2 
L 82.105263 61.2 
L 82.357895 61.2 
L 82.610526 61.2 
L 82.863158 61.2 
L 83.115789 61.2 
L 83.368421 61.2 
L 83.621053 61.2 
L 83.873684 61.2 
L 84.126316 61.2 
L 84.378947 61.2 
L 84.631579 61.2 
L 84.884211 61.2 
L 85.136842 61.2 
L 85.389474 61.2 
L 85.642105 61.2 
L 85.894737 61.2 
L 86.147368 61.2 
L 86.4 61.2 
L 86.652632 61.2 
L 86.905263 61.2 
L 87.157895 61.2 
L 87.410526 61.2 
L 87.663158 61.2 
L 87.915789 61.2 
L 88.168421 61.2 
L 88.421053 61.2 
L 88.673684 61.2 
L 88.926316 61.2 
L 89.178947 61.2 
L 89.431579 61.2 
L 89.684211 61.2 
L 89.936842 61.2 
L 90.189474 61.2 
L 90.442105 61.2 
L 90.694737 61.2 
L 90.947368 61.2 
L 91.2 61.2 
L 91.452632 61.2 
L 91.705263 61.2 
L 91.957895 61.2 
L 92.210526 61.2 
L 92.463158 61.2 
L 92.715789 61.2 
L 92.968421 61.2 
L 93.221053 61.2 
L 93.473684 61.2 
L 93.726316 61.2 
L 93.978947 61.2 
L 94.231579 61.2 
L 94.484211 61.2 
L 94.736842 61.2 
L 94.989474 61.2 
L 95.242105 61.2 
L 95.494737 61.2 
L 95.747368 61.2 
L 96 61.2 
L 96.252632 61.2 
L 96.505263 61.2 
L 96.757895 61.2 
L 97.010526 61.2 
L 97.263158 61.2 
L 97.515789 61.2 
L 97.768421 61.2 
L 98.021053 61.2 
L 98.273684 61.2 
L 98.526316 61.2 
L 98.778947 61.2 
L 99.031579 61.2 
L 99.284211 61.2 
L 99.536842 61.2 
L 99.789474 61.2 
L 100.042105 61.2 
L 100.294737 61.2 
L 100.547368 61.2 
L 100.8 61.2 
L 100.8 61.2 
L 100.8 61.2 
L 100.547368 61.2 
L 100.294737 61.2 
L 100.042105 61.2 
L 99.789474 61.2 
L 99.536842 61.2 
L 99.284211 61.2 
L 99.031579 61.2 
L 98.778947 61.2 
L 98.526316 61.2 
L 98.273684 61.2 
L 98.021053 61.2 
L 97.768421 61.2 
L 97.515789 61.2 
L 97.263158 61.2 
L 97.010526 61.2 
L 96.757895 61.2 
L 96.505263 61.2 
L 96.252632 61.2 
L 96 61.2 
L 95.747368 61.2 
L 95.494737 61.2 
L 95.242105 61.2 
L 94.989474 61.2 
L 94.736842 61.2 
L 94.484211 61.2 
L 94.231579 61.2 
L 93.978947 61.2 
L 93.726316 61.2 
L 93.473684 61.2 
L 93.221053 61.2 
L 92.968421 61.2 
L 92.715789 61.2 
L 92.463158 61.2 
L 92.210526 61.2 
L 91.957895 61.2 
L 91.705263 61.2 
L 91.452632 61.2 
L 91.2 61.2 
L 90.947368 61.2 
L 90.694737 61.2 
L 90.442105 61.2 
L 90.189474 61.2 
L 89.936842 61.2 
L 89.684211 61.2 
L 89.431579 61.2 
L 89.178947 61.2 
L 88.926316 61.2 
L 88.673684 61.2 
L 88.421053 61.2 
L 88.168421 61.2 
L 87.915789 61.2 
L 87.663158 61.2 
L 87.410526 61.2 
L 87.157895 61.2 
L 86.905263 61.2 
L 86.652632 61.2 
L 86.4 61.2 
L 86.147368 61.2 
L 85.894737 61.2 
L 85.642105 61.2 
L 85.389474 61.2 
L 85.136842 61.2 
L 84.884211 61.2 
L 84.631579 61.2 
L 84.378947 61.2 
L 84.126316 61.2 
L 83.873684 61.2 
L 83.621053 61.2 
L 83.368421 61.2 
L 83.115789 61.2 
L 82.863158 61.2 
L 82.610526 61.2 
L 82.357895 61.2 
L 82.105263 61.2 
L 81.852632 61.2 
L 81.6 61.2 
L 81.347368 61.2 
L 81.094737 61.2 
L 80.842105 61.2 
L 80.589474 61.2 
L 80.336842 61.2 
L 80.084211 61.2 
L 79.831579 61.2 
L 79.578947 61.2 
L 79.326316 61.2 
L 79.073684 61.2 
L 78.821053 61.2 
L 78.568421 61.2 
L 78.315789 61.2 
L 78.063158 61.2 
L 77.810526 61.2 
L 77.557895 61.2 
L 77.305263 61.199999 
L 77.052632 61.199999 
L 76.8 61.199999 
L 76.547368 61.199998 
L 76.294737 61.199997 
L 76.042105 61.199996 
L 75.789474 61.199995 
L 75.536842 61.199993 
L 75.284211 61.199991 
L 75.031579 61.199987 
L 74.778947 61.199983 
L 74.526316 61.199976 
L 74.273684 61.199968 
L 74.021053 61.199956 
L 73.768421 61.199941 
L 73.515789 61.199921 
L 73.263158 61.199894 
L 73.010526 61.199858 
L 72.757895 61.199811 
L 72.505263 61.199749 
L 72.252632 61.199667 
L 72 61.199561 
L 71.747368 61.199422 
L 71.494737 61.199242 
L 71.242105 61.199009 
L 70.989474 61.198709 
L 70.736842 61.198324 
L 70.484211 61.19783 
L 70.231579 61.1972 
L 69.978947 61.196399 
L 69.726316 61.195383 
L 69.473684 61.194099 
L 69.221053 61.192483 
L 68.968421 61.190455 
L 68.715789 61.18792 
L 68.463158 61.18476 
L 68.210526 61.180836 
L 67.957895 61.175978 
L 67.705263 61.169987 
L 67.452632 61.162622 
L 67.2 61.1536 
L 66.947368 61.142585 
L 66.694737 61.129185 
L 66.442105 61.112938 
L 66.189474 61.093309 
L 65.936842 61.069676 
L 65.684211 61.041321 
L 65.431579 61.007419 
L 65.178947 60.967027 
L 64.926316 60.919071 
L 64.673684 60.862335 
L 64.421053 60.795448 
L 64.168421 60.716874 
L 63.915789 60.624898 
L 63.663158 60.517618 
L 63.410526 60.392934 
L 63.157895 60.248543 
L 62.905263 60.081934 
L 62.652632 59.890383 
L 62.4 59.670958 
L 62.147368 59.42052 
L 61.894737 59.135736 
L 61.642105 58.813092 
L 61.389474 58.448911 
L 61.136842 58.039382 
L 60.884211 57.58059 
L 60.631579 57.068554 
L 60.378947 56.499276 
L 60.126316 55.868789 
L 59.873684 55.173219 
L 59.621053 54.408849 
L 59.368421 53.572192 
L 59.115789 52.660064 
L 58.863158 51.669671 
L 58.610526 50.598688 
L 58.357895 49.445349 
L 58.105263 48.208529 
L 57.852632 46.887835 
L 57.6 45.483684 
L 57.347368 43.997378 
L 57.094737 42.431181 
L 56.842105 40.78837 
L 56.589474 39.073289 
L 56.336842 37.291383 
L 56.084211 35.449213 
L 55.831579 33.554467 
L 55.578947 31.615933 
L 55.326316 29.643472 
L 55.073684 27.647956 
L 54.821053 25.641192 
L 54.568421 23.635827 
L 54.315789 21.645227 
L 54.063158 19.683341 
L 53.810526 17.764549 
L 53.557895 15.903494 
L 53.305263 14.114898 
L 53.052632 12.413378 
L 52.8 10.813242 
L 52.547368 9.328296 
L 52.294737 7.971644 
L 52.042105 6.755499 
L 51.789474 5.690997 
L 51.536842 4.788031 
L 51.284211 4.055094 
L 51.031579 3.499148 
L 50.778947 3.125516 
L 50.526316 2.937794 
L 50.273684 2.937794 
L 50.021053 3.125516 
L 49.768421 3.499148 
L 49.515789 4.055094 
L 49.263158 4.788031 
L 49.010526 5.690997 
L 48.757895 6.755499 
L 48.505263 7.971644 
L 48.252632 9.328296 
L 48 10.813242 
L 47.747368 12.413378 
L 47.494737 14.114898 
L 47.242105 15.903494 
L 46.989474 17.764549 
L 46.736842 19.683341 
L 46.484211 21.645227 
L 46.231579 23.635827 
L 45.978947 25.641192 
L 45.726316 27.647956 
L 45.473684 29.643472 
L 45.221053 31.615933 
L 44.968421 33.554467 
L 44.715789 35.449213 
L 44.463158 37.291383 
L 44.210526 39.073289 
L 43.957895 40.78837 
L 43.705263 42.431181 
L 43.452632 43.997378 
L 43.2 45.483684 
L 42.947368 46.887835 
L 42.694737 48.208529 
L 42.442105 49.445349 
L 42.189474 50.598688 
L 41.936842 51.669671 
L 41.684211 52.660064 
L 41.431579 53.572192 
L 41.178947 54.408849 
L 40.926316 55.173219 
L 40.673684 55.868789 
L 40.421053 56.499276 
L 40.168421 57.068554 
L 39.915789 57.58059 
L 39.663158 58.039382 
L 39.410526 58.448911 
L 39.157895 58.813092 
L 38.905263 59.135736 
L 38.652632 59.42052 
L 38.4 59.670958 
L 38.147368 59.890383 
L 37.894737 60.081934 
L 37.642105 60.248543 
L 37.389474 60.392934 
L 37.136842 60.517618 
L 36.884211 60.624898 
L 36.631579 60.716874 
L 36.378947 60.795448 
L 36.126316 60.862335 
L 35.873684 60.919071 
L 35.621053 60.967027 
L 35.368421 61.007419 
L 35.115789 61.041321 
L 34.863158 61.069676 
L 34.610526 61.093309 
L 34.357895 61.112938 
L 34.105263 61.129185 
L 33.852632 61.142585 
L 33.6 61.1536 
L 33.347368 61.162622 
L 33.094737 61.169987 
L 32.842105 61.175978 
L 32.589474 61.180836 
L 32.336842 61.18476 
L 32.084211 61.18792 
L 31.831579 61.190455 
L 31.578947 61.192483 
L 31.326316 61.194099 
L 31.073684 61.195383 
L 30.821053 61.196399 
L 30.568421 61.1972 
L 30.315789 61.19783 
L 30.063158 61.198324 
L 29.810526 61.198709 
L 29.557895 61.199009 
L 29.305263 61.199242 
L 29.052632 61.199422 
L 28.8 61.199561 
L 28.547368 61.199667 
L 28.294737 61.199749 
L 28.042105 61.199811 
L 27.789474 61.199858 
L 27.536842 61.199894 
L 27.284211 61.199921 
L 27.031579 61.199941 
L 26.778947 61.199956 
L 26.526316 61.199968 
L 26.273684 61.199976 
L 26.021053 61.199983 
L 25.768421 61.199987 
L 25.515789 61.199991 
L 25.263158 61.199993 
L 25.010526 61.199995 
L 24.757895 61.199996 
L 24.505263 61.199997 
L 24.252632 61.199998 
L 24 61.199999 
L 23.747368 61.199999 
L 23.494737 61.199999 
L 23.242105 61.2 
L 22.989474 61.2 
L 22.736842 61.2 
L 22.484211 61.2 
L 22.231579 61.2 
L 21.978947 61.2 
L 21.726316 61.2 
L 21.473684 61.2 
L 21.221053 61.2 
L 20.968421 61.2 
L 20.715789 61.2 
L 20.463158 61.2 
L 20.210526 61.2 
L 19.957895 61.2 
L 19.705263 61.2 
L 19.452632 61.2 
L 19.2 61.2 
L 18.947368 61.2 
L 18.694737 61.2 
L 18.442105 61.2 
L 18.189474 61.2 
L 17.936842 61.2 
L 17.684211 61.2 
L 17.431579 61.2 
L 17.178947 61.2 
L 16.926316 61.2 
L 16.673684 61.2 
L 16.421053 61.2 
L 16.168421 61.2 
L 15.915789 61.2 
L 15.663158 61.2 
L 15.410526 61.2 
L 15.157895 61.2 
L 14.905263 61.2 
L 14.652632 61.2 
L 14.4 61.2 
L 14.147368 61.2 
L 13.894737 61.2 
L 13.642105 61.2 
L 13.389474 61.2 
L 13.136842 61.2 
L 12.884211 61.2 
L 12.631579 61.2 
L 12.378947 61.2 
L 12.126316 61.2 
L 11.873684 61.2 
L 11.621053 61.2 
L 11.368421 61.2 
L 11.115789 61.2 
L 10.863158 61.2 
L 10.610526 61.2 
L 10.357895 61.2 
L 10.105263 61.2 
L 9.852632 61.2 
L 9.6 61.2 
L 9.347368 61.2 
L 9.094737 61.2 
L 8.842105 61.2 
L 8.589474 61.2 
L 8.336842 61.2 
L 8.084211 61.2 
L 7.831579 61.2 
L 7.578947 61.2 
L 7.326316 61.2 
L 7.073684 61.2 
L 6.821053 61.2 
L 6.568421 61.2 
L 6.315789 61.2 
L 6.063158 61.2 
L 5.810526 61.2 
L 5.557895 61.2 
L 5.305263 61.2 
L 5.052632 61.2 
L 4.8 61.2 
L 4.547368 61.2 
L 4.294737 61.2 
L 4.042105 61.2 
L 3.789474 61.2 
L 3.536842 61.2 
L 3.284211 61.2 
L 3.031579 61.2 
L 2.778947 61.2 
L 2.526316 61.2 
L 2.273684 61.2 
L 2.021053 61.2 
L 1.768421 61.2 
L 1.515789 61.2 
L 1.263158 61.2 
L 1.010526 61.2 
L 0.757895 61.2 
L 0.505263 61.2 
L 0.252632 61.2 
L 0 61.2 
z
" clip-path="url(#pd7ad935051)" style="fill: #8c1515; fill-opacity: 0.92"/>
   </g>
  </g>
 </g>
 <defs>
  <clipPath id="pd7ad935051">
   <rect x="0" y="0" width="100.8" height="61.2"/>
  </clipPath>
 </defs>
</svg>
