<svg viewBox="0 0 146.8 28.5" xmlns="http://www.w3.org/2000/svg" xmlns:xlink="http://www.w3.org/1999/xlink" id="Layer_1" overflow="hidden"><g><g><path d="M90.5 3.8 90.5 3.8 93.3 8 94.2 8 94.2 2.9 93.5 2.9 93.5 7.1 93.5 7.1 90.7 2.9 89.8 2.9 89.8 8 90.5 8Z" fill="#FFFFFF"/><path d="M96.5 6.7 98.9 6.7 99.4 8 100.2 8 98 2.9 97.4 2.9 95.2 8 96 8 96.5 6.7ZM97.7 3.8 97.7 3.8 98.7 6.1 96.8 6.1 97.7 3.8Z" fill="#FFFFFF"/><path d="M101.9 8 102.5 8 102.5 3.5 104.2 3.5 104.2 2.9 100.2 2.9 100.2 3.5 101.9 3.5Z" fill="#FFFFFF"/><rect x="105.5" y="2.9" width="0.7" height="5.1" fill="#FFFFFF"/><path d="M112.9 5.4C112.9 3.9 111.8 2.7 110.3 2.7 108.7 2.7 107.7 3.9 107.7 5.4 107.7 6.9 108.8 8.1 110.3 8.1 111.8 8.1 112.9 6.9 112.9 5.4ZM110.3 7.5C109.1 7.5 108.4 6.6 108.4 5.5 108.4 4.4 109.2 3.5 110.3 3.5 111.5 3.5 112.2 4.4 112.2 5.5 112.2 6.5 111.4 7.5 110.3 7.5Z" fill="#FFFFFF"/><path d="M115 3.8 115.1 3.8 117.9 8 118.8 8 118.8 2.9 118.1 2.9 118.1 7.1 118.1 7.1 115.3 2.9 114.4 2.9 114.4 8 115 8Z" fill="#FFFFFF"/><path d="M122.7 2.9 122.1 2.9 119.9 8 120.7 8 121.2 6.7 123.6 6.7 124.1 8 124.9 8 122.7 2.9ZM121.4 6.1 122.4 3.8 122.4 3.8 123.3 6.1 121.4 6.1Z" fill="#FFFFFF"/><path d="M129.1 7.3 126.8 7.3 126.8 2.9 126.1 2.9 126.1 8 129.1 8Z" fill="#FFFFFF"/><path d="M94.2 16.8 92 11.7 91.4 11.7 89.2 16.8 90 16.8 90.5 15.6 92.9 15.6 93.4 16.8 94.2 16.8ZM90.7 14.9 91.7 12.6 91.7 12.6 92.6 14.9 90.7 14.9Z" fill="#FFFFFF"/><path d="M97.3 16.3C96.1 16.3 95.4 15.4 95.4 14.3 95.4 13.2 96.2 12.2 97.3 12.2 97.8 12.2 98.2 12.4 98.5 12.8L99.1 12.4C98.7 11.9 98 11.6 97.3 11.6 95.7 11.6 94.7 12.7 94.7 14.3 94.7 15.6 95.7 16.9 97.3 16.9 98.5 16.9 99.1 16.2 99.2 16L98.6 15.6C98.3 16 97.9 16.3 97.3 16.3Z" fill="#FFFFFF"/><path d="M102.4 12.2C102.9 12.2 103.3 12.4 103.6 12.8L104.2 12.4C103.8 11.9 103.1 11.6 102.4 11.6 100.8 11.6 99.8 12.7 99.8 14.3 99.8 15.6 100.8 16.9 102.4 16.9 103.6 16.9 104.2 16.2 104.3 16L103.7 15.6C103.4 16 103 16.3 102.4 16.3 101.2 16.3 100.5 15.4 100.5 14.3 100.5 13.1 101.2 12.2 102.4 12.2Z" fill="#FFFFFF"/><path d="M108.8 12.4 108.8 11.7 105.5 11.7 105.5 16.8 108.9 16.8 108.9 16.1 106.2 16.1 106.2 14.5 108.6 14.5 108.6 13.9 106.2 13.9 106.2 12.4Z" fill="#FFFFFF"/><path d="M110.6 11.7 110.6 16.8 113.6 16.8 113.6 16.1 111.3 16.1 111.3 11.7Z" fill="#FFFFFF"/><path d="M118.2 12.4 118.2 11.7 114.9 11.7 114.9 16.8 118.3 16.8 118.3 16.1 115.6 16.1 115.6 14.5 118 14.5 118 13.9 115.6 13.9 115.6 12.4Z" fill="#FFFFFF"/><path d="M123.4 13.1C123.4 12.5 123.1 11.7 121.8 11.7L120 11.7 120 16.8 120.7 16.8 120.7 14.6 121.5 14.6 122.8 16.8 123.7 16.8 122.3 14.5C122.9 14.4 123.4 13.8 123.4 13.1ZM121.6 13.9 120.7 13.9 120.7 12.3 121.6 12.3C122.1 12.3 122.7 12.4 122.7 13.1 122.7 13.8 122.1 13.9 121.6 13.9Z" fill="#FFFFFF"/><path d="M126.6 11.7 124.4 16.8 125.2 16.8 125.7 15.6 128.1 15.6 128.6 16.8 129.4 16.8 127.2 11.7 126.6 11.7ZM125.9 14.9 126.9 12.6 126.9 12.6 127.8 14.9 125.9 14.9Z" fill="#FFFFFF"/><path d="M131.1 16.8 131.8 16.8 131.8 12.4 133.4 12.4 133.4 11.7 129.5 11.7 129.5 12.4 131.1 12.4Z" fill="#FFFFFF"/><path d="M139.1 14.2C139.1 12.7 138 11.5 136.5 11.5 135 11.5 133.9 12.7 133.9 14.2 133.9 15.7 135 16.9 136.5 16.9 138 16.9 139.1 15.7 139.1 14.2ZM134.6 14.2C134.6 13.1 135.3 12.2 136.5 12.2 137.7 12.2 138.4 13.1 138.4 14.2 138.4 15.3 137.6 16.2 136.5 16.2 135.3 16.3 134.6 15.4 134.6 14.2Z" fill="#FFFFFF"/><path d="M142.6 14.5C143.4 14.4 143.8 13.8 143.8 13.2 143.8 12.6 143.5 11.8 142.2 11.8L140.4 11.8 140.4 16.9 141.1 16.9 141.1 14.7 141.9 14.7 143.2 16.9 144.1 16.9 142.6 14.5ZM141.1 13.9 141.1 12.3 142 12.3C142.5 12.3 143.1 12.4 143.1 13.1 143.1 13.8 142.6 13.9 142 13.9L141.1 13.9Z" fill="#FFFFFF"/><path d="M101.7 22.9 101.7 22.9C102.2 22.7 102.6 22.4 102.6 21.8 102.6 20.9 101.9 20.5 101.1 20.5L99.3 20.5 99.3 25.6 101 25.6C102 25.6 102.8 25.1 102.8 24.2 102.8 23.5 102.3 23 101.7 22.9ZM100 21.1 101.1 21.1C101.6 21.1 101.9 21.4 101.9 21.8 101.9 22.4 101.5 22.6 101 22.6L100 22.6 100 21.1ZM101 25 100 25 100 23.2 101 23.2C101.7 23.2 102.1 23.5 102.1 24.1 102.1 24.8 101.4 25 101 25Z" fill="#FFFFFF"/><path d="M106.5 20.4C105 20.4 103.9 21.6 103.9 23.1 103.9 24.6 105 25.8 106.5 25.8 108 25.8 109.1 24.6 109.1 23.1 109.1 21.6 108.1 20.4 106.5 20.4ZM106.5 25.1C105.3 25.1 104.6 24.2 104.6 23.1 104.6 22 105.3 21.1 106.5 21.1 107.7 21.1 108.4 22 108.4 23.1 108.4 24.2 107.7 25.1 106.5 25.1Z" fill="#FFFFFF"/><path d="M113.9 21.9C113.9 21.3 113.6 20.5 112.3 20.5L110.5 20.5 110.5 25.6 111.2 25.6 111.2 23.4 112 23.4 113.3 25.6 114.2 25.6 112.8 23.3C113.5 23.2 113.9 22.6 113.9 21.9ZM111.2 22.8 111.2 21.2 112.1 21.2C112.6 21.2 113.2 21.3 113.2 22 113.2 22.7 112.7 22.8 112.1 22.8L111.2 22.8Z" fill="#FFFFFF"/><path d="M117.1 20.5 114.9 25.6 115.7 25.6 116.2 24.3 118.6 24.3 119.1 25.6 119.9 25.6 117.7 20.5 117.1 20.5ZM116.4 23.7 117.4 21.4 117.4 21.4 118.3 23.7 116.4 23.7Z" fill="#FFFFFF"/><path d="M120 21.2 121.6 21.2 121.6 25.6 122.3 25.6 122.3 21.2 123.9 21.2 123.9 20.5 120 20.5Z" fill="#FFFFFF"/><path d="M127 20.4C125.5 20.4 124.4 21.6 124.4 23.1 124.4 24.6 125.5 25.8 127 25.8 128.5 25.8 129.6 24.6 129.6 23.1 129.6 21.6 128.5 20.4 127 20.4ZM127 25.1C125.8 25.1 125.1 24.2 125.1 23.1 125.1 22 125.9 21.1 127 21.1 128.2 21.1 128.9 22 128.9 23.1 128.9 24.2 128.1 25.1 127 25.1Z" fill="#FFFFFF"/><path d="M134.4 21.9C134.4 21.3 134.1 20.5 132.8 20.5L131 20.5 131 25.6 131.7 25.6 131.7 23.4 132.5 23.4 133.8 25.6 134.7 25.6 133.3 23.3C134 23.2 134.4 22.6 134.4 21.9ZM131.7 22.8 131.7 21.2 132.6 21.2C133.1 21.2 133.7 21.3 133.7 22 133.7 22.7 133.2 22.8 132.6 22.8L131.7 22.8Z" fill="#FFFFFF"/><path d="M137.7 22.7 136.4 20.5 135.5 20.5 137.4 23.4 137.4 25.6 138.1 25.6 138.1 23.4 140 20.5 139.2 20.5Z" fill="#FFFFFF"/><path d="M90.5 20.5 89.8 20.5 89.8 25.6 92.8 25.6 92.8 24.9 90.5 24.9Z" fill="#FFFFFF"/><path d="M95.4 20.5 93.2 25.6 94 25.6 94.5 24.3 96.9 24.3 97.4 25.6 98.2 25.6 96 20.5 95.4 20.5ZM94.8 23.7 95.8 21.4 95.8 21.4 96.7 23.7 94.8 23.7Z" fill="#FFFFFF"/></g><rect x="21.9" y="13.4" width="5" height="1.7" fill="#FFFFFF"/><path d="M26.9 16.7 21.9 16.7 21.9 25.5 38.1 25.5 38.1 21 26.9 21Z" fill="#FFFFFF"/><rect x="21.9" y="3" width="5" height="8.8" fill="#FFFFFF"/><path d="M53.4 2.8 48.8 2.8 45 11.8 57.2 11.8Z" fill="#FFFFFF"/><path d="M42.9 16.7 39.1 25.5 44.2 25.5 46.2 20.5 55.8 20.5 57.8 25.5 63 25.5 59.3 16.7Z" fill="#FFFFFF"/><path d="M57.9 13.4 44.3 13.4 43.6 15.1 58.6 15.1Z" fill="#FFFFFF"/><path d="M69.3 14.2C69.3 15.9 70.7 17.3 72.4 17.3 74.1 17.3 75.5 15.9 75.5 14.2 75.5 12.5 74.1 11.1 72.4 11.1 70.7 11.1 69.3 12.5 69.3 14.2Z" fill="#FFFFFF"/><path d="M65.4 15.1C65.4 14.8 65.4 14.6 65.4 14.3 65.4 14 65.4 13.7 65.5 13.5L60.9 13.5C60.9 13.8 60.9 14 60.9 14.3 60.9 14.6 60.9 14.8 60.9 15.1L65.4 15.1Z" fill="#FFFFFF"/><path d="M72.4 7.1C74.7 7.1 76.7 8.2 78 9.9L81 6.4C78.9 4 75.8 2.6 72.3 2.6 66.7 2.6 62 6.5 60.9 11.8L65.7 11.8C66.8 9.1 69.4 7.1 72.4 7.1Z" fill="#FFFFFF"/><path d="M78.1 18.4C76.8 20.2 74.7 21.3 72.4 21.3 69.3 21.3 66.8 19.4 65.8 16.7L61 16.7C62.1 22 66.8 25.9 72.4 25.9 76 25.9 79.2 24.3 81.4 21.7L78.1 18.4Z" fill="#FFFFFF"/><path d="M12.5 11.8C9.4 10.9 8.6 10.4 8.6 9 8.6 7.9 9.6 7 11.5 7 13.4 7 15.4 7.8 17.4 9.2L20 5.5C17.7 3.7 14.9 2.6 11.6 2.6 7 2.7 3.7 5.4 3.7 9.5 3.7 10.4 3.8 11.1 4 11.8L12.5 11.8Z" fill="#FFFFFF"/><path d="M12.3 16.7C15.1 17.5 15.7 18.1 15.7 19.3 15.7 20.7 14.5 21.5 12.4 21.5 9.8 21.5 7.7 20.4 5.7 18.8L2.8 22.3C5.5 24.7 8.9 25.9 12.4 25.9 17.3 25.9 20.7 23.4 20.7 18.9 20.7 18.1 20.6 17.4 20.4 16.8L12.3 16.8Z" fill="#FFFFFF"/><path d="M4.9 13.4C5.5 14.1 6.2 14.6 7.1 15.1L19.4 15.1C18.9 14.4 18.2 13.9 17.3 13.4L4.9 13.4Z" fill="#FFFFFF"/></g></svg>