<svg viewBox="0 0 1920 960" xmlns="http://www.w3.org/2000/svg" xmlns:xlink="http://www.w3.org/1999/xlink" id="Layer_1" overflow="hidden"><g><g><defs><rect x="0" y="0" width="1920" height="960" id="SVGID_1_" stroke="none" stroke-width="1" fill="#F1563C" fill-opacity="0.32571"/></defs><clipPath id="SVGID_2_"><use width="100%" height="100%" xlink:href="#SVGID_1_" overflow="visible"></use></clipPath><linearGradient x1="1968.31" y1="349.665" x2="582.577" y2="742.211" gradientUnits="userSpaceOnUse" id="SVGID_3_" gradientTransform="matrix(-1 0 0 -1 1607.88 960)"><stop offset="0.1345" stop-color="#F1563C"/><stop offset="1" stop-color="#A90533"/></linearGradient><path d="M605.1 1125.7 548.5 1123 364.5 571.6 466.5 1241.9 416 1290.4 386.3 939.8 362.2 718.1 358.3 950.4 304 960.7 324.6 738.9 245 1147.4 105.6 1113.9 276.8 659.7-89.6 1460.4-192.9 1404.2 104.5 840.6-61.5 1050.7-169.5 1050.7 276.8 513.8-195.3 990.6-251.6 937.8 111.5 662.4-336.6 826.9 111.5 562.7 95.7 569-527.9 826.7-552.2 778.9-175.3 642-195.5 619-749 745-833.6 728.4-810.8 586.2 276.2 464.8-315 434.4-305.1 346.2 87.1 363.6-330.2 199.6-317.3 73 180.1 346.2 13.7 230.4 35.5 194 109.5 237.8-526.2-357.7-486.5-445.9-336.5-317.3-305.3-373.7 315.3 413.6-149.5-305.2-54.8-428.6 153-7.5 188.6-46.2 315.3 296.4 229.9-245.1 313.2-219.9 378 382.7 441.2-214.2 441.2 153 555.4-602 682.8-581.5 405.6 402.6 751.6-484.1 844.2-440.6 556.6 211.9 740.7-17.3 807.5 69.6 579 292.5 1157-70.1C1157-70.1 1204.8 12.7 1188.8 15.9 1172.9 19.1 1125.1 38.2 1125.1 38.2L1128.3 79.6 454.9 413.6 1508.4 30.5 1554.5 185.9 606.3 412.8 468.4 466.1 1363 403.8 1366.3 549.3 858.2 513.6 891.5 562.3 608.8 513.6 651.4 568.2 1349.9 877.1 1229.4 986.5 405.7 513.5 1111.5 1038.4 1096.1 1120.3 604 704.1 552.2 718.2 968 1195.2 894.3 1298.1 660.5 940.4 874.5 1329.2 822.8 1367.1 491 737.1 605.1 1125.7Z" stroke="none" stroke-width="1" fill="#F1563C" fill-opacity="0.32571" clip-path="url(#SVGID_2_)" opacity="0.3"/></g></g></svg>